<svg width="1269" height="711" xmlns="http://www.w3.org/2000/svg" xmlns:xlink="http://www.w3.org/1999/xlink" overflow="hidden"><defs><clipPath id="clip0"><rect x="6" y="-2" width="1269" height="711"/></clipPath></defs><g clip-path="url(#clip0)" transform="translate(-6 2)"><path d="M856 159 856.753 671.725" stroke="#E6CFD3" stroke-width="8" stroke-miterlimit="8" fill="none" fill-rule="evenodd"/><path d="M630 669 859.591 672.258" stroke="#E6CFD3" stroke-width="8" stroke-miterlimit="8" fill="none" fill-rule="evenodd"/><path d="M0 0 5.57207 352.411" stroke="#E6CFD3" stroke-width="8" stroke-miterlimit="8" fill="none" fill-rule="evenodd" transform="matrix(-1 0 0 1 303.572 328)"/><path d="M299 676 538.433 676.447" stroke="#E6CFD3" stroke-width="8" stroke-miterlimit="8" fill="none" fill-rule="evenodd"/><path d="M299 413 456.871 415.024" stroke="#E6CFD3" stroke-width="8" stroke-miterlimit="8" fill="none" fill-rule="evenodd"/><path d="M695 413 855.541 413" stroke="#E6CFD3" stroke-width="8" stroke-miterlimit="8" fill="none" fill-rule="evenodd"/><path d="M638.02 386 623 440.261" stroke="#E6CFD3" stroke-width="8" stroke-miterlimit="8" fill="none" fill-rule="evenodd"/><path d="M0 0 54.2607 15.0204" stroke="#E6CFD3" stroke-width="8" stroke-miterlimit="8" fill="none" fill-rule="evenodd" transform="matrix(1.83697e-16 1 1 -1.83697e-16 638 386)"/><path d="M670.02 386 655 440.261" stroke="#E6CFD3" stroke-width="8" stroke-miterlimit="8" fill="none" fill-rule="evenodd"/><path d="M0 0 54.2607 15.0204" stroke="#E6CFD3" stroke-width="8" stroke-miterlimit="8" fill="none" fill-rule="evenodd" transform="matrix(1.83697e-16 1 1 -1.83697e-16 670 388)"/><path d="M0 0 54.2607 15.0204" stroke="#E6CFD3" stroke-width="8" stroke-miterlimit="8" fill="none" fill-rule="evenodd" transform="matrix(1.83697e-16 1 1 -1.83697e-16 606 386)"/><path d="M606.398 386 597 420.535" stroke="#E6CFD3" stroke-width="8" stroke-miterlimit="8" fill="none" fill-rule="evenodd"/><path d="M695.398 408 686 442.535" stroke="#E6CFD3" stroke-width="8" stroke-miterlimit="8" fill="none" fill-rule="evenodd"/><path d="M527.628 388.361 527.628 376.872 515.772 376.872 515.772 374.128 527.628 374.128 527.628 362.639 530.372 362.639 530.372 374.128 542.228 374.128 542.228 376.872 530.372 376.872 530.372 388.361Z" stroke="#E6CFD3" stroke-width="8" stroke-miterlimit="8" fill="#CFDCE6" fill-rule="evenodd"/><path d="M7.92-3.99999 56.6518-3.99989 56.6517 4.0001 7.91999 4.00001ZM29.9045 17.4552-0.0185392-1.13144e-07 29.9045-17.4551C31.8128-18.5682 34.262-17.9236 35.3751-16.0154 36.4883-14.1072 35.8437-11.6579 33.9355-10.5448L9.93548 3.45513 9.93549-3.4551 33.9355 10.5449C35.8437 11.6581 36.4882 14.1073 35.3751 16.0155 34.262 17.9238 31.8127 18.5683 29.9045 17.4552Z" fill="#E6CFD3" transform="matrix(-1 0 0 1 803.652 413)"/><path d="M292 155 555.683 158.791" stroke="#E6CFD3" stroke-width="8" stroke-miterlimit="8" fill="none" fill-rule="evenodd"/><path d="M0 0 268.55 0.0426247" stroke="#E6CFD3" stroke-width="8" stroke-miterlimit="8" fill="none" fill-rule="evenodd" transform="matrix(1 0 0 -1 591 157.043)"/><path d="M326.261 270.02 272 255" stroke="#E6CFD3" stroke-width="8" stroke-miterlimit="8" fill="none" fill-rule="evenodd"/><path d="M0 0 54.2607 15.0204" stroke="#E6CFD3" stroke-width="8" stroke-miterlimit="8" fill="none" fill-rule="evenodd" transform="matrix(-1 0 0 1 326.261 270)"/><path d="M326.261 303.02 272 288" stroke="#E6CFD3" stroke-width="8" stroke-miterlimit="8" fill="none" fill-rule="evenodd"/><path d="M0 0 54.2607 15.0204" stroke="#E6CFD3" stroke-width="8" stroke-miterlimit="8" fill="none" fill-rule="evenodd" transform="matrix(-1 0 0 1 324.261 303)"/><path d="M0 0 54.2607 15.0204" stroke="#E6CFD3" stroke-width="8" stroke-miterlimit="8" fill="none" fill-rule="evenodd" transform="matrix(-1 0 0 1 326.261 239)"/><path d="M326.535 239.398 292 230" stroke="#E6CFD3" stroke-width="8" stroke-miterlimit="8" fill="none" fill-rule="evenodd"/><path d="M304.535 327.398 270 318" stroke="#E6CFD3" stroke-width="8" stroke-miterlimit="8" fill="none" fill-rule="evenodd"/><text fill="#E6CFD3" font-family="Arial,Arial_MSFontService,sans-serif" font-weight="700" font-size="64" transform="translate(528.762 630)">1<tspan font-size="64" x="53.5" y="0">Ω</tspan><tspan font-size="64" x="-391.53" y="-327">2</tspan><tspan font-size="64" x="-338.03" y="-327">Ω</tspan></text><path d="M0 0 116.948 0.000104987" stroke="#E6CFD3" stroke-width="8" stroke-miterlimit="8" fill="none" fill-rule="evenodd" transform="matrix(-6.12323e-17 -1 -1 6.12323e-17 495 476.948)"/><path d="M0 0 68.2129 0.000104987" stroke="#E6CFD3" stroke-width="8" stroke-miterlimit="8" fill="none" fill-rule="evenodd" transform="matrix(-6.12323e-17 -1 -1 6.12323e-17 456 447.213)"/><path d="M500 418 597.931 419.256" stroke="#E6CFD3" stroke-width="8" stroke-miterlimit="8" fill="none" fill-rule="evenodd"/><path d="M573.02 647 558 701.261" stroke="#E6CFD3" stroke-width="8" stroke-miterlimit="8" fill="none" fill-rule="evenodd"/><path d="M0 0 54.2607 15.0204" stroke="#E6CFD3" stroke-width="8" stroke-miterlimit="8" fill="none" fill-rule="evenodd" transform="matrix(1.83697e-16 1 1 -1.83697e-16 573 647)"/><path d="M606.02 647 591 701.261" stroke="#E6CFD3" stroke-width="8" stroke-miterlimit="8" fill="none" fill-rule="evenodd"/><path d="M0 0 54.2607 15.0204" stroke="#E6CFD3" stroke-width="8" stroke-miterlimit="8" fill="none" fill-rule="evenodd" transform="matrix(1.83697e-16 1 1 -1.83697e-16 606 649)"/><path d="M0 0 54.2607 15.0204" stroke="#E6CFD3" stroke-width="8" stroke-miterlimit="8" fill="none" fill-rule="evenodd" transform="matrix(1.83697e-16 1 1 -1.83697e-16 542 647)"/><path d="M542.398 647 533 681.535" stroke="#E6CFD3" stroke-width="8" stroke-miterlimit="8" fill="none" fill-rule="evenodd"/><path d="M631.398 669 622 703.535" stroke="#E6CFD3" stroke-width="8" stroke-miterlimit="8" fill="none" fill-rule="evenodd"/><path d="M293 153 293.369 229.564" stroke="#E6CFD3" stroke-width="8" stroke-miterlimit="8" fill="none" fill-rule="evenodd"/><path d="M860 244.92 860 287.504 852 287.504 852 244.92ZM838.545 266.905 856 236.981 873.455 266.904C874.568 268.813 873.924 271.262 872.016 272.375 870.107 273.488 867.658 272.844 866.545 270.935L852.545 246.935 859.455 246.935 845.455 270.936C844.342 272.844 841.893 273.488 839.985 272.375 838.076 271.262 837.432 268.813 838.545 266.905Z" fill="#E6CFD3"/><path d="M862 518.92 862 563.027 854 563.027 854 518.92ZM840.545 540.905 858 510.981 875.455 540.904C876.568 542.813 875.924 545.262 874.016 546.375 872.107 547.488 869.658 546.844 868.545 544.935L854.545 520.935 861.455 520.935 847.455 544.935C846.342 546.844 843.893 547.488 841.985 546.375 840.076 545.262 839.432 542.813 840.545 540.905Z" fill="#E6CFD3"/><text fill="#E6CFD3" font-family="Arial,Arial_MSFontService,sans-serif" font-weight="700" font-size="64" transform="translate(589.381 337)">3<tspan font-size="64" x="53.5" y="0">Ω</tspan><tspan font-size="64" x="-63.8828" y="-257">7</tspan><tspan font-size="64" x="-10.3828" y="-257">V</tspan><tspan font-size="64" x="-165.467" y="4">5</tspan><tspan font-size="64" x="-111.967" y="4">V</tspan></text><path d="M0 0 116.948 0.000104987" stroke="#E6CFD3" stroke-width="8" stroke-miterlimit="8" fill="none" fill-rule="evenodd" transform="matrix(1.83697e-16 1 1 -1.83697e-16 555 95)"/><path d="M0 0 68.2129 0.000104987" stroke="#E6CFD3" stroke-width="8" stroke-miterlimit="8" fill="none" fill-rule="evenodd" transform="matrix(1.83697e-16 1 1 -1.83697e-16 595 124)"/><path d="M515.628 136.361 515.628 124.872 503.772 124.872 503.772 122.128 515.628 122.128 515.628 110.639 518.372 110.639 518.372 122.128 530.228 122.128 530.228 124.872 518.372 124.872 518.372 136.361Z" stroke="#E6CFD3" stroke-width="8" stroke-miterlimit="8" fill="#CFDCE6" fill-rule="evenodd"/><path d="M249.24 658.038 262.257 658.038 261.895 659.746C260.911 660.023 260.187 660.506 259.721 661.196 259.255 661.886 258.815 663.162 258.401 665.026L253.691 686.376C253.57 686.928 253.484 687.407 253.432 687.812 253.381 688.218 253.355 688.748 253.355 689.404 253.355 690.128 253.523 690.659 253.859 690.995 254.196 691.332 254.744 691.552 255.503 691.655L255.14 693.363 242.123 693.363 242.486 691.655C243.469 691.379 244.194 690.896 244.659 690.206 245.125 689.516 245.565 688.239 245.979 686.376L250.689 665.026C250.913 664.008 251.026 662.999 251.026 661.998 251.026 661.273 250.857 660.743 250.521 660.406 250.185 660.07 249.637 659.85 248.878 659.746Z" fill="#E6CFD3" fill-rule="evenodd"/><text fill="#000000" fill-opacity="0" font-family="Arial,Arial_MSFontService,sans-serif" font-size="35.3247" x="242.123" y="688.948">𝑰</text><path d="M259.094 395.703 272.111 395.703 271.748 397.411C270.765 397.687 270.04 398.17 269.575 398.86 269.109 399.551 268.669 400.827 268.255 402.691L263.545 424.041C263.424 424.593 263.338 425.071 263.286 425.477 263.234 425.882 263.208 426.413 263.208 427.068 263.208 427.793 263.377 428.324 263.713 428.66 264.049 428.996 264.597 429.216 265.356 429.32L264.994 431.028 251.977 431.028 252.339 429.32C253.323 429.044 254.047 428.561 254.513 427.871 254.979 427.181 255.419 425.904 255.833 424.041L260.543 402.691C260.767 401.673 260.879 400.663 260.879 399.663 260.879 398.938 260.711 398.408 260.375 398.071 260.038 397.735 259.491 397.515 258.731 397.411ZM236.094 395.703 249.111 395.703 248.748 397.411C247.765 397.687 247.04 398.17 246.575 398.86 246.109 399.551 245.669 400.827 245.255 402.691L240.545 424.041C240.424 424.593 240.338 425.071 240.286 425.477 240.234 425.882 240.208 426.413 240.208 427.068 240.208 427.793 240.377 428.324 240.713 428.66 241.049 428.996 241.597 429.216 242.356 429.32L241.994 431.028 228.977 431.028 229.339 429.32C230.323 429.044 231.047 428.561 231.513 427.871 231.979 427.181 232.419 425.904 232.833 424.041L237.543 402.691C237.767 401.673 237.879 400.663 237.879 399.663 237.879 398.938 237.711 398.408 237.375 398.071 237.038 397.735 236.49 397.515 235.731 397.411Z" fill="#E6CFD3" fill-rule="evenodd"/><text fill="#000000" fill-opacity="0" font-family="Arial,Arial_MSFontService,sans-serif" font-size="35.3247" x="228.977" y="426.612">𝑰𝑰</text><path d="M938.256 393.918 951.274 393.918 950.911 395.626C949.928 395.902 949.203 396.385 948.737 397.075 948.272 397.765 947.832 399.042 947.418 400.905L942.708 422.255C942.587 422.808 942.501 423.286 942.449 423.692 942.397 424.097 942.371 424.628 942.371 425.283 942.371 426.008 942.539 426.538 942.876 426.875 943.212 427.211 943.76 427.431 944.519 427.535L944.157 429.243 931.14 429.243 931.502 427.535C932.485 427.259 933.21 426.776 933.676 426.086 934.142 425.395 934.582 424.119 934.996 422.255L939.706 400.905C939.93 399.887 940.042 398.878 940.042 397.878 940.042 397.153 939.874 396.622 939.537 396.286 939.201 395.95 938.653 395.73 937.894 395.626ZM915.256 393.918 928.274 393.918 927.911 395.626C926.928 395.902 926.203 396.385 925.737 397.075 925.272 397.765 924.832 399.042 924.418 400.905L919.708 422.255C919.587 422.808 919.501 423.286 919.449 423.692 919.397 424.097 919.371 424.628 919.371 425.283 919.371 426.008 919.539 426.538 919.876 426.875 920.212 427.211 920.76 427.431 921.519 427.535L921.157 429.243 908.14 429.243 908.502 427.535C909.485 427.259 910.21 426.776 910.676 426.086 911.142 425.395 911.582 424.119 911.996 422.255L916.706 400.905C916.93 399.887 917.042 398.878 917.042 397.878 917.042 397.153 916.874 396.622 916.537 396.286 916.201 395.95 915.653 395.73 914.894 395.626ZM892.256 393.918 905.274 393.918 904.911 395.626C903.928 395.902 903.203 396.385 902.737 397.075 902.272 397.765 901.832 399.042 901.418 400.905L896.708 422.255C896.587 422.808 896.501 423.286 896.449 423.692 896.397 424.097 896.371 424.628 896.371 425.283 896.371 426.008 896.539 426.538 896.876 426.875 897.212 427.211 897.76 427.431 898.519 427.535L898.157 429.243 885.14 429.243 885.502 427.535C886.485 427.259 887.21 426.776 887.676 426.086 888.142 425.395 888.582 424.119 888.996 422.255L893.706 400.905C893.93 399.887 894.042 398.878 894.042 397.878 894.042 397.153 893.874 396.622 893.537 396.286 893.201 395.95 892.653 395.73 891.894 395.626Z" fill="#E6CFD3" fill-rule="evenodd"/><text fill="#000000" fill-opacity="0" font-family="Arial,Arial_MSFontService,sans-serif" font-size="35.3247" x="885.14" y="424.827">𝑰𝑰𝑰</text><path d="M915.402 656.164 928.781 656.164 928.393 657.872C927.634 657.923 927.043 658.113 926.62 658.441 926.197 658.769 925.895 659.209 925.714 659.761 925.533 660.313 925.443 661.141 925.443 662.245L925.443 663.358C925.443 663.737 925.451 664.143 925.468 664.574L925.65 673.658C925.719 677.125 925.753 680.291 925.753 683.155L926.064 683.155 934.423 667.473C935.768 664.954 936.592 663.259 936.894 662.387 937.196 661.516 937.347 660.727 937.347 660.02 937.347 658.777 936.614 658.061 935.147 657.872L935.535 656.164 946.56 656.164 946.172 657.872C945.55 658.01 945.011 658.247 944.554 658.583 944.097 658.92 943.67 659.36 943.273 659.903 942.876 660.447 942.29 661.408 941.513 662.789L925.443 691.669 918.947 691.669 917.834 664.005C917.8 663.021 917.731 662.137 917.627 661.352 917.524 660.567 917.36 659.925 917.135 659.424 916.911 658.924 916.631 658.557 916.294 658.324 915.958 658.092 915.531 657.941 915.013 657.872ZM898.147 656.164 911.164 656.164 910.801 657.872C909.818 658.148 909.093 658.631 908.628 659.321 908.162 660.011 907.722 661.288 907.308 663.151L902.598 684.501C902.477 685.053 902.391 685.532 902.339 685.937 902.287 686.343 902.261 686.873 902.261 687.529 902.261 688.253 902.43 688.784 902.766 689.12 903.102 689.457 903.65 689.677 904.409 689.78L904.047 691.488 891.03 691.488 891.392 689.78C892.376 689.504 893.1 689.021 893.566 688.331 894.032 687.641 894.472 686.364 894.886 684.501L899.596 663.151C899.82 662.133 899.932 661.124 899.932 660.123 899.932 659.398 899.764 658.868 899.428 658.531 899.091 658.195 898.543 657.975 897.784 657.872Z" fill="#E6CFD3" fill-rule="evenodd"/><text fill="#000000" fill-opacity="0" font-family="Arial,Arial_MSFontService,sans-serif" font-size="35.5059" x="891.03" y="687.231">𝑰𝑽</text><path d="M930.17 115.457 943.187 115.457 942.824 117.165C941.841 117.441 941.116 117.924 940.651 118.614 940.185 119.304 939.745 120.581 939.331 122.444L934.621 143.794C934.5 144.346 934.414 144.825 934.362 145.23 934.31 145.636 934.284 146.166 934.284 146.822 934.284 147.547 934.453 148.077 934.789 148.413 935.125 148.75 935.673 148.97 936.432 149.073L936.07 150.781 923.053 150.781 923.415 149.073C924.399 148.797 925.123 148.314 925.589 147.624 926.055 146.934 926.495 145.657 926.909 143.794L931.619 122.444C931.843 121.426 931.955 120.417 931.955 119.416 931.955 118.692 931.787 118.161 931.451 117.825 931.114 117.488 930.566 117.268 929.807 117.165ZM889.424 115.457 902.804 115.457 902.416 117.165C901.657 117.216 901.066 117.406 900.643 117.734 900.22 118.062 899.918 118.502 899.737 119.054 899.556 119.606 899.466 120.434 899.466 121.538L899.466 122.651C899.466 123.031 899.474 123.436 899.491 123.867L899.673 132.951C899.742 136.419 899.776 139.584 899.776 142.448L900.087 142.448 908.445 126.766C909.791 124.247 910.615 122.552 910.917 121.681 911.219 120.809 911.37 120.02 911.37 119.313 911.37 118.07 910.637 117.354 909.17 117.165L909.558 115.457 920.583 115.457 920.195 117.165C919.573 117.303 919.034 117.54 918.577 117.876 918.12 118.213 917.693 118.653 917.296 119.196 916.899 119.74 916.313 120.701 915.536 122.082L899.466 150.963 892.97 150.963 891.857 123.298C891.823 122.315 891.754 121.43 891.65 120.645 891.547 119.86 891.383 119.218 891.158 118.717 890.934 118.217 890.654 117.851 890.317 117.618 889.981 117.385 889.554 117.234 889.036 117.165Z" fill="#E6CFD3" fill-rule="evenodd"/><text fill="#000000" fill-opacity="0" font-family="Arial,Arial_MSFontService,sans-serif" font-size="35.5059" x="889.036" y="146.524">𝑽𝑰</text><path d="M233.641 109.375 247.02 109.375 246.632 111.083C245.873 111.134 245.282 111.324 244.859 111.652 244.436 111.98 244.134 112.42 243.953 112.972 243.772 113.524 243.682 114.352 243.682 115.456L243.682 116.569C243.682 116.949 243.69 117.354 243.707 117.785L243.889 126.869C243.958 130.337 243.992 133.502 243.992 136.366L244.303 136.366 252.662 120.684C254.007 118.165 254.831 116.47 255.133 115.598 255.435 114.727 255.586 113.938 255.586 113.231 255.586 111.988 254.853 111.272 253.386 111.083L253.774 109.375 264.799 109.375 264.411 111.083C263.789 111.221 263.25 111.458 262.793 111.794 262.336 112.131 261.909 112.571 261.512 113.114 261.115 113.658 260.529 114.619 259.752 116L243.682 144.88 237.186 144.88 236.073 117.216C236.039 116.233 235.97 115.348 235.866 114.563 235.763 113.778 235.599 113.136 235.374 112.635 235.15 112.135 234.87 111.768 234.533 111.536 234.197 111.303 233.77 111.152 233.252 111.083Z" fill="#E6CFD3" fill-rule="evenodd"/><text fill="#000000" fill-opacity="0" font-family="Arial,Arial_MSFontService,sans-serif" font-size="35.5059" x="233.252" y="140.442">𝑽</text><path d="M6 363.5C6 351.626 15.402 342 27 342 38.598 342 48 351.626 48 363.5 48 375.374 38.598 385 27 385 15.402 385 6 375.374 6 363.5Z" fill="#330A12" fill-rule="evenodd"/><path d="M1232 363C1232 350.85 1241.4 341 1253 341 1264.6 341 1274 350.85 1274 363 1274 375.15 1264.6 385 1253 385 1241.4 385 1232 375.15 1232 363Z" fill="#330A12" fill-rule="evenodd"/><text fill="#E6CFD3" font-family="Arial,Arial_MSFontService,sans-serif" font-weight="700" font-size="64" transform="translate(730.421 374)">2<tspan font-size="64" x="51.1266" y="0">A</tspan><tspan font-size="64" x="173.344" y="-77">3</tspan><tspan font-size="64" x="224.47" y="-77">A</tspan><tspan font-size="64" x="156.802" y="193">1</tspan><tspan font-size="64" x="207.929" y="193">A</tspan></text></g></svg>