<svg width="1269" height="682" xmlns="http://www.w3.org/2000/svg" xmlns:xlink="http://www.w3.org/1999/xlink" overflow="hidden"><defs><clipPath id="clip0"><rect x="6" y="34" width="1269" height="682"/></clipPath></defs><g clip-path="url(#clip0)" transform="translate(-6 -34)"><path d="M259 375C259 189.432 415.7 39 609 39 802.3 39 959 189.432 959 375 959 560.568 802.3 711 609 711 415.7 711 259 560.568 259 375Z" stroke="#E6CFD3" stroke-width="8" stroke-miterlimit="8" fill="#BF8F99" fill-rule="evenodd"/><path d="M353 374C353 234.272 471.197 121 617 121 762.803 121 881 234.272 881 374 881 513.728 762.803 627 617 627 471.197 627 353 513.728 353 374Z" stroke="#E6CFD3" stroke-width="8" stroke-miterlimit="8" fill="#330A12" fill-rule="evenodd"/><path d="M479 375.5C479 299.009 540.785 237 617 237 693.215 237 755 299.009 755 375.5 755 451.991 693.215 514 617 514 540.785 514 479 451.991 479 375.5Z" stroke="#E6CFD3" stroke-width="8" stroke-miterlimit="8" fill="#BF8F99" fill-rule="evenodd"/><path d="M907.112 154.171 938.995 154.171 938.995 157.612 907.112 157.612Z" fill="#E6CFD3" fill-rule="evenodd"/><text fill="#000000" fill-opacity="0" font-family="Arial,Arial_MSFontService,sans-serif" font-size="3.44189" x="907.112" y="157.182">−</text><path d="M998.174 138.333C996.707 138.333 995.271 138.98 993.865 140.274 992.459 141.567 991.174 143.431 990.009 145.863 988.844 148.296 987.947 151.043 987.318 154.106 986.688 157.168 986.373 159.691 986.373 161.675 986.373 164.056 986.718 165.777 987.408 166.838 988.098 167.899 989.22 168.43 990.772 168.43 991.773 168.43 992.756 168.137 993.723 167.55 994.93 166.825 996.06 165.687 997.113 164.134 998.338 162.34 999.39 160.174 1000.27 157.638 1001.05 155.413 1001.69 152.713 1002.21 149.538 1002.49 147.882 1002.62 146.372 1002.62 145.009 1002.62 142.698 1002.28 141.007 1001.59 139.937 1000.9 138.867 999.761 138.333 998.174 138.333ZM998.433 135.305C1002.37 135.305 1005.35 136.331 1007.37 138.384 1009.4 140.437 1010.41 143.422 1010.41 147.338 1010.41 149.046 1010.22 150.94 1009.85 153.019 1009.47 155.098 1008.87 157.147 1008.07 159.165 1007.27 161.184 1006.26 162.995 1005.04 164.6 1003.83 166.204 1002.44 167.524 1000.88 168.559 999.317 169.594 997.604 170.353 995.741 170.837L995.845 170.811 996.414 172.338C996.794 173.373 997.147 174.158 997.475 174.692 997.803 175.227 998.178 175.628 998.601 175.896 999.023 176.163 999.563 176.297 1000.22 176.297 1000.87 176.297 1001.52 176.116 1002.16 175.754 1002.8 175.391 1003.51 174.805 1004.31 173.994L1006.3 175.986C1004.57 177.712 1003.01 178.971 1001.62 179.765 1000.22 180.558 998.709 180.955 997.087 180.955 995.224 180.955 993.654 180.429 992.377 179.377 991.1 178.324 990.1 176.677 989.375 174.434L988.366 171.354 988.417 171.354C985.208 171.009 982.767 169.823 981.094 167.796 979.42 165.769 978.583 162.926 978.583 159.269 978.583 157.906 978.721 156.344 978.997 154.585 979.274 152.825 979.739 150.966 980.395 149.008 981.051 147.049 981.956 145.199 983.112 143.457 984.268 141.714 985.627 140.226 987.188 138.993 988.75 137.759 990.488 136.836 992.403 136.223 994.318 135.611 996.328 135.305 998.433 135.305ZM958.824 135.305C961.36 135.305 963.431 135.646 965.035 136.327 966.64 137.008 967.8 137.932 968.516 139.096 969.232 140.261 969.59 141.619 969.59 143.172 969.59 144.535 969.335 145.803 968.826 146.976 968.317 148.149 967.438 149.486 966.187 150.987 964.936 152.488 962.827 154.636 959.859 157.431 958.945 158.294 957.854 159.428 956.586 160.834 955.318 162.24 954.313 163.444 953.571 164.444L953.571 164.703 962.758 164.703C963.879 164.703 964.716 164.621 965.268 164.457 965.82 164.293 966.256 164.009 966.575 163.603 966.894 163.198 967.157 162.59 967.364 161.779L970.34 161.779 969.745 171.044 946.04 171.044 946.04 169.336C947.368 166.282 950.086 162.348 954.192 157.535 956.055 155.344 957.474 153.541 958.449 152.126 959.424 150.711 960.153 149.374 960.636 148.115 961.119 146.855 961.36 145.553 961.36 144.207 961.36 142.309 960.938 140.821 960.092 139.743 959.247 138.665 958.091 138.126 956.624 138.126 953.812 138.126 952.009 140.153 951.216 144.207L946.558 144.207 946.558 138.1C949.37 136.961 951.638 136.211 953.364 135.848 955.089 135.486 956.909 135.305 958.824 135.305Z" fill="#E6CFD3" fill-rule="evenodd"/><text fill="#000000" fill-opacity="0" font-family="Arial,Arial_MSFontService,sans-serif" font-size="45.6504" x="946.04" y="175.249">𝟐𝑸</text><path d="M795.688 254.68C794.222 254.68 792.785 255.327 791.379 256.621 789.973 257.915 788.688 259.778 787.523 262.211 786.359 264.644 785.462 267.391 784.832 270.453 784.202 273.516 783.887 276.039 783.887 278.023 783.887 280.404 784.232 282.125 784.922 283.186 785.613 284.247 786.734 284.777 788.287 284.777 789.287 284.777 790.271 284.484 791.237 283.898 792.445 283.173 793.575 282.034 794.627 280.482 795.852 278.687 796.904 276.522 797.784 273.986 798.561 271.76 799.208 269.06 799.725 265.886 800.001 264.23 800.139 262.72 800.139 261.357 800.139 259.045 799.794 257.354 799.104 256.285 798.414 255.215 797.275 254.68 795.688 254.68ZM795.947 251.652C799.88 251.652 802.861 252.679 804.888 254.732 806.915 256.785 807.929 259.77 807.929 263.686 807.929 265.394 807.739 267.288 807.359 269.367 806.98 271.445 806.389 273.494 805.587 275.513 804.784 277.531 803.775 279.343 802.559 280.947 801.343 282.552 799.954 283.872 798.392 284.907 796.831 285.942 795.119 286.701 793.255 287.184L793.359 287.158 793.928 288.685C794.308 289.72 794.661 290.505 794.989 291.04 795.317 291.575 795.692 291.976 796.115 292.243 796.538 292.511 797.077 292.645 797.732 292.645 798.388 292.645 799.035 292.463 799.673 292.101 800.312 291.739 801.028 291.152 801.821 290.341L803.814 292.334C802.089 294.059 800.527 295.319 799.13 296.112 797.732 296.906 796.223 297.303 794.601 297.303 792.738 297.303 791.168 296.777 789.891 295.724 788.615 294.672 787.614 293.024 786.889 290.781L785.88 287.702 785.932 287.702C782.723 287.357 780.281 286.171 778.608 284.143 776.934 282.116 776.098 279.274 776.098 275.616 776.098 274.253 776.236 272.692 776.512 270.932 776.788 269.172 777.254 267.313 777.909 265.355 778.565 263.397 779.471 261.547 780.627 259.804 781.782 258.062 783.141 256.574 784.702 255.34 786.264 254.107 788.002 253.184 789.917 252.571 791.832 251.959 793.842 251.652 795.947 251.652ZM756.416 251.652C759.677 251.652 762.282 252.317 764.232 253.645 766.181 254.974 767.156 256.828 767.156 259.209 767.156 261.21 766.582 262.936 765.435 264.385 764.288 265.834 762.368 267.18 759.677 268.422L759.677 268.655C762.196 269.121 764.184 270.13 765.642 271.683 767.1 273.235 767.829 275.159 767.829 277.454 767.829 279.455 767.341 281.236 766.367 282.798 765.392 284.359 763.912 285.584 761.928 286.472 759.944 287.361 757.537 287.805 754.708 287.805 752.759 287.805 750.844 287.628 748.963 287.275 747.082 286.921 745.443 286.425 744.046 285.787L744.046 279.291 748.704 279.291C749.204 281.258 749.912 282.686 750.826 283.574 751.741 284.463 752.94 284.907 754.423 284.907 758.081 284.907 759.91 282.647 759.91 278.127 759.91 275.694 759.267 273.882 757.982 272.692 756.696 271.502 754.743 270.906 752.12 270.906L750.076 270.906 750.076 267.956C753.078 267.835 755.355 267.132 756.908 265.847 758.461 264.562 759.237 262.703 759.237 260.27 759.237 258.355 758.849 256.91 758.072 255.935 757.296 254.961 756.166 254.473 754.682 254.473 753.233 254.473 752.043 254.991 751.111 256.026 750.179 257.061 749.541 258.579 749.196 260.581L744.538 260.581 744.538 254.447C748.903 252.584 752.862 251.652 756.416 251.652Z" fill="#E6CFD3" fill-rule="evenodd"/><text fill="#000000" fill-opacity="0" font-family="Arial,Arial_MSFontService,sans-serif" font-size="45.6504" x="744.046" y="291.596">𝟑𝑸</text><path d="M613.718 426.376C612.114 426.376 610.69 427.183 609.448 428.796 608.206 430.409 607.205 432.578 606.446 435.304 605.687 438.03 605.308 440.471 605.308 442.628 605.308 443.887 605.493 444.828 605.864 445.449 606.235 446.07 606.809 446.38 607.585 446.38 608.724 446.38 609.884 445.824 611.066 444.711 612.247 443.598 613.201 442.292 613.925 440.791 614.65 439.29 615.297 437.236 615.866 434.631L616.073 433.674C616.349 432.397 616.487 431.12 616.487 429.844 616.487 428.705 616.272 427.842 615.84 427.256 615.409 426.669 614.702 426.376 613.718 426.376ZM613.408 423.685C615.978 423.685 618.169 424.306 619.981 425.548L622.491 423.685 625.39 424.099 621.197 441.696C620.938 442.783 620.809 443.767 620.809 444.646 620.809 445.216 620.904 445.656 621.094 445.966 621.283 446.277 621.611 446.432 622.077 446.432 622.612 446.432 623.19 446.191 623.811 445.708 624.432 445.224 625.157 444.508 625.985 443.56L627.848 445.423C626.037 447.234 624.475 448.481 623.164 449.162 621.853 449.844 620.473 450.185 619.023 450.185 617.574 450.185 616.427 449.783 615.581 448.981 614.736 448.179 614.313 447.122 614.313 445.811 614.313 445.38 614.365 444.966 614.469 444.569L614.106 444.517C612.847 446.001 611.764 447.118 610.859 447.868 609.953 448.619 608.991 449.193 607.973 449.589 606.955 449.986 605.825 450.185 604.583 450.185 602.513 450.185 600.943 449.482 599.873 448.075 598.803 446.669 598.268 444.621 598.268 441.929 598.268 439.6 598.605 437.288 599.278 434.994 599.951 432.699 600.917 430.719 602.176 429.054 603.436 427.39 605.019 426.078 606.925 425.121 608.831 424.163 610.992 423.685 613.408 423.685Z" fill="#E6CFD3" fill-rule="evenodd"/><text fill="#000000" fill-opacity="0" font-family="Arial,Arial_MSFontService,sans-serif" font-size="26.5" x="598.268" y="446.872">𝒂</text><path d="M515.217 521.28C514.079 521.28 512.918 521.836 511.737 522.949 510.555 524.062 509.61 525.351 508.903 526.818 508.195 528.284 507.549 530.354 506.962 533.029L506.755 533.986C506.479 535.263 506.341 536.514 506.341 537.739 506.341 538.998 506.552 539.904 506.975 540.456 507.398 541.008 508.109 541.284 509.11 541.284 509.973 541.284 510.758 541.09 511.465 540.702 512.172 540.314 512.841 539.68 513.47 538.8 514.1 537.92 514.713 536.785 515.308 535.397 515.903 534.008 516.416 532.347 516.848 530.415 517.279 528.483 517.495 526.688 517.495 525.032 517.495 523.755 517.309 522.811 516.938 522.198 516.567 521.586 515.994 521.28 515.217 521.28ZM509.99 506.503 513.018 506.503 509.058 522.341 509.395 522.444C510.896 520.684 512.306 519.416 513.626 518.64 514.946 517.864 516.52 517.475 518.349 517.475 520.315 517.475 521.838 518.183 522.916 519.597 523.995 521.012 524.534 523.057 524.534 525.731 524.534 527.249 524.353 528.918 523.99 530.738 523.628 532.558 523.119 534.172 522.463 535.578 521.808 536.984 521.023 538.213 520.108 539.265 519.194 540.318 518.172 541.189 517.042 541.879 515.912 542.569 514.691 543.091 513.38 543.445 512.069 543.799 510.663 543.975 509.162 543.975 508.023 543.975 506.936 543.837 505.901 543.561 504.866 543.285 503.796 542.802 502.692 542.112L500.285 543.975 497.464 543.561 504.012 514.318C504.374 512.696 504.555 511.463 504.555 510.617 504.555 510.083 504.473 509.694 504.309 509.453 504.145 509.211 503.925 509.039 503.649 508.935 503.373 508.832 502.813 508.72 501.967 508.599L502.381 506.917Z" fill="#E6CFD3" fill-rule="evenodd"/><text fill="#000000" fill-opacity="0" font-family="Arial,Arial_MSFontService,sans-serif" font-size="37.4727" x="497.464" y="539.291">𝒃</text><path d="M425.527 423.684C426.683 423.684 427.934 423.775 429.28 423.956 430.625 424.137 431.816 424.392 432.851 424.72L431.402 431.034 426.743 431.034C426.778 430.672 426.795 430.301 426.795 429.921 426.795 428.679 426.605 427.778 426.226 427.217 425.846 426.656 425.286 426.376 424.544 426.376 423.267 426.376 422.051 427.109 420.895 428.576 419.739 430.042 418.773 432.078 417.996 434.683 417.22 437.288 416.832 439.574 416.832 441.541 416.832 444.784 418.014 446.406 420.377 446.406 421.568 446.406 422.693 446.139 423.754 445.604 424.815 445.069 426.019 444.172 427.365 442.912L429.461 445.164C427.649 446.975 425.838 448.265 424.026 449.033 422.215 449.801 420.222 450.184 418.048 450.184 415.408 450.184 413.36 449.361 411.902 447.713 410.444 446.065 409.715 443.775 409.715 440.842 409.715 438.099 410.332 435.304 411.565 432.457 412.799 429.611 414.623 427.437 417.039 425.936 419.454 424.435 422.284 423.684 425.527 423.684Z" fill="#E6CFD3" fill-rule="evenodd"/><text fill="#000000" fill-opacity="0" font-family="Arial,Arial_MSFontService,sans-serif" font-size="26.5" x="409.715" y="446.872">𝒄</text><path d="M3.54485-1.85311 56.1924 98.8575 49.1027 102.564-3.54485 1.85311ZM61.429 91.6064 61.9131 118.435 40.1599 102.725Z" fill="#E6CFD3" transform="matrix(-1 0 0 1 616.913 375)"/><path d="M2.76092-2.89437 174.719 161.136 169.198 166.924-2.76092 2.89437ZM177.347 152.586 186.43 177.835 160.781 169.952Z" fill="#E6CFD3" transform="matrix(-1 0 0 1 617.43 375)"/><path d="M1.84072-3.5513 300.338 151.166 296.657 158.269-1.84072 3.5513ZM300.468 142.223 316.254 163.921 289.424 163.531Z" fill="#E6CFD3" transform="matrix(-1 0 0 1 620.254 371)"/><path d="M571.28 284.902 584.297 284.902 583.935 286.611C582.952 286.887 582.227 287.37 581.761 288.06 581.295 288.75 580.855 290.027 580.441 291.89L575.731 313.24C575.611 313.792 575.524 314.271 575.473 314.676 575.421 315.082 575.395 315.612 575.395 316.268 575.395 316.992 575.563 317.523 575.9 317.859 576.236 318.196 576.784 318.416 577.543 318.519L577.181 320.227 564.163 320.227 564.526 318.519C565.509 318.243 566.234 317.76 566.7 317.07 567.165 316.38 567.605 315.103 568.019 313.24L572.729 291.89C572.954 290.872 573.066 289.863 573.066 288.862 573.066 288.137 572.898 287.607 572.561 287.27 572.225 286.934 571.677 286.714 570.918 286.611Z" fill="#E6CFD3" fill-rule="evenodd"/><text fill="#000000" fill-opacity="0" font-family="Arial,Arial_MSFontService,sans-serif" font-size="35.3247" x="564.163" y="315.812">𝑰</text><path d="M519.687 190.363 532.704 190.363 532.342 192.071C531.358 192.347 530.634 192.83 530.168 193.52 529.702 194.21 529.262 195.487 528.848 197.35L524.138 218.7C524.017 219.252 523.931 219.731 523.879 220.137 523.828 220.542 523.802 221.073 523.802 221.728 523.802 222.453 523.97 222.983 524.306 223.32 524.643 223.656 525.19 223.876 525.95 223.98L525.587 225.688 512.57 225.688 512.932 223.98C513.916 223.704 514.641 223.221 515.106 222.53 515.572 221.84 516.012 220.564 516.426 218.7L521.136 197.35C521.36 196.332 521.473 195.323 521.473 194.322 521.473 193.598 521.304 193.067 520.968 192.731 520.631 192.394 520.084 192.174 519.325 192.071ZM496.687 190.363 509.704 190.363 509.342 192.071C508.358 192.347 507.634 192.83 507.168 193.52 506.702 194.21 506.262 195.487 505.848 197.35L501.138 218.7C501.017 219.252 500.931 219.731 500.879 220.137 500.827 220.542 500.802 221.073 500.802 221.728 500.802 222.453 500.97 222.983 501.306 223.32 501.643 223.656 502.19 223.876 502.95 223.98L502.587 225.688 489.57 225.688 489.932 223.98C490.916 223.704 491.64 223.221 492.106 222.53 492.572 221.84 493.012 220.564 493.426 218.7L498.136 197.35C498.36 196.332 498.473 195.323 498.473 194.322 498.473 193.598 498.304 193.067 497.968 192.731 497.631 192.394 497.084 192.174 496.325 192.071Z" fill="#E6CFD3" fill-rule="evenodd"/><text fill="#000000" fill-opacity="0" font-family="Arial,Arial_MSFontService,sans-serif" font-size="35.3247" x="489.57" y="221.272">𝑰𝑰</text><path d="M467.546 113.592 480.563 113.592 480.201 115.3C479.217 115.576 478.493 116.059 478.027 116.749 477.561 117.439 477.121 118.716 476.707 120.579L471.997 141.929C471.876 142.481 471.79 142.96 471.738 143.366 471.687 143.771 471.661 144.301 471.661 144.957 471.661 145.682 471.829 146.212 472.165 146.549 472.502 146.885 473.05 147.105 473.809 147.209L473.446 148.917 460.429 148.917 460.792 147.209C461.775 146.932 462.5 146.449 462.965 145.759 463.431 145.069 463.871 143.793 464.285 141.929L468.995 120.579C469.22 119.561 469.332 118.552 469.332 117.551 469.332 116.827 469.163 116.296 468.827 115.96 468.491 115.623 467.943 115.403 467.184 115.3ZM444.546 113.592 457.563 113.592 457.201 115.3C456.217 115.576 455.493 116.059 455.027 116.749 454.561 117.439 454.121 118.716 453.707 120.579L448.997 141.929C448.876 142.481 448.79 142.96 448.738 143.366 448.687 143.771 448.661 144.301 448.661 144.957 448.661 145.682 448.829 146.212 449.165 146.549 449.502 146.885 450.05 147.105 450.809 147.209L450.446 148.917 437.429 148.917 437.792 147.209C438.775 146.932 439.5 146.449 439.965 145.759 440.431 145.069 440.871 143.793 441.285 141.929L445.995 120.579C446.22 119.561 446.332 118.552 446.332 117.551 446.332 116.827 446.163 116.296 445.827 115.96 445.491 115.623 444.943 115.403 444.184 115.3ZM421.546 113.592 434.563 113.592 434.201 115.3C433.217 115.576 432.493 116.059 432.027 116.749 431.561 117.439 431.121 118.716 430.707 120.579L425.997 141.929C425.876 142.481 425.79 142.96 425.738 143.366 425.687 143.771 425.661 144.301 425.661 144.957 425.661 145.682 425.829 146.212 426.165 146.549 426.502 146.885 427.05 147.105 427.809 147.209L427.446 148.917 414.429 148.917 414.792 147.209C415.775 146.932 416.5 146.449 416.965 145.759 417.431 145.069 417.871 143.793 418.285 141.929L422.995 120.579C423.22 119.561 423.332 118.552 423.332 117.551 423.332 116.827 423.163 116.296 422.827 115.96 422.491 115.623 421.943 115.403 421.184 115.3Z" fill="#E6CFD3" fill-rule="evenodd"/><text fill="#000000" fill-opacity="0" font-family="Arial,Arial_MSFontService,sans-serif" font-size="35.3247" x="414.429" y="144.501">𝑰𝑰𝑰</text><path d="M368.286 49.2595 381.665 49.2595 381.277 50.9676C380.518 51.0193 379.927 51.2091 379.504 51.5369 379.081 51.8647 378.779 52.3046 378.598 52.8567 378.417 53.4088 378.327 54.2369 378.327 55.3411L378.327 56.4539C378.327 56.8334 378.335 57.2389 378.352 57.6702L378.534 66.7537C378.603 70.2215 378.637 73.3873 378.637 76.2512L378.948 76.2512 387.307 60.5686C388.652 58.0497 389.476 56.3547 389.778 55.4834 390.08 54.6122 390.231 53.8229 390.231 53.1155 390.231 51.8733 389.498 51.1573 388.031 50.9676L388.419 49.2595 399.444 49.2595 399.056 50.9676C398.434 51.1056 397.895 51.3428 397.438 51.6792 396.981 52.0156 396.554 52.4556 396.157 52.999 395.76 53.5425 395.174 54.5043 394.397 55.8845L378.327 84.7654 371.831 84.7654 370.718 57.1009C370.684 56.1175 370.615 55.2333 370.511 54.4483 370.408 53.6633 370.244 53.0206 370.019 52.5203 369.795 52.02 369.515 51.6533 369.178 51.4204 368.842 51.1875 368.415 51.0366 367.897 50.9676ZM351.031 49.2595 364.048 49.2595 363.685 50.9676C362.702 51.2436 361.977 51.7267 361.512 52.4168 361.046 53.1069 360.606 54.3836 360.192 56.2468L355.482 77.5969C355.361 78.149 355.275 78.6278 355.223 79.0332 355.171 79.4387 355.145 79.9692 355.145 80.6248 355.145 81.3494 355.314 81.8799 355.65 82.2163 355.986 82.5528 356.534 82.7727 357.293 82.8762L356.931 84.5843 343.914 84.5843 344.276 82.8762C345.26 82.6002 345.984 82.1171 346.45 81.427 346.916 80.7369 347.356 79.4602 347.77 77.5969L352.48 56.2468C352.704 55.2289 352.816 54.2197 352.816 53.219 352.816 52.4944 352.648 51.9639 352.312 51.6275 351.975 51.291 351.427 51.0711 350.668 50.9676Z" fill="#E6CFD3" fill-rule="evenodd"/><text fill="#000000" fill-opacity="0" font-family="Arial,Arial_MSFontService,sans-serif" font-size="35.5059" x="343.914" y="80.3272">𝑰𝑽</text><path d="M6 363.5C6 351.626 15.402 342 27 342 38.598 342 48 351.626 48 363.5 48 375.374 38.598 385 27 385 15.402 385 6 375.374 6 363.5Z" fill="#330A12" fill-rule="evenodd"/><path d="M1232 363C1232 350.85 1241.4 341 1253 341 1264.6 341 1274 350.85 1274 363 1274 375.15 1264.6 385 1253 385 1241.4 385 1232 375.15 1232 363Z" fill="#330A12" fill-rule="evenodd"/></g></svg>