<svg width="1249" height="576" xmlns="http://www.w3.org/2000/svg" xmlns:xlink="http://www.w3.org/1999/xlink" overflow="hidden"><defs><clipPath id="clip0"><rect x="16" y="87" width="1249" height="576"/></clipPath></defs><g clip-path="url(#clip0)" transform="translate(-16 -87)"><path d="M17.7473 10.0542 41.9559 30.9813 36.7242 37.0335 12.5155 16.1064ZM60.1124 46.6766 84.321 67.6037 79.0893 73.6558 54.8806 52.7288ZM102.477 83.299 126.686 104.226 121.454 110.278 97.2457 89.3511ZM144.843 119.921 169.051 140.848 163.819 146.901 139.611 125.973ZM187.208 156.544 211.416 177.471 206.185 183.523 181.976 162.596ZM229.573 193.166 253.781 214.093 248.55 220.145 224.341 199.218ZM271.938 229.788 296.147 250.715 290.915 256.768 266.706 235.841ZM314.303 266.411 338.512 287.338 333.28 293.39 309.071 272.463ZM356.668 303.033 380.877 323.96 375.645 330.012 351.436 309.085ZM399.033 339.655 423.242 360.583 418.01 366.635 393.801 345.708ZM441.398 376.278 465.607 397.205 460.375 403.257 436.167 382.33ZM483.763 412.9 507.972 433.827 502.74 439.88 478.532 418.952ZM526.129 449.523 530.748 453.516 525.516 459.568 520.897 455.575ZM10.3088 24.7735 0 0 26.0041 6.61709Z" fill="#E6CFD3" transform="matrix(1 0 0 -1 372 601.542)"/><path d="M534.602 371.939 637.031 283.638 720.753 380.754 618.324 469.056Z" stroke="#E6CFD3" stroke-width="8" stroke-miterlimit="8" fill="none" fill-rule="evenodd"/><path d="M37.2939 127.728C38.7259 127.728 39.8688 128.129 40.7228 128.931 41.5768 129.734 42.0038 130.79 42.0038 132.102 42.0038 132.533 41.9521 132.947 41.8486 133.344L42.1591 133.499C43.7291 131.515 45.2516 130.057 46.7267 129.125 48.2018 128.194 49.9142 127.728 51.8637 127.728 53.589 127.728 54.9476 128.202 55.9396 129.151 56.9317 130.1 57.4536 131.411 57.5053 133.085 58.9373 131.256 60.3822 129.906 61.84 129.035 63.2979 128.164 64.9498 127.728 66.7958 127.728 68.5384 127.728 69.9056 128.22 70.8976 129.203 71.8897 130.187 72.3857 131.558 72.3857 133.318 72.3857 133.835 72.3426 134.465 72.2563 135.207 72.17 135.949 72.0406 136.656 71.8681 137.329L69.7719 145.662C69.5821 146.387 69.4614 146.947 69.4096 147.344 69.3578 147.741 69.332 148.19 69.332 148.69 69.332 149.363 69.4441 149.829 69.6684 150.087 69.8927 150.346 70.2119 150.476 70.6259 150.476 71.1262 150.476 71.687 150.238 72.308 149.764 72.9291 149.289 73.6624 148.569 74.5078 147.603L76.371 149.466C74.6803 151.192 73.1664 152.417 71.8293 153.141 70.4922 153.866 69.0214 154.228 67.4169 154.228 65.6399 154.228 64.3201 153.788 63.4575 152.908 62.5948 152.028 62.1635 150.683 62.1635 148.871 62.1635 148.302 62.2239 147.607 62.3447 146.788 62.4654 145.968 62.638 145.119 62.8622 144.239L64.0527 139.736C64.3287 138.718 64.5746 137.644 64.7902 136.514 65.0059 135.384 65.1137 134.508 65.1137 133.887 65.1137 132.3 64.4926 131.506 63.2504 131.506 62.5086 131.506 61.6028 131.981 60.5331 132.93 59.4635 133.879 58.5793 134.918 57.8806 136.048 57.1818 137.178 56.6427 138.675 56.2631 140.538L53.4164 153.814 45.9633 153.814 49.7416 137.355C49.9314 136.561 50.0608 135.91 50.1298 135.401 50.1988 134.892 50.2333 134.448 50.2333 134.068 50.2333 133.171 50.0781 132.52 49.7675 132.115 49.457 131.709 48.9653 131.506 48.2924 131.506 47.4988 131.506 46.5628 131.998 45.4846 132.981 44.4063 133.965 43.535 135 42.8708 136.087 42.2066 137.174 41.676 138.658 41.2792 140.538L38.3808 153.814 30.9536 153.814 35.1201 135.828C35.3788 134.707 35.5082 133.853 35.5082 133.266 35.5082 132.697 35.4134 132.257 35.2236 131.946 35.0338 131.636 34.706 131.48 34.2402 131.48 33.7053 131.48 33.1274 131.722 32.5063 132.205 31.8852 132.688 31.1606 133.404 30.3325 134.353L28.4692 132.49C30.1944 130.73 31.7256 129.496 33.0627 128.789 34.3998 128.082 35.8102 127.728 37.2939 127.728Z" fill="#E6CFD3" fill-rule="evenodd"/><text fill="#000000" fill-opacity="0" font-family="Arial,Arial_MSFontService,sans-serif" font-size="26.5" x="28.4692" y="150.916">𝒎</text><path d="M90.4116 138.402 92.8491 138.402C92.7729 139.621 92.7348 141.31 92.7348 143.468L92.7348 159.388C92.7348 160.124 92.7761 160.679 92.8586 161.054 92.9411 161.428 93.0871 161.733 93.2966 161.968 93.506 162.203 93.8076 162.387 94.2011 162.52 94.5947 162.654 95.0898 162.755 95.6865 162.825 96.2831 162.895 97.0703 162.942 98.0478 162.968L98.0478 164.701 81.6137 164.701 81.6137 162.968C83.0229 162.904 84.029 162.819 84.632 162.711 85.235 162.603 85.6953 162.441 86.0126 162.225 86.33 162.009 86.5617 161.705 86.7077 161.311 86.8537 160.917 86.9267 160.276 86.9267 159.388L86.9267 145.62C86.9267 145.099 86.8283 144.725 86.6315 144.496 86.4348 144.268 86.165 144.153 85.8222 144.153 85.5048 144.153 85.0573 144.299 84.4797 144.591 83.902 144.883 82.9531 145.48 81.6328 146.381L80.4711 144.363Z" fill="#E6CFD3" fill-rule="evenodd"/><text fill="#000000" fill-opacity="0" font-family="Arial,Arial_MSFontService,sans-serif" font-size="26.2983" x="80.4711" y="161.413">𝟏</text><text fill="#E6CFD3" font-family="Calibri,Calibri_MSFontService,sans-serif" font-weight="700" font-size="53" transform="translate(102.895 154)">:</text><path d="M625.473 192.767 632.848 192.767 629.613 206.768C629.337 207.958 629.1 209.062 628.902 210.08 628.703 211.098 628.604 211.943 628.604 212.616 628.604 213.375 628.751 213.953 629.044 214.35 629.337 214.747 629.829 214.945 630.519 214.945 631.434 214.945 632.378 214.514 633.353 213.651 634.328 212.789 635.173 211.792 635.889 210.662 636.605 209.532 637.118 208.243 637.429 206.793L640.534 192.767 648.013 192.767 643.821 210.365C643.562 211.452 643.433 212.435 643.433 213.315 643.433 213.884 643.528 214.324 643.717 214.635 643.907 214.945 644.235 215.101 644.701 215.101 645.184 215.101 645.719 214.885 646.305 214.454 646.892 214.022 647.582 213.367 648.376 212.487L650.239 214.35C648.634 215.955 647.168 217.106 645.84 217.805 644.511 218.504 643.157 218.853 641.777 218.853 640.276 218.853 639.094 218.456 638.231 217.663 637.369 216.869 636.937 215.808 636.937 214.479 636.937 213.927 636.989 213.513 637.092 213.237L636.73 213.186C635.246 214.997 633.862 216.343 632.577 217.223 631.291 218.103 630.028 218.542 628.785 218.542 627.474 218.542 626.37 218.163 625.473 217.404L625.266 217.481C625.076 219.448 624.981 221.432 624.981 223.434 624.981 224.469 625.007 225.392 625.059 226.203L624.541 228.816 618.874 228.816 617.554 227.057C617.83 226.194 618.201 224.866 618.667 223.071 619.133 221.277 619.512 219.698 619.805 218.335Z" fill="#E6CFD3" fill-rule="evenodd"/><text fill="#000000" fill-opacity="0" font-family="Arial,Arial_MSFontService,sans-serif" font-size="36.0493" x="617.554" y="224.31">𝝁</text><path d="M662.063 202.056 664.215 202.056 660.673 218.09 661.054 218.09C661.511 218.09 661.942 218.008 662.349 217.843 662.844 217.64 663.453 217.278 664.177 216.757 665.154 216.034 665.846 215.469 666.253 215.062 666.659 214.656 666.941 214.272 667.1 213.91 667.259 213.549 667.338 213.177 667.338 212.796 667.338 212.504 667.259 212.257 667.1 212.054 666.941 211.851 666.659 211.73 666.253 211.692L666.557 210.435 673.336 210.435 673.813 211.673C673.025 212.536 671.965 213.476 670.632 214.491L666.348 217.709 668.309 224.66C668.538 225.485 668.75 226.044 668.947 226.336 669.144 226.628 669.42 226.774 669.775 226.774 670.106 226.774 670.48 226.606 670.899 226.269 671.318 225.933 671.813 225.428 672.384 224.755L673.755 226.126C672.575 227.396 671.508 228.297 670.556 228.831 669.604 229.364 668.627 229.63 667.624 229.63 666.367 229.63 665.389 229.332 664.691 228.735 663.993 228.139 663.485 227.117 663.168 225.669L662.158 221.099C662.095 220.794 662.012 220.553 661.911 220.375 661.809 220.198 661.676 220.071 661.511 219.995 661.346 219.918 661.098 219.88 660.768 219.88L660.292 219.88 658.216 229.326 652.751 229.326 657.569 207.807C657.848 206.563 657.988 205.655 657.988 205.084 657.988 204.805 657.959 204.586 657.902 204.427 657.845 204.268 657.759 204.138 657.645 204.037 657.531 203.935 657.378 203.856 657.188 203.799 656.998 203.741 656.623 203.675 656.065 203.599L656.369 202.361Z" fill="#E6CFD3" fill-rule="evenodd"/><text fill="#000000" fill-opacity="0" font-family="Arial,Arial_MSFontService,sans-serif" font-size="27.5742" x="652.751" y="226.184">𝒌</text><path d="M685.586 183.114 695.42 183.114 700.414 197.762C701.777 201.747 702.856 205.267 703.649 208.32L703.986 208.32C704.486 205.336 705.142 202.032 705.952 198.409L707.764 190.102C707.988 189.066 708.1 188.057 708.1 187.074 708.1 186.349 707.932 185.819 707.596 185.482 707.259 185.146 706.712 184.926 705.952 184.822L706.315 183.114 715.838 183.114 715.476 184.822C714.492 185.098 713.768 185.581 713.302 186.271 712.836 186.962 712.396 188.238 711.982 190.102L705.745 218.439 699.845 218.439 693.634 200.35C693.151 198.935 692.72 197.611 692.34 196.377 691.961 195.144 691.503 193.578 690.969 191.68L690.58 191.654C690.27 194.139 689.545 197.926 688.407 203.015L686.543 211.452C686.422 212.004 686.336 212.482 686.284 212.888 686.233 213.293 686.207 213.824 686.207 214.479 686.207 215.204 686.375 215.735 686.711 216.071 687.048 216.407 687.596 216.627 688.355 216.731L687.992 218.439 678.469 218.439 678.831 216.731C679.815 216.455 680.539 215.972 681.005 215.282 681.471 214.592 681.911 213.315 682.325 211.452L687.035 190.102C687.259 189.084 687.371 188.074 687.371 187.074 687.371 186.349 687.203 185.819 686.867 185.482 686.53 185.146 685.983 184.926 685.223 184.822Z" fill="#E6CFD3" fill-rule="evenodd"/><text fill="#000000" fill-opacity="0" font-family="Arial,Arial_MSFontService,sans-serif" font-size="35.3247" x="678.469" y="214.023">𝑵</text><path d="M29.9115 16.1512 203.782 160.386 195.27 170.648 21.3987 26.4132ZM18.0168 40.9316 0 0 43.5553 10.1455Z" fill="#E6CFD3" transform="matrix(-1 0 0 1 828.026 213.5)"/><path d="M432.863 130.82 453.324 155.424 447.173 160.539 426.712 135.935ZM468.669 173.877 489.13 198.481 482.979 203.596 462.518 178.992ZM504.476 216.934 524.936 241.538 518.785 246.653 498.325 222.049ZM540.282 259.991 560.742 284.595 554.591 289.71 534.131 265.106ZM576.088 303.048 596.549 327.652 590.398 332.768 569.937 308.164ZM611.894 346.105 632.355 370.71 626.204 375.825 605.743 351.221ZM647.7 389.163 668.161 413.767 662.01 418.882 641.549 394.278ZM683.507 432.22 703.967 456.824 697.816 461.939 677.356 437.335ZM719.313 475.277 739.773 499.881 733.622 504.996 713.162 480.392ZM755.119 518.334 775.58 542.938 769.429 548.053 748.968 523.449ZM790.925 561.391 811.386 585.995 805.235 591.11 784.774 566.506ZM826.731 604.448 830.315 608.758 824.164 613.873 820.58 609.563ZM423.119 144.126 417 118 441.572 128.78Z" fill="#E6CFD3"/><path d="M305.411 555.235 309.086 555.235 309.086 570.141 323.19 570.141 323.19 573.583 309.086 573.583 309.086 588.489 305.411 588.489 305.411 573.583 291.307 573.583 291.307 570.141 305.411 570.141Z" fill="#E6CFD3" fill-rule="evenodd"/><text fill="#000000" fill-opacity="0" font-family="Arial,Arial_MSFontService,sans-serif" font-size="33.2544" x="291.307" y="584.332">+</text><path d="M339.214 560.928C340.595 560.928 341.647 561.135 342.372 561.549 343.096 561.963 343.691 562.683 344.157 563.71 344.623 564.736 345.063 566.38 345.477 568.64L345.736 568.64C347.013 566.846 348.005 565.496 348.712 564.59 349.419 563.684 350.075 562.959 350.679 562.416 351.283 561.872 351.869 561.489 352.438 561.264 353.008 561.04 353.681 560.928 354.457 560.928 355.32 560.928 356.191 561.083 357.071 561.394L355.854 566.984 353.525 566.984C353.439 566.259 353.12 565.897 352.568 565.897 352.326 565.897 352.072 565.957 351.804 566.078 351.537 566.199 351.183 566.47 350.743 566.893 350.303 567.316 349.756 567.928 349.1 568.73 348.444 569.533 347.461 570.753 346.15 572.392 346.754 576.033 347.25 578.642 347.638 580.221 348.026 581.799 348.427 582.821 348.841 583.287 349.083 583.546 349.376 583.675 349.721 583.675 350.152 583.675 350.554 583.507 350.925 583.171 351.295 582.834 351.774 582.08 352.361 580.906L354.716 581.993C353.715 583.822 352.581 585.185 351.313 586.082 350.045 586.979 348.557 587.428 346.849 587.428 345.796 587.428 344.955 587.294 344.325 587.027 343.696 586.759 343.161 586.315 342.721 585.694 342.281 585.073 341.893 584.197 341.556 583.067 341.22 581.937 340.905 580.458 340.612 578.629L340.353 578.629C338.887 580.734 337.713 582.338 336.833 583.443 335.954 584.547 335.199 585.375 334.569 585.927 333.939 586.479 333.336 586.867 332.758 587.091 332.18 587.316 331.485 587.428 330.674 587.428 330.295 587.428 329.833 587.38 329.29 587.286 328.746 587.191 328.337 587.091 328.061 586.988L329.277 581.372 331.606 581.372C331.623 581.735 331.714 582.006 331.878 582.187 332.042 582.369 332.253 582.459 332.512 582.459 332.822 582.459 333.111 582.394 333.379 582.265 333.646 582.136 334.017 581.847 334.491 581.398 334.966 580.95 335.565 580.29 336.29 579.418 337.015 578.547 338.24 577.016 339.965 574.825 339.603 572.789 339.262 571.034 338.943 569.559 338.623 568.083 338.334 567.014 338.076 566.35 337.817 565.685 337.571 565.241 337.338 565.017 337.105 564.792 336.842 564.68 336.549 564.68 336.204 564.68 335.902 564.771 335.643 564.952 335.384 565.133 335.113 565.427 334.828 565.832 334.543 566.237 334.237 566.777 333.909 567.449L331.554 566.362C332.555 564.534 333.681 563.171 334.931 562.274 336.182 561.376 337.61 560.928 339.214 560.928Z" fill="#E6CFD3" fill-rule="evenodd"/><text fill="#000000" fill-opacity="0" font-family="Arial,Arial_MSFontService,sans-serif" font-size="26.5" x="328.061" y="584.115">𝒙</text><path d="M341.946 117.451 345.621 117.451 345.621 132.357 359.725 132.357 359.725 135.799 345.621 135.799 345.621 150.705 341.946 150.705 341.946 135.799 327.842 135.799 327.842 132.357 341.946 132.357Z" fill="#E6CFD3" fill-rule="evenodd"/><text fill="#000000" fill-opacity="0" font-family="Arial,Arial_MSFontService,sans-serif" font-size="33.2544" x="327.842" y="146.548">+</text><path d="M373.731 123.144C375.06 123.144 376.134 123.338 376.953 123.726 377.773 124.115 378.424 124.649 378.907 125.331 379.39 126.012 379.778 126.879 380.072 127.932 380.313 128.76 380.598 130.218 380.926 132.305 381.46 135.704 381.918 139.042 382.297 142.32 384.212 139.577 385.683 136.903 386.709 134.298 387.736 131.693 388.249 129.364 388.249 127.311 388.249 126.655 388.094 126.159 387.783 125.823 387.473 125.486 386.929 125.301 386.153 125.266L386.515 123.558 393.813 123.558 394.719 125.266C394.374 126.457 393.839 127.897 393.115 129.588 392.045 132.072 390.604 134.859 388.793 137.947 387.154 140.725 385.368 143.502 383.436 146.28 381.176 149.523 379.209 152.142 377.535 154.134 375.862 156.127 374.413 157.598 373.188 158.547 372.222 159.271 371.299 159.784 370.419 160.086 369.539 160.388 368.607 160.539 367.624 160.539 366.347 160.539 365.139 160.349 364.001 159.97L365.295 154.121 368.012 154.121C368.029 154.846 368.137 155.381 368.335 155.726 368.534 156.071 368.892 156.243 369.409 156.243 369.823 156.243 370.212 156.17 370.574 156.023 370.936 155.877 371.393 155.588 371.946 155.156 372.498 154.725 373.192 154.022 374.029 153.047 374.866 152.072 375.81 150.895 376.863 149.515 376.517 147.41 376.073 144.93 375.53 142.075 374.986 139.219 374.456 136.623 373.938 134.285 373.421 131.947 373.041 130.364 372.8 129.536 372.558 128.708 372.325 128.117 372.101 127.764 371.877 127.41 371.67 127.177 371.48 127.065 371.29 126.953 371.092 126.897 370.885 126.897 370.453 126.897 370.056 127.073 369.694 127.427 369.332 127.781 368.857 128.527 368.271 129.666L365.916 128.579C366.916 126.767 368.055 125.409 369.332 124.503 370.608 123.597 372.075 123.144 373.731 123.144Z" fill="#E6CFD3" fill-rule="evenodd"/><text fill="#000000" fill-opacity="0" font-family="Arial,Arial_MSFontService,sans-serif" font-size="37.395" x="364.001" y="155.865">𝒚</text><path d="M29.7889 16.3762 131.112 101.726 122.522 111.924 21.1989 26.5737ZM17.7077 41.0662 0 0 43.4776 10.4736Z" fill="#E6CFD3" transform="matrix(-1 0 0 1 729.317 239.5)"/><path d="M523.765 238.08 635.555 374.748 625.234 383.19 513.444 246.522ZM507.345 260.124 497.5 216.5 538.306 234.799Z" fill="#E6CFD3"/><path d="M6.66668 33.3333 6.66677 243.349-6.66656 243.349-6.66665 33.3334ZM-20 40 0 0 20 40Z" fill="#E6CFD3" transform="matrix(1 0 0 -1 628.5 621.849)"/><path d="M494.526 570.966C495.958 570.966 497.101 571.367 497.955 572.169 498.809 572.971 499.236 574.028 499.236 575.339 499.236 575.771 499.185 576.185 499.081 576.581L499.392 576.737C500.962 574.753 502.484 573.295 503.959 572.363 505.434 571.431 507.147 570.966 509.096 570.966 510.822 570.966 512.18 571.44 513.172 572.389 514.164 573.338 514.686 574.649 514.738 576.323 516.17 574.494 517.615 573.144 519.073 572.273 520.53 571.401 522.182 570.966 524.028 570.966 525.771 570.966 527.138 571.457 528.13 572.441 529.122 573.424 529.618 574.796 529.618 576.555 529.618 577.073 529.575 577.703 529.489 578.445 529.403 579.187 529.273 579.894 529.101 580.567L527.004 588.9C526.815 589.624 526.694 590.185 526.642 590.582 526.59 590.979 526.565 591.427 526.565 591.928 526.565 592.6 526.677 593.066 526.901 593.325 527.125 593.584 527.444 593.713 527.858 593.713 528.359 593.713 528.919 593.476 529.541 593.002 530.162 592.527 530.895 591.807 531.74 590.841L533.604 592.704C531.913 594.429 530.399 595.654 529.062 596.379 527.725 597.103 526.254 597.466 524.649 597.466 522.872 597.466 521.553 597.026 520.69 596.146 519.827 595.266 519.396 593.92 519.396 592.109 519.396 591.539 519.456 590.845 519.577 590.025 519.698 589.206 519.87 588.356 520.095 587.476L521.285 582.973C521.561 581.956 521.807 580.882 522.023 579.752 522.238 578.621 522.346 577.746 522.346 577.125 522.346 575.538 521.725 574.744 520.483 574.744 519.741 574.744 518.835 575.218 517.766 576.167 516.696 577.116 515.812 578.156 515.113 579.286 514.414 580.416 513.875 581.912 513.496 583.776L510.649 597.052 503.196 597.052 506.974 580.593C507.164 579.799 507.293 579.148 507.362 578.639 507.431 578.13 507.466 577.686 507.466 577.306 507.466 576.409 507.311 575.758 507 575.352 506.69 574.947 506.198 574.744 505.525 574.744 504.731 574.744 503.795 575.236 502.717 576.219 501.639 577.202 500.768 578.238 500.103 579.325 499.439 580.411 498.909 581.895 498.512 583.776L495.613 597.052 488.186 597.052 492.353 579.066C492.611 577.944 492.741 577.09 492.741 576.504 492.741 575.934 492.646 575.494 492.456 575.184 492.266 574.873 491.939 574.718 491.473 574.718 490.938 574.718 490.36 574.96 489.739 575.443 489.118 575.926 488.393 576.642 487.565 577.591L485.702 575.727C487.427 573.968 488.958 572.734 490.295 572.027 491.632 571.319 493.043 570.966 494.526 570.966Z" fill="#E6CFD3" fill-rule="evenodd"/><text fill="#000000" fill-opacity="0" font-family="Arial,Arial_MSFontService,sans-serif" font-size="26.5" x="485.702" y="594.153">𝒎</text><path d="M547.644 581.64 550.082 581.64C550.005 582.859 549.967 584.547 549.967 586.705L549.967 602.625C549.967 603.362 550.009 603.917 550.091 604.292 550.174 604.666 550.32 604.971 550.529 605.206 550.739 605.44 551.04 605.625 551.434 605.758 551.827 605.891 552.322 605.993 552.919 606.062 553.516 606.132 554.303 606.18 555.28 606.205L555.28 607.938 538.846 607.938 538.846 606.205C540.255 606.142 541.262 606.056 541.865 605.948 542.468 605.84 542.928 605.678 543.245 605.463 543.563 605.247 543.794 604.942 543.94 604.549 544.086 604.155 544.159 603.514 544.159 602.625L544.159 588.857C544.159 588.337 544.061 587.962 543.864 587.734 543.667 587.505 543.398 587.391 543.055 587.391 542.737 587.391 542.29 587.537 541.712 587.829 541.135 588.121 540.186 588.718 538.865 589.619L537.704 587.6Z" fill="#E6CFD3" fill-rule="evenodd"/><text fill="#000000" fill-opacity="0" font-family="Arial,Arial_MSFontService,sans-serif" font-size="26.2983" x="537.704" y="604.651">𝟏</text><path d="M581.503 573.657C579.951 573.657 578.553 574.433 577.311 575.986 576.069 577.539 575.055 579.695 574.27 582.456 573.485 585.216 573.093 587.701 573.093 589.909 573.093 591.168 573.278 592.109 573.649 592.73 574.02 593.351 574.594 593.661 575.37 593.661 576.112 593.661 576.862 593.424 577.621 592.95 578.381 592.475 579.179 591.742 580.015 590.75 580.852 589.758 581.555 588.563 582.124 587.166 582.694 585.768 583.203 584.009 583.651 581.887L583.858 580.929C584.134 579.652 584.272 578.41 584.272 577.202 584.272 576.012 584.057 575.124 583.625 574.537 583.194 573.95 582.487 573.657 581.503 573.657ZM581.245 570.966C582.469 570.966 583.595 571.099 584.622 571.367 585.648 571.634 586.696 572.122 587.766 572.829L590.095 570.966 592.994 571.38 590.768 581.498C590.406 583.155 590.078 584.742 589.785 586.26 588.853 590.987 588.206 594.136 587.844 595.706 587.205 598.38 586.55 600.399 585.877 601.762 585.169 603.193 584.255 604.414 583.134 605.423 582.012 606.433 580.606 607.196 578.915 607.714 576.983 608.318 574.637 608.619 571.876 608.619 568.219 608.619 565.476 608.132 563.647 607.157 561.818 606.182 560.904 604.72 560.904 602.771 560.904 601.701 561.283 600.692 562.042 599.743 562.801 598.794 563.923 597.888 565.407 597.026L568.098 599.2C567.632 599.769 567.309 600.304 567.128 600.804 566.946 601.304 566.856 601.848 566.856 602.434 566.856 603.608 567.266 604.483 568.085 605.061 568.905 605.639 570.134 605.928 571.773 605.928 574.412 605.928 576.5 604.94 578.036 602.965 579.571 600.99 580.882 597.379 581.969 592.135L581.633 591.902C580.114 593.834 578.657 595.244 577.259 596.133 575.862 597.021 574.188 597.466 572.239 597.466 570.306 597.466 568.792 596.758 567.697 595.344 566.601 593.929 566.054 591.884 566.054 589.21 566.054 586.847 566.399 584.513 567.089 582.21 567.779 579.907 568.758 577.927 570.026 576.271 571.294 574.615 572.873 573.316 574.762 572.376 576.651 571.436 578.812 570.966 581.245 570.966Z" fill="#E6CFD3" fill-rule="evenodd"/><text fill="#000000" fill-opacity="0" font-family="Arial,Arial_MSFontService,sans-serif" font-size="37.6538" x="560.904" y="603.913">𝒈</text><path d="M816.02 266 844.539 266 842.494 275.368 839.182 275.368C839.165 273.453 839.053 272.112 838.846 271.344 838.638 270.576 838.306 269.999 837.849 269.61 837.392 269.222 836.749 269.028 835.921 269.028L833.618 269.028 828.054 294.338C827.933 294.907 827.847 295.39 827.795 295.787 827.743 296.184 827.718 296.71 827.718 297.365 827.718 298.159 827.92 298.72 828.326 299.048 828.731 299.375 829.365 299.565 830.228 299.617L829.866 301.325 816.124 301.325 816.486 299.617C817.245 299.513 817.849 299.289 818.298 298.944 818.746 298.599 819.121 298.086 819.423 297.404 819.725 296.723 820.032 295.701 820.342 294.338L825.906 269.028 823.836 269.028C822.887 269.028 822.119 269.17 821.533 269.455 820.946 269.74 820.29 270.335 819.566 271.241 818.841 272.146 818.142 273.341 817.47 274.825L814.079 274.825Z" fill="#E6CFD3" fill-rule="evenodd"/><text fill="#000000" fill-opacity="0" font-family="Arial,Arial_MSFontService,sans-serif" font-size="35.3247" x="814.079" y="296.909">𝑻</text><path d="M517.215 159.773 527.049 159.773 532.043 174.42C533.406 178.405 534.485 181.925 535.278 184.979L535.615 184.979C536.115 181.994 536.771 178.69 537.581 175.067L539.393 166.76C539.617 165.725 539.729 164.715 539.729 163.732 539.729 163.007 539.561 162.477 539.225 162.141 538.888 161.804 538.341 161.584 537.581 161.481L537.944 159.773 547.467 159.773 547.105 161.481C546.121 161.757 545.397 162.24 544.931 162.93 544.465 163.62 544.025 164.897 543.611 166.76L537.374 195.097 531.474 195.097 525.263 177.008C524.78 175.593 524.349 174.269 523.969 173.036 523.59 171.802 523.132 170.236 522.598 168.339L522.209 168.313C521.899 170.797 521.174 174.584 520.036 179.673L518.172 188.11C518.052 188.662 517.965 189.141 517.914 189.546 517.862 189.952 517.836 190.482 517.836 191.138 517.836 191.862 518.004 192.393 518.341 192.729 518.677 193.066 519.225 193.286 519.984 193.389L519.622 195.097 510.098 195.097 510.46 193.389C511.444 193.113 512.168 192.63 512.634 191.94 513.1 191.25 513.54 189.973 513.954 188.11L518.664 166.76C518.888 165.742 519 164.733 519 163.732 519 163.007 518.832 162.477 518.496 162.141 518.159 161.804 517.612 161.584 516.852 161.481Z" fill="#E6CFD3" fill-rule="evenodd"/><text fill="#000000" fill-opacity="0" font-family="Arial,Arial_MSFontService,sans-serif" font-size="35.3247" x="510.098" y="190.682">𝑵</text><path d="M0 0 1243.43 10.1733" stroke="#E6CFD3" stroke-width="8" stroke-miterlimit="8" stroke-dasharray="32 24" fill="none" fill-rule="evenodd" transform="matrix(1 0 0 -1 17 382.173)"/><path d="M732.992 344.191C732.543 346.037 732.22 347.788 732.021 349.445 731.823 351.101 731.724 352.567 731.724 353.844 731.724 355.362 731.952 356.492 732.41 357.234 732.867 357.976 733.587 358.347 734.571 358.347 736.296 358.347 737.922 357.131 739.449 354.698 740.976 352.265 742.282 348.763 743.369 344.191ZM742.541 327.033C740.781 327.033 739.138 328.207 737.611 330.553 736.084 332.899 734.778 336.358 733.691 340.93L744.068 340.93C744.448 339.188 744.745 337.583 744.961 336.117 745.177 334.65 745.284 333.288 745.284 332.028 745.284 330.234 745.073 328.953 744.65 328.185 744.228 327.417 743.525 327.033 742.541 327.033ZM742.593 324.342C745.768 324.342 748.14 325.252 749.71 327.072 751.28 328.892 752.065 331.623 752.065 335.263 752.065 337.816 751.646 340.823 750.81 344.282 749.973 347.741 748.791 350.743 747.264 353.288 745.737 355.832 743.896 357.76 741.739 359.072 739.582 360.383 737.15 361.038 734.441 361.038 731.284 361.038 728.912 360.133 727.324 358.321 725.737 356.51 724.944 353.861 724.944 350.376 724.944 347.823 725.353 344.804 726.173 341.319 726.992 337.834 728.161 334.806 729.679 332.235 731.198 329.664 733.035 327.706 735.192 326.361 737.348 325.015 739.815 324.342 742.593 324.342Z" fill="#E6CFD3" fill-rule="evenodd"/><text fill="#000000" fill-opacity="0" font-family="Arial,Arial_MSFontService,sans-serif" font-size="36.6963" x="724.944" y="356.451">𝜽</text><path d="M659.26 479.673C658.812 481.519 658.488 483.271 658.29 484.927 658.091 486.583 657.992 488.049 657.992 489.326 657.992 490.844 658.221 491.974 658.678 492.716 659.135 493.458 659.856 493.829 660.839 493.829 662.564 493.829 664.19 492.613 665.717 490.18 667.244 487.748 668.551 484.245 669.638 479.673ZM668.81 462.516C667.05 462.516 665.407 463.689 663.88 466.035 662.353 468.382 661.046 471.841 659.959 476.413L670.337 476.413C670.716 474.67 671.014 473.066 671.229 471.599 671.445 470.133 671.553 468.77 671.553 467.51 671.553 465.716 671.341 464.435 670.919 463.667 670.496 462.9 669.793 462.516 668.81 462.516ZM668.861 459.824C672.036 459.824 674.408 460.734 675.978 462.554 677.548 464.375 678.333 467.105 678.333 470.745 678.333 473.298 677.915 476.305 677.078 479.764 676.241 483.223 675.059 486.225 673.533 488.77 672.006 491.315 670.164 493.243 668.007 494.554 665.851 495.865 663.418 496.521 660.71 496.521 657.552 496.521 655.18 495.615 653.593 493.803 652.006 491.992 651.212 489.343 651.212 485.858 651.212 483.305 651.622 480.286 652.441 476.801 653.261 473.316 654.43 470.288 655.948 467.717 657.466 465.147 659.304 463.188 661.46 461.843 663.617 460.497 666.084 459.824 668.861 459.824Z" fill="#E6CFD3" fill-rule="evenodd"/><text fill="#000000" fill-opacity="0" font-family="Arial,Arial_MSFontService,sans-serif" font-size="36.6963" x="651.212" y="491.933">𝜽</text></g></svg>