<svg width="1249" height="540" xmlns="http://www.w3.org/2000/svg" xmlns:xlink="http://www.w3.org/1999/xlink" overflow="hidden"><defs><clipPath id="clip0"><rect x="16" y="87" width="1249" height="540"/></clipPath></defs><g clip-path="url(#clip0)" transform="translate(-16 -87)"><path d="M17.7473 10.0542 41.9559 30.9813 36.7242 37.0335 12.5155 16.1064ZM60.1124 46.6766 84.321 67.6037 79.0893 73.6558 54.8806 52.7288ZM102.477 83.299 126.686 104.226 121.454 110.278 97.2457 89.3511ZM144.843 119.921 169.051 140.848 163.819 146.901 139.611 125.973ZM187.208 156.544 211.416 177.471 206.185 183.523 181.976 162.596ZM229.573 193.166 253.781 214.093 248.55 220.145 224.341 199.218ZM271.938 229.788 296.147 250.715 290.915 256.768 266.706 235.841ZM314.303 266.411 338.512 287.338 333.28 293.39 309.071 272.463ZM356.668 303.033 380.877 323.96 375.645 330.012 351.436 309.085ZM399.033 339.655 423.242 360.583 418.01 366.635 393.801 345.708ZM441.398 376.278 465.607 397.205 460.375 403.257 436.167 382.33ZM483.763 412.9 507.972 433.827 502.74 439.88 478.532 418.952ZM526.129 449.523 530.748 453.516 525.516 459.568 520.897 455.575ZM10.3088 24.7735 0 0 26.0041 6.61709Z" fill="#E6CFD3" transform="matrix(1 0 0 -1 372 601.542)"/><path d="M534.602 371.939 637.031 283.638 720.753 380.754 618.324 469.056Z" stroke="#E6CFD3" stroke-width="8" stroke-miterlimit="8" fill="none" fill-rule="evenodd"/><path d="M37.2939 127.728C38.7259 127.728 39.8688 128.129 40.7228 128.931 41.5768 129.734 42.0038 130.79 42.0038 132.102 42.0038 132.533 41.9521 132.947 41.8486 133.344L42.1591 133.499C43.7291 131.515 45.2516 130.057 46.7267 129.125 48.2018 128.194 49.9142 127.728 51.8637 127.728 53.589 127.728 54.9476 128.202 55.9396 129.151 56.9317 130.1 57.4536 131.411 57.5053 133.085 58.9373 131.256 60.3822 129.906 61.84 129.035 63.2979 128.164 64.9498 127.728 66.7958 127.728 68.5384 127.728 69.9056 128.22 70.8976 129.203 71.8897 130.187 72.3857 131.558 72.3857 133.318 72.3857 133.835 72.3426 134.465 72.2563 135.207 72.17 135.949 72.0406 136.656 71.8681 137.329L69.7719 145.662C69.5821 146.387 69.4614 146.947 69.4096 147.344 69.3578 147.741 69.332 148.19 69.332 148.69 69.332 149.363 69.4441 149.829 69.6684 150.087 69.8927 150.346 70.2119 150.476 70.6259 150.476 71.1262 150.476 71.687 150.238 72.308 149.764 72.9291 149.289 73.6624 148.569 74.5078 147.603L76.371 149.466C74.6803 151.192 73.1664 152.417 71.8293 153.141 70.4922 153.866 69.0214 154.228 67.4169 154.228 65.6399 154.228 64.3201 153.788 63.4575 152.908 62.5948 152.028 62.1635 150.683 62.1635 148.871 62.1635 148.302 62.2239 147.607 62.3447 146.788 62.4654 145.968 62.638 145.119 62.8622 144.239L64.0527 139.736C64.3287 138.718 64.5746 137.644 64.7902 136.514 65.0059 135.384 65.1137 134.508 65.1137 133.887 65.1137 132.3 64.4926 131.506 63.2504 131.506 62.5086 131.506 61.6028 131.981 60.5331 132.93 59.4635 133.879 58.5793 134.918 57.8806 136.048 57.1818 137.178 56.6427 138.675 56.2631 140.538L53.4164 153.814 45.9633 153.814 49.7416 137.355C49.9314 136.561 50.0608 135.91 50.1298 135.401 50.1988 134.892 50.2333 134.448 50.2333 134.068 50.2333 133.171 50.0781 132.52 49.7675 132.115 49.457 131.709 48.9653 131.506 48.2924 131.506 47.4988 131.506 46.5628 131.998 45.4846 132.981 44.4063 133.965 43.535 135 42.8708 136.087 42.2066 137.174 41.676 138.658 41.2792 140.538L38.3808 153.814 30.9536 153.814 35.1201 135.828C35.3788 134.707 35.5082 133.853 35.5082 133.266 35.5082 132.697 35.4134 132.257 35.2236 131.946 35.0338 131.636 34.706 131.48 34.2402 131.48 33.7053 131.48 33.1274 131.722 32.5063 132.205 31.8852 132.688 31.1606 133.404 30.3325 134.353L28.4692 132.49C30.1944 130.73 31.7256 129.496 33.0627 128.789 34.3998 128.082 35.8102 127.728 37.2939 127.728Z" fill="#E6CFD3" fill-rule="evenodd"/><text fill="#000000" fill-opacity="0" font-family="Arial,Arial_MSFontService,sans-serif" font-size="26.5" x="28.4692" y="150.916">𝒎</text><path d="M90.4116 138.402 92.8491 138.402C92.7729 139.621 92.7348 141.31 92.7348 143.468L92.7348 159.388C92.7348 160.124 92.7761 160.679 92.8586 161.054 92.9411 161.428 93.0871 161.733 93.2966 161.968 93.506 162.203 93.8076 162.387 94.2011 162.52 94.5947 162.654 95.0898 162.755 95.6865 162.825 96.2831 162.895 97.0703 162.942 98.0478 162.968L98.0478 164.701 81.6137 164.701 81.6137 162.968C83.0229 162.904 84.029 162.819 84.632 162.711 85.235 162.603 85.6953 162.441 86.0126 162.225 86.33 162.009 86.5617 161.705 86.7077 161.311 86.8537 160.917 86.9267 160.276 86.9267 159.388L86.9267 145.62C86.9267 145.099 86.8283 144.725 86.6315 144.496 86.4348 144.268 86.165 144.153 85.8222 144.153 85.5048 144.153 85.0573 144.299 84.4797 144.591 83.902 144.883 82.9531 145.48 81.6328 146.381L80.4711 144.363Z" fill="#E6CFD3" fill-rule="evenodd"/><text fill="#000000" fill-opacity="0" font-family="Arial,Arial_MSFontService,sans-serif" font-size="26.2983" x="80.4711" y="161.413">𝟏</text><text fill="#E6CFD3" font-family="Calibri,Calibri_MSFontService,sans-serif" font-weight="700" font-size="53" transform="translate(102.895 154)">:</text><path d="M625.473 192.767 632.848 192.767 629.613 206.768C629.337 207.958 629.1 209.062 628.902 210.08 628.703 211.098 628.604 211.943 628.604 212.616 628.604 213.375 628.751 213.953 629.044 214.35 629.337 214.747 629.829 214.945 630.519 214.945 631.434 214.945 632.378 214.514 633.353 213.651 634.328 212.789 635.173 211.792 635.889 210.662 636.605 209.532 637.118 208.243 637.429 206.793L640.534 192.767 648.013 192.767 643.821 210.365C643.562 211.452 643.433 212.435 643.433 213.315 643.433 213.884 643.528 214.324 643.717 214.635 643.907 214.945 644.235 215.101 644.701 215.101 645.184 215.101 645.719 214.885 646.305 214.454 646.892 214.022 647.582 213.367 648.376 212.487L650.239 214.35C648.634 215.955 647.168 217.106 645.84 217.805 644.511 218.504 643.157 218.853 641.777 218.853 640.276 218.853 639.094 218.456 638.231 217.663 637.369 216.869 636.937 215.808 636.937 214.479 636.937 213.927 636.989 213.513 637.092 213.237L636.73 213.186C635.246 214.997 633.862 216.343 632.577 217.223 631.291 218.103 630.028 218.542 628.785 218.542 627.474 218.542 626.37 218.163 625.473 217.404L625.266 217.481C625.076 219.448 624.981 221.432 624.981 223.434 624.981 224.469 625.007 225.392 625.059 226.203L624.541 228.816 618.874 228.816 617.554 227.057C617.83 226.194 618.201 224.866 618.667 223.071 619.133 221.277 619.512 219.698 619.805 218.335Z" fill="#E6CFD3" fill-rule="evenodd"/><text fill="#000000" fill-opacity="0" font-family="Arial,Arial_MSFontService,sans-serif" font-size="36.0493" x="617.554" y="224.31">𝝁</text><path d="M662.063 202.056 664.215 202.056 660.673 218.09 661.054 218.09C661.511 218.09 661.942 218.008 662.349 217.843 662.844 217.64 663.453 217.278 664.177 216.757 665.154 216.034 665.846 215.469 666.253 215.062 666.659 214.656 666.941 214.272 667.1 213.91 667.259 213.549 667.338 213.177 667.338 212.796 667.338 212.504 667.259 212.257 667.1 212.054 666.941 211.851 666.659 211.73 666.253 211.692L666.557 210.435 673.336 210.435 673.813 211.673C673.025 212.536 671.965 213.476 670.632 214.491L666.348 217.709 668.309 224.66C668.538 225.485 668.75 226.044 668.947 226.336 669.144 226.628 669.42 226.774 669.775 226.774 670.106 226.774 670.48 226.606 670.899 226.269 671.318 225.933 671.813 225.428 672.384 224.755L673.755 226.126C672.575 227.396 671.508 228.297 670.556 228.831 669.604 229.364 668.627 229.63 667.624 229.63 666.367 229.63 665.389 229.332 664.691 228.735 663.993 228.139 663.485 227.117 663.168 225.669L662.158 221.099C662.095 220.794 662.012 220.553 661.911 220.375 661.809 220.198 661.676 220.071 661.511 219.995 661.346 219.918 661.098 219.88 660.768 219.88L660.292 219.88 658.216 229.326 652.751 229.326 657.569 207.807C657.848 206.563 657.988 205.655 657.988 205.084 657.988 204.805 657.959 204.586 657.902 204.427 657.845 204.268 657.759 204.138 657.645 204.037 657.531 203.935 657.378 203.856 657.188 203.799 656.998 203.741 656.623 203.675 656.065 203.599L656.369 202.361Z" fill="#E6CFD3" fill-rule="evenodd"/><text fill="#000000" fill-opacity="0" font-family="Arial,Arial_MSFontService,sans-serif" font-size="27.5742" x="652.751" y="226.184">𝒌</text><path d="M685.586 183.114 695.42 183.114 700.414 197.762C701.777 201.747 702.856 205.267 703.649 208.32L703.986 208.32C704.486 205.336 705.142 202.032 705.952 198.409L707.764 190.102C707.988 189.066 708.1 188.057 708.1 187.074 708.1 186.349 707.932 185.819 707.596 185.482 707.259 185.146 706.712 184.926 705.952 184.822L706.315 183.114 715.838 183.114 715.476 184.822C714.492 185.098 713.768 185.581 713.302 186.271 712.836 186.962 712.396 188.238 711.982 190.102L705.745 218.439 699.845 218.439 693.634 200.35C693.151 198.935 692.72 197.611 692.34 196.377 691.961 195.144 691.503 193.578 690.969 191.68L690.58 191.654C690.27 194.139 689.545 197.926 688.407 203.015L686.543 211.452C686.422 212.004 686.336 212.482 686.284 212.888 686.233 213.293 686.207 213.824 686.207 214.479 686.207 215.204 686.375 215.735 686.711 216.071 687.048 216.407 687.596 216.627 688.355 216.731L687.992 218.439 678.469 218.439 678.831 216.731C679.815 216.455 680.539 215.972 681.005 215.282 681.471 214.592 681.911 213.315 682.325 211.452L687.035 190.102C687.259 189.084 687.371 188.074 687.371 187.074 687.371 186.349 687.203 185.819 686.867 185.482 686.53 185.146 685.983 184.926 685.223 184.822Z" fill="#E6CFD3" fill-rule="evenodd"/><text fill="#000000" fill-opacity="0" font-family="Arial,Arial_MSFontService,sans-serif" font-size="35.3247" x="678.469" y="214.023">𝑵</text><path d="M29.9115 16.1512 203.782 160.386 195.27 170.648 21.3987 26.4132ZM18.0168 40.9316 0 0 43.5553 10.1455Z" fill="#E6CFD3" transform="matrix(-1 0 0 1 828.026 213.5)"/><path d="M432.863 130.82 453.324 155.424 447.173 160.539 426.712 135.935ZM468.669 173.877 489.13 198.481 482.979 203.596 462.518 178.992ZM504.476 216.934 524.936 241.538 518.785 246.653 498.325 222.049ZM540.282 259.991 560.742 284.595 554.591 289.71 534.131 265.106ZM576.088 303.048 596.549 327.652 590.398 332.768 569.937 308.164ZM611.894 346.105 632.355 370.71 626.204 375.825 605.743 351.221ZM647.7 389.163 668.161 413.767 662.01 418.882 641.549 394.278ZM683.507 432.22 703.967 456.824 697.816 461.939 677.356 437.335ZM719.313 475.277 739.773 499.881 733.622 504.996 713.162 480.392ZM755.119 518.334 775.58 542.938 769.429 548.053 748.968 523.449ZM790.925 561.391 811.386 585.995 805.235 591.11 784.774 566.506ZM826.731 604.448 830.315 608.758 824.164 613.873 820.58 609.563ZM423.119 144.126 417 118 441.572 128.78Z" fill="#E6CFD3"/><path d="M305.411 555.235 309.086 555.235 309.086 570.141 323.19 570.141 323.19 573.583 309.086 573.583 309.086 588.489 305.411 588.489 305.411 573.583 291.307 573.583 291.307 570.141 305.411 570.141Z" fill="#E6CFD3" fill-rule="evenodd"/><text fill="#000000" fill-opacity="0" font-family="Arial,Arial_MSFontService,sans-serif" font-size="33.2544" x="291.307" y="584.332">+</text><path d="M339.214 560.928C340.595 560.928 341.647 561.135 342.372 561.549 343.096 561.963 343.691 562.683 344.157 563.71 344.623 564.736 345.063 566.38 345.477 568.64L345.736 568.64C347.013 566.846 348.005 565.496 348.712 564.59 349.419 563.684 350.075 562.959 350.679 562.416 351.283 561.872 351.869 561.489 352.438 561.264 353.008 561.04 353.681 560.928 354.457 560.928 355.32 560.928 356.191 561.083 357.071 561.394L355.854 566.984 353.525 566.984C353.439 566.259 353.12 565.897 352.568 565.897 352.326 565.897 352.072 565.957 351.804 566.078 351.537 566.199 351.183 566.47 350.743 566.893 350.303 567.316 349.756 567.928 349.1 568.73 348.444 569.533 347.461 570.753 346.15 572.392 346.754 576.033 347.25 578.642 347.638 580.221 348.026 581.799 348.427 582.821 348.841 583.287 349.083 583.546 349.376 583.675 349.721 583.675 350.152 583.675 350.554 583.507 350.925 583.171 351.295 582.834 351.774 582.08 352.361 580.906L354.716 581.993C353.715 583.822 352.581 585.185 351.313 586.082 350.045 586.979 348.557 587.428 346.849 587.428 345.796 587.428 344.955 587.294 344.325 587.027 343.696 586.759 343.161 586.315 342.721 585.694 342.281 585.073 341.893 584.197 341.556 583.067 341.22 581.937 340.905 580.458 340.612 578.629L340.353 578.629C338.887 580.734 337.713 582.338 336.833 583.443 335.954 584.547 335.199 585.375 334.569 585.927 333.939 586.479 333.336 586.867 332.758 587.091 332.18 587.316 331.485 587.428 330.674 587.428 330.295 587.428 329.833 587.38 329.29 587.286 328.746 587.191 328.337 587.091 328.061 586.988L329.277 581.372 331.606 581.372C331.623 581.735 331.714 582.006 331.878 582.187 332.042 582.369 332.253 582.459 332.512 582.459 332.822 582.459 333.111 582.394 333.379 582.265 333.646 582.136 334.017 581.847 334.491 581.398 334.966 580.95 335.565 580.29 336.29 579.418 337.015 578.547 338.24 577.016 339.965 574.825 339.603 572.789 339.262 571.034 338.943 569.559 338.623 568.083 338.334 567.014 338.076 566.35 337.817 565.685 337.571 565.241 337.338 565.017 337.105 564.792 336.842 564.68 336.549 564.68 336.204 564.68 335.902 564.771 335.643 564.952 335.384 565.133 335.113 565.427 334.828 565.832 334.543 566.237 334.237 566.777 333.909 567.449L331.554 566.362C332.555 564.534 333.681 563.171 334.931 562.274 336.182 561.376 337.61 560.928 339.214 560.928Z" fill="#E6CFD3" fill-rule="evenodd"/><text fill="#000000" fill-opacity="0" font-family="Arial,Arial_MSFontService,sans-serif" font-size="26.5" x="328.061" y="584.115">𝒙</text><path d="M341.946 117.451 345.621 117.451 345.621 132.357 359.725 132.357 359.725 135.799 345.621 135.799 345.621 150.705 341.946 150.705 341.946 135.799 327.842 135.799 327.842 132.357 341.946 132.357Z" fill="#E6CFD3" fill-rule="evenodd"/><text fill="#000000" fill-opacity="0" font-family="Arial,Arial_MSFontService,sans-serif" font-size="33.2544" x="327.842" y="146.548">+</text><path d="M373.731 123.144C375.06 123.144 376.134 123.338 376.953 123.726 377.773 124.115 378.424 124.649 378.907 125.331 379.39 126.012 379.778 126.879 380.072 127.932 380.313 128.76 380.598 130.218 380.926 132.305 381.46 135.704 381.918 139.042 382.297 142.32 384.212 139.577 385.683 136.903 386.709 134.298 387.736 131.693 388.249 129.364 388.249 127.311 388.249 126.655 388.094 126.159 387.783 125.823 387.473 125.486 386.929 125.301 386.153 125.266L386.515 123.558 393.813 123.558 394.719 125.266C394.374 126.457 393.839 127.897 393.115 129.588 392.045 132.072 390.604 134.859 388.793 137.947 387.154 140.725 385.368 143.502 383.436 146.28 381.176 149.523 379.209 152.142 377.535 154.134 375.862 156.127 374.413 157.598 373.188 158.547 372.222 159.271 371.299 159.784 370.419 160.086 369.539 160.388 368.607 160.539 367.624 160.539 366.347 160.539 365.139 160.349 364.001 159.97L365.295 154.121 368.012 154.121C368.029 154.846 368.137 155.381 368.335 155.726 368.534 156.071 368.892 156.243 369.409 156.243 369.823 156.243 370.212 156.17 370.574 156.023 370.936 155.877 371.393 155.588 371.946 155.156 372.498 154.725 373.192 154.022 374.029 153.047 374.866 152.072 375.81 150.895 376.863 149.515 376.517 147.41 376.073 144.93 375.53 142.075 374.986 139.219 374.456 136.623 373.938 134.285 373.421 131.947 373.041 130.364 372.8 129.536 372.558 128.708 372.325 128.117 372.101 127.764 371.877 127.41 371.67 127.177 371.48 127.065 371.29 126.953 371.092 126.897 370.885 126.897 370.453 126.897 370.056 127.073 369.694 127.427 369.332 127.781 368.857 128.527 368.271 129.666L365.916 128.579C366.916 126.767 368.055 125.409 369.332 124.503 370.608 123.597 372.075 123.144 373.731 123.144Z" fill="#E6CFD3" fill-rule="evenodd"/><text fill="#000000" fill-opacity="0" font-family="Arial,Arial_MSFontService,sans-serif" font-size="37.395" x="364.001" y="155.865">𝒚</text><path d="M29.7889 16.3762 131.112 101.726 122.522 111.924 21.1989 26.5737ZM17.7077 41.0662 0 0 43.4776 10.4736Z" fill="#E6CFD3" transform="matrix(-1 0 0 1 729.317 239.5)"/><path d="M523.765 238.08 635.555 374.748 625.234 383.19 513.444 246.522ZM507.345 260.124 497.5 216.5 538.306 234.799Z" fill="#E6CFD3"/><path d="M247.78 436.014C249.212 436.014 250.355 436.415 251.209 437.218 252.063 438.02 252.49 439.077 252.49 440.388 252.49 440.819 252.438 441.233 252.334 441.63L252.645 441.785C254.215 439.801 255.738 438.343 257.213 437.412 258.688 436.48 260.4 436.014 262.35 436.014 264.075 436.014 265.434 436.489 266.426 437.438 267.418 438.386 267.939 439.698 267.991 441.371 269.423 439.542 270.868 438.192 272.326 437.321 273.784 436.45 275.436 436.014 277.282 436.014 279.024 436.014 280.392 436.506 281.384 437.489 282.376 438.473 282.872 439.844 282.872 441.604 282.872 442.122 282.828 442.751 282.742 443.493 282.656 444.235 282.527 444.942 282.354 445.615L280.258 453.948C280.068 454.673 279.947 455.234 279.896 455.63 279.844 456.027 279.818 456.476 279.818 456.976 279.818 457.649 279.93 458.115 280.154 458.374 280.379 458.632 280.698 458.762 281.112 458.762 281.612 458.762 282.173 458.525 282.794 458.05 283.415 457.576 284.148 456.855 284.994 455.889L286.857 457.753C285.166 459.478 283.652 460.703 282.315 461.427 280.978 462.152 279.507 462.514 277.903 462.514 276.126 462.514 274.806 462.074 273.943 461.194 273.081 460.315 272.649 458.969 272.649 457.157 272.649 456.588 272.71 455.894 272.831 455.074 272.951 454.255 273.124 453.405 273.348 452.525L274.539 448.022C274.815 447.004 275.06 445.93 275.276 444.8 275.492 443.67 275.6 442.794 275.6 442.173 275.6 440.586 274.979 439.793 273.736 439.793 272.994 439.793 272.089 440.267 271.019 441.216 269.949 442.165 269.065 443.204 268.366 444.334 267.668 445.464 267.129 446.961 266.749 448.824L263.902 462.1 256.449 462.1 260.228 445.641C260.417 444.848 260.547 444.196 260.616 443.687 260.685 443.178 260.719 442.734 260.719 442.355 260.719 441.457 260.564 440.806 260.253 440.401 259.943 439.995 259.451 439.793 258.778 439.793 257.985 439.793 257.049 440.284 255.97 441.268 254.892 442.251 254.021 443.286 253.357 444.373 252.692 445.46 252.162 446.944 251.765 448.824L248.867 462.1 241.439 462.1 245.606 444.114C245.865 442.993 245.994 442.139 245.994 441.552 245.994 440.983 245.899 440.543 245.709 440.232 245.52 439.922 245.192 439.767 244.726 439.767 244.191 439.767 243.613 440.008 242.992 440.491 242.371 440.974 241.646 441.69 240.818 442.639L238.955 440.776C240.68 439.016 242.211 437.783 243.549 437.075 244.886 436.368 246.296 436.014 247.78 436.014Z" fill="#E6CFD3" fill-rule="evenodd"/><text fill="#000000" fill-opacity="0" font-family="Arial,Arial_MSFontService,sans-serif" font-size="26.5" x="238.955" y="459.202">𝒎</text><path d="M300.897 446.688 303.335 446.688C303.259 447.907 303.221 449.596 303.221 451.754L303.221 467.674C303.221 468.41 303.262 468.966 303.344 469.34 303.427 469.715 303.573 470.019 303.782 470.254 303.992 470.489 304.293 470.673 304.687 470.806 305.081 470.94 305.576 471.041 306.172 471.111 306.769 471.181 307.556 471.229 308.534 471.254L308.534 472.987 292.1 472.987 292.1 471.254C293.509 471.19 294.515 471.105 295.118 470.997 295.721 470.889 296.181 470.727 296.499 470.511 296.816 470.295 297.048 469.991 297.194 469.597 297.34 469.204 297.413 468.562 297.413 467.674L297.413 453.906C297.413 453.385 297.314 453.011 297.117 452.782 296.921 452.554 296.651 452.439 296.308 452.439 295.991 452.439 295.543 452.585 294.966 452.877 294.388 453.169 293.439 453.766 292.119 454.667L290.957 452.649Z" fill="#E6CFD3" fill-rule="evenodd"/><text fill="#000000" fill-opacity="0" font-family="Arial,Arial_MSFontService,sans-serif" font-size="26.2983" x="290.957" y="469.7">𝟏</text><path d="M334.757 438.706C333.204 438.706 331.806 439.482 330.564 441.035 329.322 442.587 328.308 444.744 327.523 447.504 326.738 450.265 326.346 452.749 326.346 454.958 326.346 456.217 326.531 457.157 326.902 457.778 327.273 458.399 327.847 458.71 328.623 458.71 329.365 458.71 330.116 458.473 330.875 457.998 331.634 457.524 332.432 456.791 333.269 455.799 334.105 454.807 334.808 453.612 335.378 452.214 335.947 450.817 336.456 449.057 336.905 446.935L337.112 445.978C337.388 444.701 337.526 443.459 337.526 442.251 337.526 441.061 337.31 440.172 336.879 439.586 336.447 438.999 335.74 438.706 334.757 438.706ZM334.498 436.014C335.723 436.014 336.849 436.148 337.875 436.415 338.902 436.683 339.95 437.17 341.019 437.878L343.348 436.014 346.247 436.428 344.021 446.547C343.659 448.203 343.331 449.79 343.038 451.309 342.106 456.036 341.459 459.184 341.097 460.754 340.459 463.429 339.803 465.447 339.13 466.81 338.423 468.242 337.508 469.463 336.387 470.472 335.266 471.481 333.859 472.245 332.169 472.762 330.236 473.366 327.89 473.668 325.13 473.668 321.472 473.668 318.729 473.181 316.9 472.206 315.071 471.231 314.157 469.769 314.157 467.819 314.157 466.75 314.537 465.74 315.296 464.792 316.055 463.843 317.176 462.937 318.66 462.074L321.351 464.248C320.886 464.817 320.562 465.352 320.381 465.853 320.2 466.353 320.109 466.896 320.109 467.483 320.109 468.656 320.519 469.532 321.338 470.11 322.158 470.688 323.387 470.977 325.026 470.977 327.666 470.977 329.753 469.989 331.289 468.013 332.824 466.038 334.136 462.428 335.222 457.183L334.886 456.95C333.368 458.883 331.91 460.293 330.512 461.181 329.115 462.07 327.442 462.514 325.492 462.514 323.56 462.514 322.046 461.807 320.95 460.392 319.855 458.977 319.307 456.933 319.307 454.259 319.307 451.895 319.652 449.562 320.342 447.259 321.032 444.955 322.011 442.976 323.279 441.319 324.547 439.663 326.126 438.365 328.015 437.425 329.904 436.484 332.065 436.014 334.498 436.014Z" fill="#E6CFD3" fill-rule="evenodd"/><text fill="#000000" fill-opacity="0" font-family="Arial,Arial_MSFontService,sans-serif" font-size="37.6538" x="314.157" y="468.961">𝒈</text><path d="M383.941 436.221 387.176 436.221 387.176 454.621C387.176 456.277 387.224 457.412 387.319 458.024 387.413 458.637 387.625 459.128 387.953 459.499 388.28 459.87 388.884 460.168 389.764 460.392L389.764 462.1 377.135 462.1 377.135 460.392C377.981 460.168 378.563 459.875 378.882 459.512 379.201 459.15 379.417 458.658 379.529 458.037 379.641 457.416 379.697 456.286 379.697 454.647L379.697 442.613C379.697 441.406 379.62 440.547 379.464 440.038 379.309 439.529 379.055 439.141 378.701 438.874 378.347 438.606 377.722 438.378 376.825 438.188L376.825 436.428ZM413.276 436.014C414.691 436.014 415.864 436.217 416.796 436.622 417.727 437.028 418.482 437.619 419.06 438.395 419.638 439.171 420.052 440.12 420.302 441.242 420.553 442.363 420.678 443.666 420.678 445.149L420.678 454.621C420.678 456.26 420.729 457.39 420.833 458.011 420.936 458.632 421.152 459.128 421.48 459.499 421.808 459.87 422.412 460.168 423.291 460.392L423.291 462.1 410.74 462.1 410.74 460.392C411.534 460.202 412.086 459.922 412.396 459.551 412.707 459.18 412.918 458.68 413.03 458.05 413.143 457.42 413.199 456.286 413.199 454.647L413.199 447.737C413.199 446.478 413.164 445.387 413.095 444.464 413.026 443.541 412.905 442.825 412.733 442.316 412.56 441.807 412.345 441.393 412.086 441.074 411.827 440.754 411.525 440.509 411.18 440.336 410.835 440.163 410.352 440.077 409.731 440.077 409.075 440.077 408.394 440.28 407.686 440.685 406.979 441.091 406.384 441.652 405.901 442.367 405.418 443.083 405.176 443.847 405.176 444.658L405.176 454.621C405.176 456.26 405.228 457.399 405.331 458.037 405.435 458.676 405.646 459.18 405.966 459.551 406.285 459.922 406.85 460.202 407.661 460.392L407.661 462.1 395.161 462.1 395.161 460.392C395.989 460.168 396.563 459.875 396.882 459.512 397.201 459.15 397.417 458.658 397.529 458.037 397.641 457.416 397.697 456.286 397.697 454.647L397.697 444.011C397.697 442.734 397.676 441.79 397.633 441.177 397.589 440.565 397.486 440.073 397.322 439.702 397.158 439.331 396.908 439.029 396.571 438.796 396.235 438.563 395.653 438.361 394.825 438.188L394.825 436.428 401.915 436.221 405.176 436.221 404.788 439.948 405.099 440.025C406.755 438.542 408.208 437.502 409.459 436.907 410.71 436.312 411.982 436.014 413.276 436.014ZM363.47 436.014C364.73 436.014 365.963 436.066 367.171 436.169 368.379 436.273 369.94 436.497 371.855 436.842L371.855 442.872 368.439 442.872C368.042 441.768 367.606 440.914 367.132 440.31 366.658 439.706 366.136 439.288 365.566 439.055 364.997 438.822 364.316 438.706 363.522 438.706 362.383 438.706 361.477 438.964 360.805 439.482 360.132 440 359.795 440.724 359.795 441.656 359.795 442.311 359.916 442.872 360.158 443.338 360.399 443.804 360.831 444.257 361.452 444.697 362.073 445.137 363.272 445.727 365.049 446.469 367.619 447.539 369.444 448.699 370.522 449.95 371.6 451.201 372.14 452.706 372.14 454.466 372.14 457.054 371.217 459.042 369.371 460.431 367.525 461.82 364.911 462.514 361.529 462.514 358.683 462.514 355.517 462.109 352.032 461.298L352.032 455.113 355.499 455.113C355.914 456.683 356.569 457.86 357.466 458.645 358.363 459.43 359.562 459.823 361.063 459.823 362.357 459.823 363.336 459.53 364.001 458.943 364.665 458.356 364.997 457.502 364.997 456.381 364.997 455.674 364.846 455.07 364.544 454.569 364.242 454.069 363.742 453.59 363.043 453.133 362.344 452.676 361.15 452.076 359.459 451.335 357.044 450.282 355.292 449.122 354.206 447.854 353.119 446.586 352.575 445.158 352.575 443.571 352.575 442.018 353.024 440.672 353.921 439.534 354.818 438.395 356.099 437.524 357.764 436.92 359.429 436.316 361.331 436.014 363.47 436.014ZM379.878 426.103 386.969 426.103 386.969 432.443 379.878 432.443Z" fill="#E6CFD3" fill-rule="evenodd"/><text fill="#000000" fill-opacity="0" font-family="Arial,Arial_MSFontService,sans-serif" font-size="36.4116" x="352.032" y="457.963">𝐬𝐢𝐧</text><path d="M436.405 445.667C435.956 447.513 435.633 449.264 435.435 450.92 435.236 452.577 435.137 454.043 435.137 455.32 435.137 456.838 435.366 457.968 435.823 458.71 436.28 459.452 437 459.823 437.984 459.823 439.709 459.823 441.335 458.607 442.862 456.174 444.389 453.741 445.696 450.239 446.783 445.667ZM445.954 428.509C444.195 428.509 442.551 429.683 441.024 432.029 439.498 434.375 438.191 437.834 437.104 442.406L447.481 442.406C447.861 440.664 448.158 439.059 448.374 437.593 448.59 436.126 448.698 434.763 448.698 433.504 448.698 431.71 448.486 430.429 448.064 429.661 447.641 428.893 446.938 428.509 445.954 428.509ZM446.006 425.818C449.181 425.818 451.553 426.728 453.123 428.548 454.693 430.368 455.478 433.099 455.478 436.739 455.478 439.292 455.059 442.298 454.223 445.758 453.386 449.217 452.204 452.219 450.677 454.763 449.15 457.308 447.309 459.236 445.152 460.547 442.996 461.859 440.563 462.514 437.854 462.514 434.697 462.514 432.325 461.608 430.738 459.797 429.15 457.985 428.357 455.337 428.357 451.852 428.357 449.299 428.766 446.28 429.586 442.794 430.405 439.309 431.574 436.282 433.093 433.711 434.611 431.14 436.448 429.182 438.605 427.836 440.761 426.491 443.228 425.818 446.006 425.818Z" fill="#E6CFD3" fill-rule="evenodd"/><text fill="#000000" fill-opacity="0" font-family="Arial,Arial_MSFontService,sans-serif" font-size="36.6963" x="428.357" y="457.927">𝜽</text><path d="M816.02 266 844.539 266 842.494 275.368 839.182 275.368C839.165 273.453 839.053 272.112 838.846 271.344 838.638 270.576 838.306 269.999 837.849 269.61 837.392 269.222 836.749 269.028 835.921 269.028L833.618 269.028 828.054 294.338C827.933 294.907 827.847 295.39 827.795 295.787 827.743 296.184 827.718 296.71 827.718 297.365 827.718 298.159 827.92 298.72 828.326 299.048 828.731 299.375 829.365 299.565 830.228 299.617L829.866 301.325 816.124 301.325 816.486 299.617C817.245 299.513 817.849 299.289 818.298 298.944 818.746 298.599 819.121 298.086 819.423 297.404 819.725 296.723 820.032 295.701 820.342 294.338L825.906 269.028 823.836 269.028C822.887 269.028 822.119 269.17 821.533 269.455 820.946 269.74 820.29 270.335 819.566 271.241 818.841 272.146 818.142 273.341 817.47 274.825L814.079 274.825Z" fill="#E6CFD3" fill-rule="evenodd"/><text fill="#000000" fill-opacity="0" font-family="Arial,Arial_MSFontService,sans-serif" font-size="35.3247" x="814.079" y="296.909">𝑻</text><path d="M517.215 159.773 527.049 159.773 532.043 174.42C533.406 178.405 534.485 181.925 535.278 184.979L535.615 184.979C536.115 181.994 536.771 178.69 537.581 175.067L539.393 166.76C539.617 165.725 539.729 164.715 539.729 163.732 539.729 163.007 539.561 162.477 539.225 162.141 538.888 161.804 538.341 161.584 537.581 161.481L537.944 159.773 547.467 159.773 547.105 161.481C546.121 161.757 545.397 162.24 544.931 162.93 544.465 163.62 544.025 164.897 543.611 166.76L537.374 195.097 531.474 195.097 525.263 177.008C524.78 175.593 524.349 174.269 523.969 173.036 523.59 171.802 523.132 170.236 522.598 168.339L522.209 168.313C521.899 170.797 521.174 174.584 520.036 179.673L518.172 188.11C518.052 188.662 517.965 189.141 517.914 189.546 517.862 189.952 517.836 190.482 517.836 191.138 517.836 191.862 518.004 192.393 518.341 192.729 518.677 193.066 519.225 193.286 519.984 193.389L519.622 195.097 510.098 195.097 510.46 193.389C511.444 193.113 512.168 192.63 512.634 191.94 513.1 191.25 513.54 189.973 513.954 188.11L518.664 166.76C518.888 165.742 519 164.733 519 163.732 519 163.007 518.832 162.477 518.496 162.141 518.159 161.804 517.612 161.584 516.852 161.481Z" fill="#E6CFD3" fill-rule="evenodd"/><text fill="#000000" fill-opacity="0" font-family="Arial,Arial_MSFontService,sans-serif" font-size="35.3247" x="510.098" y="190.682">𝑵</text><path d="M0 0 1243.43 10.1733" stroke="#E6CFD3" stroke-width="8" stroke-miterlimit="8" stroke-dasharray="32 24" fill="none" fill-rule="evenodd" transform="matrix(1 0 0 -1 17 382.173)"/><path d="M732.992 344.191C732.543 346.037 732.22 347.788 732.021 349.445 731.823 351.101 731.724 352.567 731.724 353.844 731.724 355.362 731.952 356.492 732.41 357.234 732.867 357.976 733.587 358.347 734.571 358.347 736.296 358.347 737.922 357.131 739.449 354.698 740.976 352.265 742.282 348.763 743.369 344.191ZM742.541 327.033C740.781 327.033 739.138 328.207 737.611 330.553 736.084 332.899 734.778 336.358 733.691 340.93L744.068 340.93C744.448 339.188 744.745 337.583 744.961 336.117 745.177 334.65 745.284 333.288 745.284 332.028 745.284 330.234 745.073 328.953 744.65 328.185 744.228 327.417 743.525 327.033 742.541 327.033ZM742.593 324.342C745.768 324.342 748.14 325.252 749.71 327.072 751.28 328.892 752.065 331.623 752.065 335.263 752.065 337.816 751.646 340.823 750.81 344.282 749.973 347.741 748.791 350.743 747.264 353.288 745.737 355.832 743.896 357.76 741.739 359.072 739.582 360.383 737.15 361.038 734.441 361.038 731.284 361.038 728.912 360.133 727.324 358.321 725.737 356.51 724.944 353.861 724.944 350.376 724.944 347.823 725.353 344.804 726.173 341.319 726.992 337.834 728.161 334.806 729.679 332.235 731.198 329.664 733.035 327.706 735.192 326.361 737.348 325.015 739.815 324.342 742.593 324.342Z" fill="#E6CFD3" fill-rule="evenodd"/><text fill="#000000" fill-opacity="0" font-family="Arial,Arial_MSFontService,sans-serif" font-size="36.6963" x="724.944" y="356.451">𝜽</text><path d="M659.26 479.673C658.812 481.519 658.488 483.271 658.29 484.927 658.091 486.583 657.992 488.049 657.992 489.326 657.992 490.844 658.221 491.974 658.678 492.716 659.135 493.458 659.856 493.829 660.839 493.829 662.564 493.829 664.19 492.613 665.717 490.18 667.244 487.748 668.551 484.245 669.638 479.673ZM668.81 462.516C667.05 462.516 665.407 463.689 663.88 466.035 662.353 468.382 661.046 471.841 659.959 476.413L670.337 476.413C670.716 474.67 671.014 473.066 671.229 471.599 671.445 470.133 671.553 468.77 671.553 467.51 671.553 465.716 671.341 464.435 670.919 463.667 670.496 462.9 669.793 462.516 668.81 462.516ZM668.861 459.824C672.036 459.824 674.408 460.734 675.978 462.554 677.548 464.375 678.333 467.105 678.333 470.745 678.333 473.298 677.915 476.305 677.078 479.764 676.241 483.223 675.059 486.225 673.533 488.77 672.006 491.315 670.164 493.243 668.007 494.554 665.851 495.865 663.418 496.521 660.71 496.521 657.552 496.521 655.18 495.615 653.593 493.803 652.006 491.992 651.212 489.343 651.212 485.858 651.212 483.305 651.622 480.286 652.441 476.801 653.261 473.316 654.43 470.288 655.948 467.717 657.466 465.147 659.304 463.188 661.46 461.843 663.617 460.497 666.084 459.824 668.861 459.824Z" fill="#E6CFD3" fill-rule="evenodd"/><text fill="#000000" fill-opacity="0" font-family="Arial,Arial_MSFontService,sans-serif" font-size="36.6963" x="651.212" y="491.933">𝜽</text><path d="M29.4928 16.9034 137.644 111.344 128.874 121.387 20.7228 26.9466ZM16.9744 41.3747 0 0 43.2844 11.2453Z" fill="#E6CFD3" transform="matrix(1 0 0 -1 494.5 495.866)"/><path d="M749.346 522.385 623.473 377.879 633.527 369.121 759.4 513.628ZM765.075 499.843 776.267 543.141 734.913 526.116Z" fill="#E6CFD3"/><path d="M801.945 470.021C803.376 470.021 804.519 470.422 805.373 471.224 806.227 472.026 806.654 473.083 806.654 474.394 806.654 474.825 806.603 475.239 806.499 475.636L806.81 475.792C808.38 473.807 809.902 472.35 811.377 471.418 812.852 470.486 814.565 470.021 816.514 470.021 818.24 470.021 819.598 470.495 820.59 471.444 821.582 472.393 822.104 473.704 822.156 475.377 823.588 473.549 825.033 472.199 826.491 471.327 827.948 470.456 829.6 470.021 831.446 470.021 833.189 470.021 834.556 470.512 835.548 471.496 836.54 472.479 837.036 473.851 837.036 475.61 837.036 476.128 836.993 476.758 836.907 477.5 836.821 478.241 836.691 478.949 836.519 479.622L834.423 487.955C834.233 488.679 834.112 489.24 834.06 489.637 834.008 490.034 833.983 490.482 833.983 490.982 833.983 491.655 834.095 492.121 834.319 492.38 834.543 492.639 834.862 492.768 835.277 492.768 835.777 492.768 836.338 492.531 836.959 492.056 837.58 491.582 838.313 490.862 839.158 489.896L841.022 491.759C839.331 493.484 837.817 494.709 836.48 495.434 835.143 496.158 833.672 496.521 832.068 496.521 830.291 496.521 828.971 496.081 828.108 495.201 827.245 494.321 826.814 492.975 826.814 491.164 826.814 490.594 826.875 489.9 826.995 489.08 827.116 488.261 827.289 487.411 827.513 486.531L828.703 482.028C828.979 481.01 829.225 479.936 829.441 478.806 829.656 477.676 829.764 476.801 829.764 476.18 829.764 474.592 829.143 473.799 827.901 473.799 827.159 473.799 826.253 474.273 825.184 475.222 824.114 476.171 823.23 477.211 822.531 478.341 821.832 479.471 821.293 480.967 820.914 482.831L818.067 496.106 810.614 496.106 814.392 479.647C814.582 478.854 814.711 478.203 814.78 477.694 814.849 477.185 814.884 476.74 814.884 476.361 814.884 475.464 814.729 474.812 814.418 474.407 814.108 474.002 813.616 473.799 812.943 473.799 812.149 473.799 811.214 474.291 810.135 475.274 809.057 476.257 808.186 477.292 807.521 478.379 806.857 479.466 806.327 480.95 805.93 482.831L803.031 496.106 795.604 496.106 799.771 478.121C800.029 476.999 800.159 476.145 800.159 475.559 800.159 474.989 800.064 474.549 799.874 474.239 799.684 473.928 799.357 473.773 798.891 473.773 798.356 473.773 797.778 474.014 797.157 474.498 796.536 474.981 795.811 475.697 794.983 476.646L793.12 474.782C794.845 473.022 796.376 471.789 797.713 471.082 799.05 470.374 800.461 470.021 801.945 470.021Z" fill="#E6CFD3" fill-rule="evenodd"/><text fill="#000000" fill-opacity="0" font-family="Arial,Arial_MSFontService,sans-serif" font-size="26.5" x="793.12" y="493.208">𝒎</text><path d="M855.062 480.695 857.5 480.695C857.424 481.914 857.385 483.602 857.385 485.76L857.385 501.68C857.385 502.416 857.427 502.972 857.509 503.346 857.592 503.721 857.738 504.026 857.947 504.26 858.157 504.495 858.458 504.679 858.852 504.813 859.245 504.946 859.74 505.048 860.337 505.117 860.934 505.187 861.721 505.235 862.698 505.26L862.698 506.993 846.264 506.993 846.264 505.26C847.674 505.197 848.68 505.111 849.283 505.003 849.886 504.895 850.346 504.733 850.663 504.518 850.981 504.302 851.212 503.997 851.358 503.603 851.504 503.21 851.577 502.569 851.577 501.68L851.577 487.912C851.577 487.392 851.479 487.017 851.282 486.789 851.085 486.56 850.816 486.446 850.473 486.446 850.155 486.446 849.708 486.592 849.13 486.884 848.553 487.176 847.604 487.772 846.283 488.674L845.122 486.655Z" fill="#E6CFD3" fill-rule="evenodd"/><text fill="#000000" fill-opacity="0" font-family="Arial,Arial_MSFontService,sans-serif" font-size="26.2983" x="845.122" y="503.706">𝟏</text><path d="M888.921 472.712C887.369 472.712 885.971 473.488 884.729 475.041 883.487 476.594 882.473 478.75 881.688 481.511 880.903 484.271 880.511 486.756 880.511 488.964 880.511 490.223 880.696 491.164 881.067 491.785 881.438 492.406 882.012 492.716 882.788 492.716 883.53 492.716 884.28 492.479 885.04 492.005 885.799 491.53 886.597 490.797 887.433 489.805 888.27 488.813 888.973 487.618 889.542 486.221 890.112 484.823 890.621 483.063 891.069 480.941L891.276 479.984C891.552 478.707 891.69 477.465 891.69 476.257 891.69 475.067 891.475 474.178 891.043 473.592 890.612 473.005 889.905 472.712 888.921 472.712ZM888.663 470.021C889.888 470.021 891.013 470.154 892.04 470.422 893.066 470.689 894.114 471.176 895.184 471.884L897.513 470.021 900.412 470.435 898.186 480.553C897.824 482.209 897.496 483.797 897.203 485.315 896.271 490.042 895.624 493.191 895.262 494.761 894.623 497.435 893.968 499.453 893.295 500.816 892.588 502.248 891.673 503.469 890.552 504.478 889.43 505.488 888.024 506.251 886.333 506.769 884.401 507.372 882.055 507.674 879.294 507.674 875.637 507.674 872.894 507.187 871.065 506.212 869.236 505.237 868.322 503.775 868.322 501.826 868.322 500.756 868.701 499.747 869.46 498.798 870.22 497.849 871.341 496.943 872.825 496.081L875.516 498.254C875.05 498.824 874.727 499.359 874.546 499.859 874.365 500.359 874.274 500.903 874.274 501.489 874.274 502.662 874.684 503.538 875.503 504.116 876.323 504.694 877.552 504.983 879.191 504.983 881.831 504.983 883.918 503.995 885.454 502.02 886.989 500.044 888.3 496.434 889.387 491.189L889.051 490.957C887.533 492.889 886.075 494.299 884.677 495.188 883.28 496.076 881.606 496.521 879.657 496.521 877.724 496.521 876.211 495.813 875.115 494.398 874.019 492.984 873.472 490.939 873.472 488.265 873.472 485.902 873.817 483.568 874.507 481.265 875.197 478.962 876.176 476.982 877.444 475.326 878.712 473.669 880.291 472.371 882.18 471.431 884.069 470.491 886.23 470.021 888.663 470.021Z" fill="#E6CFD3" fill-rule="evenodd"/><text fill="#000000" fill-opacity="0" font-family="Arial,Arial_MSFontService,sans-serif" font-size="37.6538" x="868.322" y="502.968">𝒈</text><path d="M945.188 472.712C943.48 472.712 942.242 473.527 941.474 475.157 940.706 476.788 940.322 479.363 940.322 482.882 940.322 486.54 940.732 489.279 941.552 491.099 942.371 492.919 943.609 493.829 945.265 493.829 946.904 493.829 948.112 493.031 948.888 491.435 949.665 489.839 950.053 487.29 950.053 483.788 950.053 480.079 949.643 477.305 948.824 475.468 948.004 473.631 946.792 472.712 945.188 472.712ZM974.635 470.021C975.894 470.021 977.128 470.072 978.336 470.176 979.543 470.279 981.105 470.504 983.02 470.849L983.02 476.878 979.604 476.878C979.207 475.774 978.771 474.92 978.297 474.316 977.822 473.713 977.3 473.294 976.731 473.061 976.162 472.828 975.48 472.712 974.687 472.712 973.548 472.712 972.642 472.971 971.969 473.488 971.297 474.006 970.96 474.73 970.96 475.662 970.96 476.318 971.081 476.878 971.322 477.344 971.564 477.81 971.995 478.263 972.616 478.703 973.237 479.143 974.437 479.734 976.214 480.476 978.784 481.545 980.609 482.705 981.687 483.956 982.765 485.207 983.304 486.712 983.304 488.472 983.304 491.06 982.381 493.048 980.535 494.437 978.689 495.826 976.076 496.521 972.694 496.521 969.847 496.521 966.682 496.115 963.196 495.304L963.196 489.119 966.664 489.119C967.078 490.689 967.734 491.867 968.631 492.652 969.528 493.437 970.727 493.829 972.228 493.829 973.522 493.829 974.501 493.536 975.165 492.949 975.83 492.363 976.162 491.509 976.162 490.387 976.162 489.68 976.011 489.076 975.709 488.576 975.407 488.075 974.907 487.597 974.208 487.139 973.509 486.682 972.314 486.083 970.624 485.341 968.208 484.288 966.457 483.128 965.37 481.86 964.283 480.592 963.74 479.164 963.74 477.577 963.74 476.024 964.188 474.679 965.086 473.54 965.983 472.401 967.264 471.53 968.929 470.926 970.594 470.322 972.496 470.021 974.635 470.021ZM945.291 470.021C949.466 470.021 952.615 471.12 954.737 473.32 956.859 475.52 957.92 478.742 957.92 482.986 957.92 487.368 956.799 490.719 954.556 493.04 952.313 495.36 949.087 496.521 944.877 496.521 940.823 496.521 937.739 495.412 935.625 493.195 933.512 490.978 932.455 487.73 932.455 483.452 932.455 480.415 933.012 477.888 934.124 475.869 935.237 473.851 936.751 472.371 938.666 471.431 940.581 470.491 942.79 470.021 945.291 470.021ZM919.654 470.021C921.051 470.021 922.444 470.12 923.833 470.318 925.222 470.517 926.486 470.788 927.624 471.133L927.624 477.37 922.5 477.37C922.241 475.748 921.853 474.567 921.336 473.825 920.818 473.083 920.076 472.712 919.11 472.712 917.523 472.712 916.328 473.566 915.526 475.274 914.724 476.982 914.322 479.561 914.322 483.012 914.322 486.186 914.788 488.554 915.72 490.115 916.652 491.677 918.101 492.458 920.068 492.458 921.068 492.458 922.013 492.242 922.901 491.811 923.79 491.379 924.838 490.603 926.046 489.481L928.038 491.888C926.348 493.544 924.713 494.731 923.134 495.447 921.556 496.163 919.835 496.521 917.971 496.521 914.228 496.521 911.372 495.421 909.405 493.221 907.439 491.021 906.455 487.825 906.455 483.633 906.455 480.803 906.994 478.358 908.073 476.296 909.151 474.234 910.699 472.673 912.718 471.612 914.737 470.551 917.048 470.021 919.654 470.021Z" fill="#E6CFD3" fill-rule="evenodd"/><text fill="#000000" fill-opacity="0" font-family="Arial,Arial_MSFontService,sans-serif" font-size="26.5" x="906.455" y="493.208">𝐜𝐨𝐬</text><path d="M997.07 479.673C996.621 481.519 996.298 483.271 996.099 484.927 995.901 486.583 995.802 488.049 995.802 489.326 995.802 490.844 996.03 491.974 996.488 492.716 996.945 493.458 997.665 493.829 998.648 493.829 1000.37 493.829 1002 492.613 1003.53 490.18 1005.05 487.748 1006.36 484.245 1007.45 479.673ZM1006.62 462.516C1004.86 462.516 1003.22 463.689 1001.69 466.035 1000.16 468.382 998.855 471.841 997.769 476.413L1008.15 476.413C1008.53 474.67 1008.82 473.066 1009.04 471.599 1009.25 470.133 1009.36 468.77 1009.36 467.51 1009.36 465.716 1009.15 464.435 1008.73 463.667 1008.31 462.9 1007.6 462.516 1006.62 462.516ZM1006.67 459.824C1009.85 459.824 1012.22 460.734 1013.79 462.554 1015.36 464.375 1016.14 467.105 1016.14 470.745 1016.14 473.298 1015.72 476.305 1014.89 479.764 1014.05 483.223 1012.87 486.225 1011.34 488.77 1009.82 491.315 1007.97 493.243 1005.82 494.554 1003.66 495.865 1001.23 496.521 998.519 496.521 995.362 496.521 992.99 495.615 991.402 493.803 989.815 491.992 989.021 489.343 989.021 485.858 989.021 483.305 989.431 480.286 990.251 476.801 991.07 473.316 992.239 470.288 993.757 467.717 995.276 465.147 997.113 463.188 999.27 461.843 1001.43 460.497 1003.89 459.824 1006.67 459.824Z" fill="#E6CFD3" fill-rule="evenodd"/><text fill="#000000" fill-opacity="0" font-family="Arial,Arial_MSFontService,sans-serif" font-size="36.6963" x="989.021" y="491.933">𝜽</text></g></svg>