<svg width="1269" height="479" xmlns="http://www.w3.org/2000/svg" xmlns:xlink="http://www.w3.org/1999/xlink" overflow="hidden"><defs><clipPath id="clip0"><rect x="16" y="113" width="1269" height="479"/></clipPath></defs><g clip-path="url(#clip0)" transform="translate(-16 -113)"><path d="M0.0327256-3.99987 32.0317-3.73806 31.9662 4.26167-0.0327256 3.99987ZM56.0308-3.54171 88.0298-3.2799 87.9643 4.71983 55.9654 4.45802ZM112.029-3.08355 144.028-2.82174 143.962 5.17799 111.964 4.91618ZM168.027-2.62539 200.026-2.36358 199.961 5.63615 167.962 5.37434ZM224.025-2.16723 256.024-1.90543 255.959 6.09431 223.96 5.8325ZM280.023-1.70907 312.022-1.44727 311.957 6.55246 279.958 6.29066ZM336.021-1.25091 368.02-0.989109 367.955 7.01062 335.956 6.74882ZM392.02-0.792755 424.018-0.53095 423.953 7.46878 391.954 7.20698ZM448.018-0.334596 480.017-0.0727916 479.951 7.92694 447.952 7.66514ZM504.016 0.123562 536.015 0.385367 535.949 8.3851 503.95 8.12329ZM560.014 0.581721 592.013 0.843526 591.948 8.84326 559.949 8.58145ZM616.012 1.03988 648.011 1.30168 647.946 9.30142 615.947 9.03961ZM672.01 1.49804 704.009 1.75984 703.944 9.75957 671.945 9.49777ZM728.008 1.9562 760.007 2.218 759.942 10.2177 727.943 9.95593ZM784.007 2.41436 816.005 2.67616 815.94 10.6759 783.941 10.4141ZM840.005 2.87251 872.004 3.13432 871.938 11.1341 839.939 10.8722ZM896.003 3.33067 928.002 3.59248 927.936 11.5922 895.937 11.3304ZM952.001 3.78883 984 4.05064 983.934 12.0504 951.935 11.7886ZM1008 4.24699 1040 4.5088 1039.93 12.5085 1007.93 12.2467ZM1064 4.70515 1096 4.96695 1095.93 12.9667 1063.93 12.7049ZM1120 5.16331 1151.99 5.42511 1151.93 13.4248 1119.93 13.163ZM1175.99 5.62147 1207.99 5.88327 1207.93 13.883 1175.93 13.6212ZM1219.53-2.02262 1243.43 10.1733 1219.33 21.9766Z" fill="#E6CFD3" transform="matrix(1 0 0 -1 17 382.173)"/><path d="M1187.5 313.596 1191.17 313.596 1191.17 328.502 1205.28 328.502 1205.28 331.944 1191.17 331.944 1191.17 346.85 1187.5 346.85 1187.5 331.944 1173.39 331.944 1173.39 328.502 1187.5 328.502Z" fill="#E6CFD3" fill-rule="evenodd"/><text fill="#000000" fill-opacity="0" font-family="Arial,Arial_MSFontService,sans-serif" font-size="33.2544" x="1173.39" y="342.693">+</text><path d="M1221.3 319.289C1222.68 319.289 1223.73 319.496 1224.46 319.91 1225.18 320.324 1225.78 321.045 1226.24 322.071 1226.71 323.098 1227.15 324.741 1227.56 327.001L1227.82 327.001C1229.1 325.207 1230.09 323.857 1230.8 322.951 1231.51 322.045 1232.16 321.321 1232.77 320.777 1233.37 320.234 1233.96 319.85 1234.53 319.625 1235.09 319.401 1235.77 319.289 1236.54 319.289 1237.41 319.289 1238.28 319.444 1239.16 319.755L1237.94 325.345 1235.61 325.345C1235.53 324.62 1235.21 324.258 1234.65 324.258 1234.41 324.258 1234.16 324.318 1233.89 324.439 1233.62 324.56 1233.27 324.831 1232.83 325.254 1232.39 325.677 1231.84 326.289 1231.19 327.092 1230.53 327.894 1229.55 329.114 1228.24 330.753 1228.84 334.394 1229.34 337.003 1229.72 338.582 1230.11 340.16 1230.51 341.183 1230.93 341.648 1231.17 341.907 1231.46 342.037 1231.81 342.037 1232.24 342.037 1232.64 341.868 1233.01 341.532 1233.38 341.196 1233.86 340.441 1234.45 339.268L1236.8 340.354C1235.8 342.183 1234.67 343.546 1233.4 344.443 1232.13 345.34 1230.64 345.789 1228.94 345.789 1227.88 345.789 1227.04 345.655 1226.41 345.388 1225.78 345.121 1225.25 344.676 1224.81 344.055 1224.37 343.434 1223.98 342.559 1223.64 341.428 1223.31 340.298 1222.99 338.819 1222.7 336.99L1222.44 336.99C1220.97 339.095 1219.8 340.7 1218.92 341.804 1218.04 342.908 1217.29 343.736 1216.66 344.288 1216.03 344.84 1215.42 345.228 1214.84 345.453 1214.27 345.677 1213.57 345.789 1212.76 345.789 1212.38 345.789 1211.92 345.742 1211.38 345.647 1210.83 345.552 1210.42 345.453 1210.15 345.349L1211.36 339.733 1213.69 339.733C1213.71 340.096 1213.8 340.367 1213.96 340.549 1214.13 340.73 1214.34 340.82 1214.6 340.82 1214.91 340.82 1215.2 340.756 1215.47 340.626 1215.73 340.497 1216.1 340.208 1216.58 339.759 1217.05 339.311 1217.65 338.651 1218.38 337.78 1219.1 336.908 1220.33 335.377 1222.05 333.186 1221.69 331.15 1221.35 329.395 1221.03 327.92 1220.71 326.445 1220.42 325.375 1220.16 324.711 1219.9 324.046 1219.66 323.602 1219.43 323.378 1219.19 323.154 1218.93 323.042 1218.64 323.042 1218.29 323.042 1217.99 323.132 1217.73 323.313 1217.47 323.494 1217.2 323.788 1216.91 324.193 1216.63 324.599 1216.32 325.138 1216 325.811L1213.64 324.724C1214.64 322.895 1215.77 321.532 1217.02 320.635 1218.27 319.738 1219.7 319.289 1221.3 319.289Z" fill="#E6CFD3" fill-rule="evenodd"/><text fill="#000000" fill-opacity="0" font-family="Arial,Arial_MSFontService,sans-serif" font-size="26.5" x="1210.15" y="342.477">𝒙</text><rect x="536" y="318" width="135" height="129" stroke="#E6CFD3" stroke-width="8" stroke-miterlimit="8" fill="none"/><path d="M607 158 607 190 599 190 599 158ZM607 214 607 246 599 246 599 214ZM607 270 607 302 599 302 599 270ZM607 326 607 358 599 358 599 326ZM607 382 607 414 599 414 599 382ZM607 438 607 470 599 470 599 438ZM607 494 607 526 599 526 599 494ZM607 550 607 582 599 582 599 550ZM591 162 603 138 615 162Z" fill="#E6CFD3"/><path d="M652.873 155.96 656.548 155.96 656.548 170.866 670.652 170.866 670.652 174.308 656.548 174.308 656.548 189.214 652.873 189.214 652.873 174.308 638.769 174.308 638.769 170.866 652.873 170.866Z" fill="#E6CFD3" fill-rule="evenodd"/><text fill="#000000" fill-opacity="0" font-family="Arial,Arial_MSFontService,sans-serif" font-size="33.2544" x="638.769" y="185.057">+</text><path d="M684.658 161.653C685.987 161.653 687.061 161.847 687.88 162.235 688.7 162.624 689.351 163.158 689.834 163.84 690.317 164.521 690.705 165.388 690.998 166.441 691.24 167.269 691.525 168.727 691.852 170.814 692.387 174.213 692.844 177.551 693.224 180.829 695.139 178.086 696.61 175.412 697.636 172.807 698.663 170.202 699.176 167.873 699.176 165.82 699.176 165.164 699.021 164.668 698.71 164.332 698.4 163.995 697.856 163.81 697.08 163.775L697.442 162.067 704.74 162.067 705.646 163.775C705.301 164.966 704.766 166.406 704.041 168.097 702.972 170.581 701.531 173.368 699.72 176.456 698.081 179.234 696.295 182.011 694.363 184.789 692.103 188.032 690.136 190.65 688.462 192.643 686.789 194.636 685.34 196.107 684.115 197.056 683.149 197.78 682.226 198.293 681.346 198.595 680.466 198.897 679.534 199.048 678.551 199.048 677.274 199.048 676.066 198.858 674.928 198.479L676.222 192.63 678.939 192.63C678.956 193.355 679.064 193.89 679.262 194.235 679.461 194.58 679.819 194.752 680.336 194.752 680.75 194.752 681.139 194.679 681.501 194.532 681.863 194.386 682.32 194.097 682.872 193.665 683.425 193.234 684.119 192.531 684.956 191.556 685.792 190.581 686.737 189.404 687.789 188.024 687.444 185.919 687 183.439 686.457 180.584 685.913 177.728 685.383 175.132 684.865 172.794 684.348 170.456 683.968 168.873 683.727 168.045 683.485 167.217 683.252 166.626 683.028 166.273 682.803 165.919 682.596 165.686 682.407 165.574 682.217 165.462 682.018 165.406 681.811 165.406 681.38 165.406 680.983 165.582 680.621 165.936 680.259 166.29 679.784 167.036 679.198 168.175L676.843 167.088C677.843 165.276 678.982 163.918 680.259 163.012 681.535 162.106 683.002 161.653 684.658 161.653Z" fill="#E6CFD3" fill-rule="evenodd"/><text fill="#000000" fill-opacity="0" font-family="Arial,Arial_MSFontService,sans-serif" font-size="37.395" x="674.928" y="194.374">𝒚</text><path d="M610.167 235.833 610.167 382.741 596.833 382.741 596.833 235.833ZM583.5 242.5 603.5 202.5 623.5 242.5Z" fill="#E6CFD3"/><path d="M6.66669 33.3333 6.66677 131.482-6.66656 131.482-6.66664 33.3333ZM-20 40 0 0 20 40Z" fill="#E6CFD3" transform="matrix(1 0 0 -1 603.5 512.982)"/><path d="M533.537 241.575 562.056 241.575 560.012 250.943 556.699 250.943C556.682 249.028 556.57 247.687 556.363 246.919 556.156 246.151 555.824 245.573 555.366 245.185 554.909 244.797 554.266 244.603 553.438 244.603L551.135 244.603 545.571 269.912C545.45 270.482 545.364 270.965 545.312 271.362 545.261 271.758 545.235 272.285 545.235 272.94 545.235 273.734 545.437 274.295 545.843 274.622 546.248 274.95 546.882 275.14 547.745 275.192L547.383 276.9 533.641 276.9 534.003 275.192C534.762 275.088 535.366 274.864 535.815 274.519 536.263 274.174 536.639 273.661 536.941 272.979 537.242 272.298 537.549 271.275 537.859 269.912L543.423 244.603 541.353 244.603C540.404 244.603 539.636 244.745 539.05 245.03 538.463 245.315 537.807 245.91 537.083 246.816 536.358 247.721 535.66 248.916 534.987 250.4L531.597 250.4Z" fill="#E6CFD3" fill-rule="evenodd"/><text fill="#000000" fill-opacity="0" font-family="Arial,Arial_MSFontService,sans-serif" font-size="35.3247" x="531.597" y="272.484">𝑻</text><path d="M471.988 476.357C473.42 476.357 474.563 476.759 475.417 477.561 476.271 478.363 476.698 479.42 476.698 480.731 476.698 481.162 476.646 481.576 476.543 481.973L476.854 482.128C478.423 480.144 479.946 478.687 481.421 477.755 482.896 476.823 484.609 476.357 486.558 476.357 488.283 476.357 489.642 476.832 490.634 477.781 491.626 478.73 492.148 480.041 492.2 481.714 493.632 479.886 495.077 478.536 496.534 477.664 497.992 476.793 499.644 476.357 501.49 476.357 503.233 476.357 504.6 476.849 505.592 477.833 506.584 478.816 507.08 480.188 507.08 481.947 507.08 482.465 507.037 483.095 506.951 483.836 506.864 484.578 506.735 485.286 506.562 485.958L504.466 494.292C504.277 495.016 504.156 495.577 504.104 495.974 504.052 496.37 504.026 496.819 504.026 497.319 504.026 497.992 504.139 498.458 504.363 498.717 504.587 498.976 504.906 499.105 505.32 499.105 505.821 499.105 506.381 498.868 507.002 498.393 507.624 497.919 508.357 497.199 509.202 496.232L511.065 498.096C509.375 499.821 507.861 501.046 506.524 501.771 505.187 502.495 503.716 502.857 502.111 502.857 500.334 502.857 499.014 502.417 498.152 501.538 497.289 500.658 496.858 499.312 496.858 497.5 496.858 496.931 496.918 496.237 497.039 495.417 497.16 494.598 497.332 493.748 497.557 492.868L498.747 488.365C499.023 487.347 499.269 486.273 499.485 485.143 499.7 484.013 499.808 483.138 499.808 482.517 499.808 480.929 499.187 480.136 497.945 480.136 497.203 480.136 496.297 480.61 495.228 481.559 494.158 482.508 493.274 483.547 492.575 484.677 491.876 485.808 491.337 487.304 490.958 489.167L488.111 502.443 480.658 502.443 484.436 485.984C484.626 485.191 484.755 484.539 484.824 484.031 484.893 483.522 484.928 483.077 484.928 482.698 484.928 481.801 484.772 481.149 484.462 480.744 484.151 480.338 483.66 480.136 482.987 480.136 482.193 480.136 481.257 480.627 480.179 481.611 479.101 482.594 478.229 483.629 477.565 484.716 476.901 485.803 476.37 487.287 475.974 489.167L473.075 502.443 465.648 502.443 469.814 484.458C470.073 483.336 470.203 482.482 470.203 481.896 470.203 481.326 470.108 480.886 469.918 480.576 469.728 480.265 469.4 480.11 468.935 480.11 468.4 480.11 467.822 480.351 467.201 480.834 466.58 481.318 465.855 482.034 465.027 482.982L463.164 481.119C464.889 479.359 466.42 478.126 467.757 477.418 469.094 476.711 470.505 476.357 471.988 476.357Z" fill="#E6CFD3" fill-rule="evenodd"/><text fill="#000000" fill-opacity="0" font-family="Arial,Arial_MSFontService,sans-serif" font-size="26.5" x="463.164" y="499.545">𝒎</text><path d="M523.621 487.032C525.487 487.032 527.01 487.282 528.191 487.784 529.372 488.285 530.225 488.965 530.752 489.821 531.279 490.678 531.542 491.678 531.542 492.821 531.542 493.824 531.355 494.757 530.981 495.62 530.606 496.483 529.959 497.467 529.038 498.572 528.118 499.676 526.566 501.257 524.382 503.313 523.709 503.948 522.906 504.783 521.973 505.818 521.04 506.852 520.301 507.738 519.755 508.474L519.755 508.664 526.515 508.664C527.34 508.664 527.956 508.604 528.362 508.484 528.769 508.363 529.089 508.154 529.324 507.855 529.559 507.557 529.752 507.109 529.905 506.513L532.095 506.513 531.657 513.33 514.213 513.33 514.213 512.073C515.191 509.826 517.19 506.932 520.212 503.39 521.583 501.777 522.627 500.451 523.344 499.41 524.062 498.369 524.598 497.385 524.954 496.458 525.309 495.531 525.487 494.573 525.487 493.582 525.487 492.186 525.176 491.091 524.554 490.298 523.932 489.504 523.081 489.107 522.002 489.107 519.933 489.107 518.606 490.599 518.022 493.582L514.594 493.582 514.594 489.088C516.664 488.25 518.333 487.698 519.603 487.432 520.872 487.165 522.211 487.032 523.621 487.032Z" fill="#E6CFD3" fill-rule="evenodd"/><text fill="#000000" fill-opacity="0" font-family="Arial,Arial_MSFontService,sans-serif" font-size="26.2983" x="514.213" y="510.043">𝟐</text><path d="M558.965 479.049C557.412 479.049 556.015 479.825 554.773 481.378 553.531 482.931 552.517 485.087 551.732 487.848 550.947 490.608 550.554 493.092 550.554 495.301 550.554 496.56 550.74 497.5 551.111 498.122 551.482 498.743 552.055 499.053 552.832 499.053 553.574 499.053 554.324 498.816 555.083 498.342 555.842 497.867 556.64 497.134 557.477 496.142 558.314 495.15 559.017 493.955 559.586 492.558 560.156 491.16 560.664 489.4 561.113 487.278L561.32 486.321C561.596 485.044 561.734 483.802 561.734 482.594 561.734 481.404 561.518 480.515 561.087 479.929 560.656 479.342 559.948 479.049 558.965 479.049ZM558.706 476.357C559.931 476.357 561.057 476.491 562.083 476.759 563.11 477.026 564.158 477.513 565.228 478.221L567.557 476.357 570.455 476.771 568.23 486.89C567.867 488.546 567.54 490.134 567.246 491.652 566.315 496.379 565.668 499.528 565.305 501.098 564.667 503.772 564.011 505.79 563.339 507.153 562.631 508.585 561.717 509.806 560.595 510.815 559.474 511.824 558.068 512.588 556.377 513.105 554.445 513.709 552.099 514.011 549.338 514.011 545.681 514.011 542.937 513.524 541.109 512.549 539.28 511.574 538.365 510.112 538.365 508.163 538.365 507.093 538.745 506.084 539.504 505.135 540.263 504.186 541.385 503.28 542.868 502.417L545.56 504.591C545.094 505.161 544.771 505.695 544.589 506.196 544.408 506.696 544.318 507.24 544.318 507.826 544.318 508.999 544.727 509.875 545.547 510.453 546.366 511.031 547.596 511.32 549.235 511.32 551.874 511.32 553.962 510.332 555.497 508.357 557.033 506.381 558.344 502.771 559.431 497.526L559.094 497.293C557.576 499.226 556.118 500.636 554.721 501.525 553.323 502.413 551.65 502.857 549.7 502.857 547.768 502.857 546.254 502.15 545.159 500.735 544.063 499.321 543.515 497.276 543.515 494.602 543.515 492.238 543.86 489.905 544.551 487.602 545.241 485.299 546.22 483.319 547.488 481.663 548.756 480.006 550.334 478.708 552.224 477.768 554.113 476.828 556.274 476.357 558.706 476.357Z" fill="#E6CFD3" fill-rule="evenodd"/><text fill="#000000" fill-opacity="0" font-family="Arial,Arial_MSFontService,sans-serif" font-size="37.6538" x="538.365" y="509.305">𝒈</text></g></svg>