<svg width="1115" height="403" xmlns="http://www.w3.org/2000/svg" xmlns:xlink="http://www.w3.org/1999/xlink" overflow="hidden"><defs><clipPath id="clip0"><rect x="79" y="186" width="1115" height="403"/></clipPath></defs><g clip-path="url(#clip0)" transform="translate(-79 -186)"><path d="M0 292 0 0 349 292Z" stroke="#E6CFD3" stroke-width="8" stroke-miterlimit="8" fill="none" fill-rule="evenodd" transform="matrix(-1 0 0 1 768 292)"/><path d="M79 584 1189.26 584" stroke="#E6CFD3" stroke-width="8" stroke-miterlimit="8" fill="none" fill-rule="evenodd"/><path d="M448.398 393.327 551.84 306.215 634.435 404.293 530.992 491.405Z" stroke="#E6CFD3" stroke-width="8" stroke-miterlimit="8" fill="none" fill-rule="evenodd"/><rect x="785" y="376" width="98" height="89" stroke="#E6CFD3" stroke-width="8" stroke-miterlimit="8" fill="none"/><path d="M763 224C763 205.775 778.894 191 798.5 191 818.106 191 834 205.775 834 224 834 242.225 818.106 257 798.5 257 778.894 257 763 242.225 763 224Z" stroke="#E6CFD3" stroke-width="8" stroke-miterlimit="8" fill="none" fill-rule="evenodd"/><path d="M0 0 179.919 154.821" stroke="#E6CFD3" stroke-width="8" stroke-miterlimit="8" fill="none" fill-rule="evenodd" transform="matrix(1 0 0 -1 593 354.821)"/><path d="M0 0 0.000104987 152.07" stroke="#E6CFD3" stroke-width="8" stroke-miterlimit="8" fill="none" fill-rule="evenodd" transform="matrix(1 0 0 -1 834 376.07)"/><path d="M0 0 20.2248 38.076" stroke="#E6CFD3" stroke-width="8" stroke-miterlimit="8" fill="none" fill-rule="evenodd" transform="matrix(1 0 0 -1 768 292.076)"/><path d="M512.45 379.978C513.882 379.978 515.025 380.379 515.879 381.181 516.733 381.983 517.16 383.04 517.16 384.351 517.16 384.782 517.108 385.196 517.005 385.593L517.315 385.749C518.885 383.765 520.408 382.307 521.883 381.375 523.358 380.443 525.07 379.978 527.02 379.978 528.745 379.978 530.104 380.452 531.096 381.401 532.088 382.35 532.61 383.661 532.661 385.335 534.093 383.506 535.538 382.156 536.996 381.284 538.454 380.413 540.106 379.978 541.952 379.978 543.694 379.978 545.062 380.469 546.054 381.453 547.046 382.436 547.542 383.808 547.542 385.567 547.542 386.085 547.499 386.715 547.412 387.457 547.326 388.198 547.197 388.906 547.024 389.579L544.928 397.912C544.738 398.636 544.617 399.197 544.566 399.594 544.514 399.991 544.488 400.439 544.488 400.939 544.488 401.612 544.6 402.078 544.824 402.337 545.049 402.596 545.368 402.725 545.782 402.725 546.282 402.725 546.843 402.488 547.464 402.013 548.085 401.539 548.818 400.819 549.664 399.853L551.527 401.716C549.836 403.441 548.322 404.666 546.985 405.391 545.648 406.115 544.177 406.478 542.573 406.478 540.796 406.478 539.476 406.038 538.614 405.158 537.751 404.278 537.32 402.932 537.32 401.121 537.32 400.551 537.38 399.857 537.501 399.037 537.622 398.218 537.794 397.368 538.018 396.488L539.209 391.985C539.485 390.967 539.731 389.893 539.946 388.763 540.162 387.633 540.27 386.758 540.27 386.137 540.27 384.549 539.649 383.756 538.406 383.756 537.665 383.756 536.759 384.23 535.689 385.179 534.62 386.128 533.735 387.168 533.037 388.298 532.338 389.428 531.799 390.924 531.419 392.788L528.573 406.064 521.119 406.064 524.898 389.605C525.087 388.811 525.217 388.16 525.286 387.651 525.355 387.142 525.389 386.697 525.389 386.318 525.389 385.421 525.234 384.769 524.924 384.364 524.613 383.959 524.121 383.756 523.448 383.756 522.655 383.756 521.719 384.248 520.641 385.231 519.562 386.214 518.691 387.25 518.027 388.336 517.363 389.423 516.832 390.907 516.435 392.788L513.537 406.064 506.11 406.064 510.276 388.078C510.535 386.956 510.664 386.102 510.664 385.516 510.664 384.946 510.569 384.506 510.38 384.196 510.19 383.885 509.862 383.73 509.396 383.73 508.861 383.73 508.283 383.972 507.662 384.455 507.041 384.938 506.317 385.654 505.489 386.603L503.625 384.739C505.35 382.98 506.882 381.746 508.219 381.039 509.556 380.331 510.966 379.978 512.45 379.978Z" fill="#E6CFD3" fill-rule="evenodd"/><text fill="#000000" fill-opacity="0" font-family="Arial,Arial_MSFontService,sans-serif" font-size="26.5" x="503.625" y="403.165">𝒎</text><path d="M565.568 390.652 568.005 390.652C567.929 391.871 567.891 393.559 567.891 395.717L567.891 411.637C567.891 412.374 567.932 412.929 568.015 413.303 568.097 413.678 568.243 413.983 568.453 414.218 568.662 414.452 568.964 414.636 569.357 414.77 569.751 414.903 570.246 415.005 570.843 415.074 571.439 415.144 572.226 415.192 573.204 415.217L573.204 416.95 556.77 416.95 556.77 415.217C558.179 415.154 559.185 415.068 559.788 414.96 560.391 414.852 560.851 414.69 561.169 414.475 561.486 414.259 561.718 413.954 561.864 413.561 562.01 413.167 562.083 412.526 562.083 411.637L562.083 397.869C562.083 397.349 561.984 396.974 561.788 396.746 561.591 396.517 561.321 396.403 560.978 396.403 560.661 396.403 560.213 396.549 559.636 396.841 559.058 397.133 558.109 397.729 556.789 398.631L555.627 396.612Z" fill="#E6CFD3" fill-rule="evenodd"/><text fill="#000000" fill-opacity="0" font-family="Arial,Arial_MSFontService,sans-serif" font-size="26.2983" x="555.627" y="413.663">𝟏</text><path d="M806.673 403.093C808.105 403.093 809.248 403.494 810.102 404.296 810.956 405.099 811.383 406.155 811.383 407.466 811.383 407.898 811.331 408.312 811.228 408.709L811.538 408.864C813.108 406.88 814.631 405.422 816.106 404.49 817.581 403.559 819.293 403.093 821.243 403.093 822.968 403.093 824.327 403.567 825.319 404.516 826.311 405.465 826.833 406.776 826.885 408.45 828.317 406.621 829.761 405.271 831.219 404.4 832.677 403.529 834.329 403.093 836.175 403.093 837.918 403.093 839.285 403.585 840.277 404.568 841.269 405.551 841.765 406.923 841.765 408.683 841.765 409.2 841.722 409.83 841.636 410.572 841.549 411.314 841.42 412.021 841.247 412.694L839.151 421.027C838.961 421.752 838.841 422.312 838.789 422.709 838.737 423.106 838.711 423.555 838.711 424.055 838.711 424.728 838.823 425.194 839.048 425.452 839.272 425.711 839.591 425.841 840.005 425.841 840.505 425.841 841.066 425.603 841.687 425.129 842.308 424.654 843.042 423.934 843.887 422.968L845.75 424.831C844.06 426.556 842.546 427.781 841.209 428.506 839.871 429.231 838.401 429.593 836.796 429.593 835.019 429.593 833.699 429.153 832.837 428.273 831.974 427.393 831.543 426.048 831.543 424.236 831.543 423.667 831.603 422.972 831.724 422.153 831.845 421.333 832.017 420.484 832.242 419.604L833.432 415.101C833.708 414.083 833.954 413.009 834.169 411.879 834.385 410.749 834.493 409.873 834.493 409.252 834.493 407.665 833.872 406.871 832.63 406.871 831.888 406.871 830.982 407.346 829.912 408.295 828.843 409.243 827.959 410.283 827.26 411.413 826.561 412.543 826.022 414.04 825.642 415.903L822.796 429.179 815.343 429.179 819.121 412.72C819.311 411.926 819.44 411.275 819.509 410.766 819.578 410.257 819.613 409.813 819.613 409.433 819.613 408.536 819.457 407.885 819.147 407.479 818.836 407.074 818.345 406.871 817.672 406.871 816.878 406.871 815.942 407.363 814.864 408.346 813.786 409.33 812.914 410.365 812.25 411.452 811.586 412.539 811.055 414.022 810.659 415.903L807.76 429.179 800.333 429.179 804.499 411.193C804.758 410.072 804.888 409.218 804.888 408.631 804.888 408.062 804.793 407.622 804.603 407.311 804.413 407.001 804.085 406.845 803.619 406.845 803.085 406.845 802.507 407.087 801.886 407.57 801.264 408.053 800.54 408.769 799.712 409.718L797.848 407.855C799.574 406.095 801.105 404.861 802.442 404.154 803.779 403.447 805.189 403.093 806.673 403.093Z" fill="#E6CFD3" fill-rule="evenodd"/><text fill="#000000" fill-opacity="0" font-family="Arial,Arial_MSFontService,sans-serif" font-size="26.5" x="797.848" y="426.28">𝒎</text><path d="M858.305 413.767C860.172 413.767 861.695 414.018 862.876 414.519 864.056 415.021 864.91 415.7 865.437 416.557 865.964 417.414 866.227 418.414 866.227 419.556 866.227 420.559 866.04 421.492 865.666 422.356 865.291 423.219 864.644 424.203 863.723 425.307 862.803 426.412 861.251 427.992 859.067 430.049 858.394 430.684 857.591 431.518 856.658 432.553 855.725 433.588 854.986 434.473 854.44 435.21L854.44 435.4 861.2 435.4C862.025 435.4 862.641 435.34 863.047 435.219 863.453 435.099 863.774 434.889 864.009 434.591 864.244 434.292 864.437 433.845 864.59 433.248L866.78 433.248 866.342 440.066 848.898 440.066 848.898 438.809C849.876 436.562 851.875 433.667 854.897 430.125 856.268 428.513 857.312 427.186 858.029 426.145 858.747 425.104 859.283 424.12 859.638 423.193 859.994 422.267 860.172 421.308 860.172 420.318 860.172 418.922 859.861 417.827 859.239 417.033 858.617 416.24 857.766 415.843 856.687 415.843 854.617 415.843 853.291 417.335 852.707 420.318L849.279 420.318 849.279 415.824C851.348 414.986 853.018 414.434 854.287 414.167 855.557 413.901 856.896 413.767 858.305 413.767Z" fill="#E6CFD3" fill-rule="evenodd"/><text fill="#000000" fill-opacity="0" font-family="Arial,Arial_MSFontService,sans-serif" font-size="26.2983" x="848.898" y="436.778">𝟐</text><path d="M599.121 454.154 606.497 454.154 603.262 468.154C602.986 469.345 602.749 470.449 602.55 471.467 602.352 472.485 602.253 473.33 602.253 474.003 602.253 474.762 602.399 475.34 602.693 475.737 602.986 476.134 603.478 476.332 604.168 476.332 605.082 476.332 606.027 475.901 607.002 475.038 607.976 474.176 608.822 473.179 609.538 472.049 610.254 470.919 610.767 469.63 611.077 468.18L614.183 454.154 621.662 454.154 617.47 471.752C617.211 472.839 617.081 473.822 617.081 474.702 617.081 475.271 617.176 475.711 617.366 476.022 617.556 476.332 617.884 476.487 618.349 476.487 618.833 476.487 619.367 476.272 619.954 475.84 620.541 475.409 621.231 474.754 622.024 473.874L623.888 475.737C622.283 477.341 620.817 478.493 619.488 479.192 618.16 479.891 616.805 480.24 615.425 480.24 613.924 480.24 612.742 479.843 611.88 479.049 611.017 478.256 610.586 477.195 610.586 475.866 610.586 475.314 610.638 474.9 610.741 474.624L610.379 474.572C608.895 476.384 607.51 477.73 606.225 478.61 604.94 479.489 603.676 479.929 602.434 479.929 601.123 479.929 600.019 479.55 599.121 478.791L598.914 478.868C598.725 480.835 598.63 482.819 598.63 484.82 598.63 485.856 598.656 486.779 598.707 487.59L598.19 490.203 592.522 490.203 591.202 488.444C591.479 487.581 591.849 486.252 592.315 484.458 592.781 482.664 593.161 481.085 593.454 479.722Z" fill="#E6CFD3" fill-rule="evenodd"/><text fill="#000000" fill-opacity="0" font-family="Arial,Arial_MSFontService,sans-serif" font-size="36.0493" x="591.202" y="485.697">𝝁</text><path d="M635.712 463.443 637.863 463.443 634.321 479.477 634.702 479.477C635.159 479.477 635.591 479.395 635.997 479.23 636.492 479.026 637.102 478.665 637.825 478.144 638.803 477.421 639.495 476.856 639.901 476.449 640.307 476.043 640.59 475.659 640.748 475.297 640.907 474.935 640.986 474.564 640.986 474.183 640.986 473.891 640.907 473.644 640.748 473.441 640.59 473.237 640.307 473.117 639.901 473.079L640.206 471.822 646.985 471.822 647.461 473.06C646.674 473.923 645.614 474.862 644.281 475.878L639.996 479.096 641.958 486.047C642.186 486.872 642.399 487.431 642.596 487.723 642.792 488.015 643.068 488.161 643.424 488.161 643.754 488.161 644.129 487.993 644.547 487.656 644.966 487.32 645.462 486.815 646.033 486.142L647.404 487.513C646.223 488.783 645.157 489.684 644.205 490.217 643.253 490.751 642.275 491.017 641.272 491.017 640.015 491.017 639.038 490.719 638.339 490.122 637.641 489.525 637.133 488.504 636.816 487.056L635.807 482.486C635.743 482.181 635.661 481.94 635.559 481.762 635.458 481.585 635.324 481.458 635.159 481.381 634.994 481.305 634.747 481.267 634.417 481.267L633.941 481.267 631.865 490.712 626.4 490.712 631.217 469.194C631.497 467.95 631.636 467.042 631.636 466.471 631.636 466.191 631.608 465.973 631.551 465.814 631.494 465.655 631.408 465.525 631.294 465.423 631.179 465.322 631.027 465.243 630.837 465.185 630.646 465.128 630.272 465.062 629.713 464.985L630.018 463.748Z" fill="#E6CFD3" fill-rule="evenodd"/><text fill="#000000" fill-opacity="0" font-family="Arial,Arial_MSFontService,sans-serif" font-size="27.5742" x="626.4" y="487.57">𝒌</text><path d="M523.191 540.655C522.743 542.501 522.419 544.252 522.221 545.909 522.022 547.565 521.923 549.031 521.923 550.308 521.923 551.826 522.152 552.956 522.609 553.698 523.066 554.44 523.786 554.811 524.77 554.811 526.495 554.811 528.121 553.595 529.648 551.162 531.175 548.729 532.482 545.227 533.569 540.655ZM532.74 523.497C530.981 523.497 529.337 524.671 527.81 527.017 526.284 529.363 524.977 532.823 523.89 537.394L534.267 537.394C534.647 535.652 534.944 534.047 535.16 532.581 535.376 531.115 535.484 529.752 535.484 528.492 535.484 526.698 535.272 525.417 534.85 524.649 534.427 523.881 533.724 523.497 532.74 523.497ZM532.792 520.806C535.967 520.806 538.339 521.716 539.909 523.536 541.479 525.356 542.264 528.087 542.264 531.727 542.264 534.28 541.845 537.287 541.009 540.746 540.172 544.205 538.99 547.207 537.463 549.752 535.936 552.296 534.095 554.224 531.938 555.536 529.782 556.847 527.349 557.502 524.64 557.502 521.483 557.502 519.111 556.597 517.524 554.785 515.936 552.974 515.143 550.325 515.143 546.84 515.143 544.287 515.552 541.268 516.372 537.783 517.192 534.298 518.36 531.27 519.879 528.699 521.397 526.129 523.234 524.17 525.391 522.825 527.547 521.479 530.015 520.806 532.792 520.806Z" fill="#E6CFD3" fill-rule="evenodd"/><text fill="#000000" fill-opacity="0" font-family="Arial,Arial_MSFontService,sans-serif" font-size="36.6963" x="515.143" y="552.915">𝜽</text><path d="M868 293 868 348.141 860 348.141 860 293ZM852 297 864 273 876 297Z" fill="#E6CFD3"/><path d="M17.8351 9.89484 61.5641 47.0207 56.3865 53.1192 12.6575 15.9934ZM10.5291 24.6807 0 0 26.062 6.38512Z" fill="#E6CFD3" transform="matrix(1 0 0 -1 402 504.07)"/><path d="M407.282 433.36C405.677 433.36 404.254 434.166 403.012 435.779 401.77 437.393 400.769 439.562 400.01 442.288 399.251 445.014 398.871 447.455 398.871 449.612 398.871 450.871 399.057 451.811 399.428 452.432 399.798 453.054 400.372 453.364 401.148 453.364 402.287 453.364 403.447 452.808 404.629 451.695 405.811 450.582 406.764 449.275 407.489 447.774 408.213 446.273 408.86 444.22 409.43 441.615L409.637 440.658C409.913 439.381 410.051 438.104 410.051 436.827 410.051 435.689 409.835 434.826 409.404 434.24 408.973 433.653 408.265 433.36 407.282 433.36ZM406.971 430.668C409.542 430.668 411.733 431.289 413.544 432.532L416.055 430.668 418.953 431.082 414.761 448.68C414.502 449.767 414.373 450.75 414.373 451.63 414.373 452.2 414.467 452.639 414.657 452.95 414.847 453.261 415.175 453.416 415.641 453.416 416.176 453.416 416.753 453.174 417.375 452.691 417.996 452.208 418.72 451.492 419.548 450.543L421.412 452.407C419.6 454.218 418.039 455.465 416.728 456.146 415.416 456.828 414.036 457.168 412.587 457.168 411.138 457.168 409.99 456.767 409.145 455.965 408.3 455.163 407.877 454.106 407.877 452.795 407.877 452.363 407.929 451.949 408.032 451.553L407.67 451.501C406.411 452.985 405.328 454.102 404.422 454.852 403.516 455.603 402.555 456.176 401.537 456.573 400.519 456.97 399.389 457.168 398.147 457.168 396.076 457.168 394.506 456.465 393.437 455.059 392.367 453.653 391.832 451.604 391.832 448.913 391.832 446.584 392.169 444.272 392.841 441.977 393.514 439.683 394.48 437.703 395.74 436.038 396.999 434.373 398.582 433.062 400.489 432.105 402.395 431.147 404.556 430.668 406.971 430.668Z" fill="#E6CFD3" fill-rule="evenodd"/><text fill="#000000" fill-opacity="0" font-family="Arial,Arial_MSFontService,sans-serif" font-size="26.5" x="391.832" y="453.856">𝒂</text><path d="M905.722 301.137C904.117 301.137 902.694 301.944 901.452 303.557 900.21 305.17 899.209 307.339 898.45 310.065 897.691 312.791 897.311 315.232 897.311 317.389 897.311 318.648 897.497 319.589 897.868 320.21 898.238 320.831 898.812 321.142 899.589 321.142 900.727 321.142 901.887 320.585 903.069 319.472 904.251 318.36 905.204 317.053 905.929 315.552 906.653 314.051 907.3 311.998 907.87 309.392L908.077 308.435C908.353 307.158 908.491 305.882 908.491 304.605 908.491 303.466 908.275 302.604 907.844 302.017 907.413 301.43 906.705 301.137 905.722 301.137ZM905.411 298.446C907.982 298.446 910.173 299.067 911.984 300.309L914.495 298.446 917.393 298.86 913.201 316.457C912.942 317.544 912.813 318.528 912.813 319.408 912.813 319.977 912.908 320.417 913.097 320.727 913.287 321.038 913.615 321.193 914.081 321.193 914.616 321.193 915.193 320.952 915.815 320.469 916.436 319.986 917.16 319.27 917.988 318.321L919.852 320.184C918.04 321.996 916.479 323.242 915.168 323.923 913.856 324.605 912.476 324.946 911.027 324.946 909.578 324.946 908.43 324.545 907.585 323.742 906.74 322.94 906.317 321.883 906.317 320.572 906.317 320.141 906.369 319.727 906.472 319.33L906.11 319.278C904.851 320.762 903.768 321.879 902.862 322.63 901.956 323.38 900.995 323.954 899.977 324.35 898.959 324.747 897.829 324.946 896.587 324.946 894.516 324.946 892.946 324.243 891.877 322.837 890.807 321.43 890.272 319.382 890.272 316.69 890.272 314.361 890.609 312.049 891.281 309.755 891.954 307.46 892.92 305.48 894.18 303.816 895.439 302.151 897.022 300.84 898.929 299.882 900.835 298.924 902.996 298.446 905.411 298.446Z" fill="#E6CFD3" fill-rule="evenodd"/><text fill="#000000" fill-opacity="0" font-family="Arial,Arial_MSFontService,sans-serif" font-size="26.5" x="890.272" y="321.633">𝒂</text></g></svg>