<svg width="1269" height="761" xmlns="http://www.w3.org/2000/svg" xmlns:xlink="http://www.w3.org/1999/xlink" overflow="hidden"><defs><clipPath id="clip0"><rect x="6" y="-5" width="1269" height="761"/></clipPath></defs><g clip-path="url(#clip0)" transform="translate(-6 5)"><path d="M529 80 636.13 80.5465" stroke="#E6CFD3" stroke-width="8" stroke-miterlimit="8" fill="none" fill-rule="evenodd"/><path d="M0 0 3.47832 378.783" stroke="#E6CFD3" stroke-width="8" stroke-miterlimit="8" fill="none" fill-rule="evenodd" transform="matrix(1 0 0 -1 582 458.783)"/><path d="M529 512C529 482.729 552.953 459 582.5 459 612.047 459 636 482.729 636 512 636 541.271 612.047 565 582.5 565 552.953 565 529 541.271 529 512Z" stroke="#E6CFD3" stroke-width="8" stroke-miterlimit="8" fill="none" fill-rule="evenodd"/><path d="M0 0 211.863 252.451" stroke="#E6CFD3" stroke-width="8" stroke-miterlimit="8" stroke-dasharray="32 24" fill="none" fill-rule="evenodd" transform="matrix(1 0 0 -1 374 332.451)"/><path d="M282 369.5C282 340.505 305.953 317 335.5 317 365.047 317 389 340.505 389 369.5 389 398.495 365.047 422 335.5 422 305.953 422 282 398.495 282 369.5Z" stroke="#E6CFD3" stroke-width="8" stroke-miterlimit="8" stroke-dasharray="32 24" fill="none" fill-rule="evenodd"/><path d="M553.545 154.957C553.097 156.803 552.773 158.554 552.575 160.21 552.376 161.866 552.277 163.333 552.277 164.61 552.277 166.128 552.506 167.258 552.963 168 553.42 168.742 554.141 169.113 555.124 169.113 556.849 169.113 558.475 167.896 560.002 165.464 561.529 163.031 562.836 159.529 563.923 154.957ZM563.095 137.799C561.335 137.799 559.692 138.972 558.165 141.319 556.638 143.665 555.331 147.124 554.244 151.696L564.621 151.696C565.001 149.954 565.299 148.349 565.514 146.883 565.73 145.416 565.838 144.053 565.838 142.794 565.838 140.999 565.626 139.718 565.204 138.951 564.781 138.183 564.078 137.799 563.095 137.799ZM563.146 135.108C566.321 135.108 568.693 136.018 570.263 137.838 571.833 139.658 572.618 142.388 572.618 146.029 572.618 148.582 572.2 151.588 571.363 155.047 570.526 158.507 569.344 161.508 567.818 164.053 566.291 166.598 564.449 168.526 562.292 169.837 560.136 171.148 557.703 171.804 554.995 171.804 551.837 171.804 549.465 170.898 547.878 169.087 546.291 167.275 545.497 164.627 545.497 161.142 545.497 158.588 545.907 155.569 546.726 152.084 547.546 148.599 548.715 145.571 550.233 143.001 551.751 140.43 553.588 138.472 555.745 137.126 557.902 135.781 560.369 135.108 563.146 135.108Z" fill="#E6CFD3" fill-rule="evenodd"/><text fill="#000000" fill-opacity="0" font-family="Arial,Arial_MSFontService,sans-serif" font-size="36.6963" x="545.497" y="167.217">𝜽</text><path d="M586.538 197.971C559.95 198.584 533.991 189.555 513.155 172.448" stroke="#E6CFD3" stroke-width="8" stroke-miterlimit="8" fill="none" fill-rule="evenodd"/><path d="M750.314 200.69 763.331 200.69 762.969 202.398C761.985 202.674 761.261 203.157 760.795 203.847 760.329 204.538 759.889 205.814 759.475 207.678L753.885 232.935 758.776 232.935C759.622 232.935 760.277 232.866 760.743 232.728 761.209 232.59 761.632 232.375 762.011 232.081 762.391 231.788 762.809 231.383 763.266 230.865 763.723 230.347 764.176 229.675 764.625 228.846 765.073 228.018 765.531 226.983 765.996 225.741L769.516 225.741 766.876 236.015 743.197 236.015 743.559 234.307C744.543 234.031 745.267 233.548 745.733 232.858 746.199 232.168 746.639 230.891 747.053 229.028L751.763 207.678C751.987 206.66 752.099 205.65 752.099 204.65 752.099 203.925 751.931 203.395 751.595 203.058 751.258 202.722 750.711 202.502 749.952 202.398Z" fill="#E6CFD3" fill-rule="evenodd"/><text fill="#000000" fill-opacity="0" font-family="Arial,Arial_MSFontService,sans-serif" font-size="35.3247" x="743.197" y="231.599">𝑳</text><path d="M822.251 212.62C820.543 212.62 819.305 213.436 818.537 215.066 817.77 216.696 817.386 219.271 817.386 222.791 817.386 226.448 817.795 229.187 818.615 231.007 819.435 232.827 820.672 233.738 822.329 233.738 823.968 233.738 825.175 232.94 825.952 231.344 826.728 229.748 827.116 227.199 827.116 223.697 827.116 219.987 826.706 217.214 825.887 215.376 825.067 213.539 823.855 212.62 822.251 212.62ZM851.698 209.929C852.958 209.929 854.191 209.981 855.399 210.084 856.607 210.188 858.168 210.412 860.083 210.757L860.083 216.787 856.667 216.787C856.27 215.683 855.835 214.829 855.36 214.225 854.886 213.621 854.364 213.203 853.794 212.97 853.225 212.737 852.544 212.62 851.75 212.62 850.611 212.62 849.706 212.879 849.033 213.397 848.36 213.914 848.023 214.639 848.023 215.571 848.023 216.226 848.144 216.787 848.386 217.253 848.627 217.719 849.059 218.171 849.68 218.611 850.301 219.051 851.5 219.642 853.277 220.384 855.847 221.454 857.672 222.614 858.75 223.865 859.829 225.116 860.368 226.621 860.368 228.381 860.368 230.969 859.445 232.957 857.599 234.346 855.753 235.735 853.139 236.429 849.757 236.429 846.911 236.429 843.745 236.024 840.26 235.213L840.26 229.028 843.728 229.028C844.142 230.598 844.797 231.775 845.694 232.56 846.591 233.345 847.791 233.738 849.292 233.738 850.585 233.738 851.565 233.444 852.229 232.858 852.893 232.271 853.225 231.417 853.225 230.296 853.225 229.588 853.074 228.984 852.772 228.484 852.47 227.984 851.97 227.505 851.271 227.048 850.573 226.591 849.378 225.991 847.687 225.249 845.272 224.197 843.521 223.037 842.434 221.769 841.347 220.501 840.803 219.073 840.803 217.486 840.803 215.933 841.252 214.587 842.149 213.449 843.046 212.31 844.327 211.439 845.992 210.835 847.657 210.231 849.559 209.929 851.698 209.929ZM822.354 209.929C826.53 209.929 829.678 211.029 831.8 213.229 833.922 215.428 834.983 218.65 834.983 222.894 834.983 227.276 833.862 230.628 831.619 232.948 829.376 235.269 826.15 236.429 821.94 236.429 817.886 236.429 814.802 235.32 812.689 233.104 810.575 230.887 809.519 227.639 809.519 223.36 809.519 220.324 810.075 217.796 811.188 215.778 812.301 213.759 813.814 212.28 815.729 211.339 817.645 210.399 819.853 209.929 822.354 209.929ZM796.717 209.929C798.114 209.929 799.507 210.028 800.896 210.227 802.285 210.425 803.549 210.697 804.688 211.042L804.688 217.279 799.563 217.279C799.305 215.657 798.917 214.475 798.399 213.733 797.881 212.991 797.139 212.62 796.173 212.62 794.586 212.62 793.391 213.474 792.589 215.182 791.787 216.89 791.386 219.47 791.386 222.92 791.386 226.095 791.852 228.463 792.783 230.024 793.715 231.585 795.164 232.366 797.131 232.366 798.132 232.366 799.076 232.15 799.965 231.719 800.853 231.288 801.901 230.511 803.109 229.39L805.102 231.797C803.411 233.453 801.776 234.639 800.198 235.355 798.619 236.071 796.898 236.429 795.035 236.429 791.291 236.429 788.436 235.329 786.469 233.129 784.502 230.93 783.519 227.734 783.519 223.541 783.519 220.712 784.058 218.266 785.136 216.205 786.214 214.143 787.763 212.582 789.781 211.521 791.8 210.459 794.112 209.929 796.717 209.929Z" fill="#E6CFD3" fill-rule="evenodd"/><text fill="#000000" fill-opacity="0" font-family="Arial,Arial_MSFontService,sans-serif" font-size="26.5" x="783.519" y="233.116">𝐜𝐨𝐬</text><path d="M883.02 219.582C882.571 221.428 882.248 223.179 882.049 224.835 881.851 226.491 881.752 227.958 881.752 229.235 881.752 230.753 881.98 231.883 882.438 232.625 882.895 233.367 883.615 233.738 884.598 233.738 886.324 233.738 887.95 232.521 889.477 230.089 891.003 227.656 892.31 224.154 893.397 219.582ZM892.569 202.424C890.809 202.424 889.166 203.597 887.639 205.944 886.112 208.29 884.805 211.749 883.719 216.321L894.096 216.321C894.476 214.579 894.773 212.974 894.989 211.508 895.204 210.041 895.312 208.678 895.312 207.419 895.312 205.624 895.101 204.343 894.678 203.576 894.256 202.808 893.552 202.424 892.569 202.424ZM892.621 199.733C895.795 199.733 898.168 200.643 899.738 202.463 901.308 204.283 902.093 207.013 902.093 210.654 902.093 213.207 901.674 216.213 900.837 219.672 900.001 223.132 898.819 226.133 897.292 228.678 895.765 231.223 893.923 233.151 891.767 234.462 889.61 235.773 887.178 236.429 884.469 236.429 881.312 236.429 878.94 235.523 877.352 233.712 875.765 231.9 874.971 229.252 874.971 225.767 874.971 223.213 875.381 220.194 876.201 216.709 877.02 213.224 878.189 210.196 879.707 207.626 881.226 205.055 883.063 203.097 885.219 201.751 887.376 200.406 889.843 199.733 892.621 199.733Z" fill="#E6CFD3" fill-rule="evenodd"/><text fill="#000000" fill-opacity="0" font-family="Arial,Arial_MSFontService,sans-serif" font-size="36.6963" x="874.971" y="231.842">𝜽</text><path d="M825 100 825 186.286 817 186.286 817 100ZM809 104 821 80 833 104Z" fill="#E6CFD3"/><path d="M677.018 99.9964 677.159 260.169 669.159 260.176 669.018 100.003ZM661.021 104.011 673 80 685.021 103.989Z" fill="#E6CFD3"/><path d="M567.998 503.53C569.43 503.53 570.573 503.931 571.427 504.733 572.281 505.535 572.708 506.592 572.708 507.903 572.708 508.334 572.656 508.749 572.553 509.145L572.863 509.301C574.433 507.317 575.956 505.859 577.431 504.927 578.906 503.995 580.618 503.53 582.568 503.53 584.293 503.53 585.652 504.004 586.644 504.953 587.636 505.902 588.158 507.213 588.21 508.887 589.642 507.058 591.086 505.708 592.544 504.836 594.002 503.965 595.654 503.53 597.5 503.53 599.243 503.53 600.61 504.021 601.602 505.005 602.594 505.988 603.09 507.36 603.09 509.119 603.09 509.637 603.047 510.267 602.961 511.009 602.874 511.75 602.745 512.458 602.572 513.131L600.476 521.464C600.286 522.188 600.166 522.749 600.114 523.146 600.062 523.543 600.036 523.991 600.036 524.492 600.036 525.164 600.148 525.63 600.373 525.889 600.597 526.148 600.916 526.277 601.33 526.277 601.831 526.277 602.391 526.04 603.012 525.565 603.633 525.091 604.367 524.371 605.212 523.405L607.075 525.268C605.385 526.993 603.871 528.218 602.534 528.943 601.196 529.667 599.726 530.03 598.121 530.03 596.344 530.03 595.024 529.59 594.162 528.71 593.299 527.83 592.868 526.484 592.868 524.673 592.868 524.103 592.928 523.409 593.049 522.589 593.17 521.77 593.342 520.92 593.567 520.04L594.757 515.537C595.033 514.52 595.279 513.446 595.495 512.315 595.71 511.185 595.818 510.31 595.818 509.689 595.818 508.102 595.197 507.308 593.955 507.308 593.213 507.308 592.307 507.782 591.237 508.731 590.168 509.68 589.284 510.72 588.585 511.85 587.886 512.98 587.347 514.476 586.967 516.34L584.121 529.616 576.668 529.616 580.446 513.157C580.636 512.363 580.765 511.712 580.834 511.203 580.903 510.694 580.938 510.249 580.938 509.87 580.938 508.973 580.782 508.322 580.472 507.916 580.161 507.511 579.67 507.308 578.997 507.308 578.203 507.308 577.267 507.8 576.189 508.783 575.111 509.766 574.239 510.802 573.575 511.888 572.911 512.975 572.38 514.459 571.984 516.34L569.085 529.616 561.658 529.616 565.824 511.63C566.083 510.508 566.213 509.654 566.213 509.068 566.213 508.498 566.118 508.058 565.928 507.748 565.738 507.437 565.41 507.282 564.944 507.282 564.41 507.282 563.832 507.524 563.211 508.007 562.589 508.49 561.865 509.206 561.037 510.155L559.173 508.291C560.899 506.532 562.43 505.298 563.767 504.591 565.104 503.883 566.514 503.53 567.998 503.53Z" fill="#E6CFD3" fill-rule="evenodd"/><text fill="#000000" fill-opacity="0" font-family="Arial,Arial_MSFontService,sans-serif" font-size="26.5" x="559.173" y="526.717">𝒎</text><path d="M495.672 484.318 480.228 479.796 463.28 473.384 446.86 465.967 430.998 457.528 415.773 448.013 401.251 437.613 387.524 426.341 392.601 420.159 406.226 431.346 406.016 431.185 420.329 441.435 420.12 441.295 435.12 450.67 434.879 450.531 450.504 458.844 450.272 458.73 466.459 466.042 466.228 465.946 482.915 472.259 482.624 472.161 497.92 476.641ZM495.855 467.865 516.188 485.375 489.98 491.135Z" fill="#E6CFD3"/><path d="M389 373 581.696 373" stroke="#E6CFD3" stroke-width="8" stroke-miterlimit="8" stroke-dasharray="32 24" fill="none" fill-rule="evenodd"/><path d="M666.211 274.577 679.228 274.577 678.866 276.285C677.883 276.561 677.158 277.044 676.692 277.734 676.226 278.424 675.786 279.701 675.372 281.564L669.783 306.822 674.674 306.822C675.519 306.822 676.175 306.753 676.64 306.615 677.106 306.477 677.529 306.262 677.909 305.968 678.288 305.675 678.706 305.27 679.164 304.752 679.621 304.234 680.074 303.561 680.522 302.733 680.971 301.905 681.428 300.87 681.894 299.628L685.413 299.628 682.774 309.902 659.095 309.902 659.457 308.194C660.44 307.918 661.165 307.435 661.631 306.745 662.096 306.055 662.536 304.778 662.951 302.915L667.66 281.564C667.885 280.547 667.997 279.537 667.997 278.537 667.997 277.812 667.829 277.281 667.492 276.945 667.156 276.609 666.608 276.389 665.849 276.285Z" fill="#E6CFD3" fill-rule="evenodd"/><text fill="#000000" fill-opacity="0" font-family="Arial,Arial_MSFontService,sans-serif" font-size="35.3247" x="659.095" y="305.486">𝑳</text><path d="M844.243 421.634 857.26 421.634 856.898 423.342C855.914 423.618 855.19 424.101 854.724 424.791 854.258 425.481 853.818 426.758 853.404 428.621L847.814 453.879 852.705 453.879C853.551 453.879 854.206 453.81 854.672 453.672 855.138 453.534 855.561 453.318 855.94 453.025 856.32 452.731 856.738 452.326 857.195 451.808 857.652 451.291 858.105 450.618 858.554 449.79 859.002 448.962 859.46 447.926 859.925 446.684L863.445 446.684 860.805 456.958 837.126 456.958 837.488 455.25C838.472 454.974 839.196 454.491 839.662 453.801 840.128 453.111 840.568 451.834 840.982 449.971L845.692 428.621C845.916 427.603 846.029 426.594 846.029 425.593 846.029 424.868 845.86 424.338 845.524 424.001 845.187 423.665 844.64 423.445 843.881 423.342Z" fill="#E6CFD3" fill-rule="evenodd"/><text fill="#000000" fill-opacity="0" font-family="Arial,Arial_MSFontService,sans-serif" font-size="35.3247" x="837.126" y="452.543">𝑳</text><path d="M881.527 440.085 913.41 440.085 913.41 443.527 881.527 443.527Z" fill="#E6CFD3" fill-rule="evenodd"/><text fill="#000000" fill-opacity="0" font-family="Arial,Arial_MSFontService,sans-serif" font-size="3.44189" x="881.527" y="443.097">−</text><path d="M937.95 421.634 950.967 421.634 950.604 423.342C949.621 423.618 948.896 424.101 948.43 424.791 947.965 425.481 947.525 426.758 947.111 428.621L941.521 453.879 946.412 453.879C947.257 453.879 947.913 453.81 948.379 453.672 948.845 453.534 949.267 453.318 949.647 453.025 950.026 452.731 950.445 452.326 950.902 451.808 951.359 451.291 951.812 450.618 952.261 449.79 952.709 448.962 953.166 447.926 953.632 446.684L957.152 446.684 954.512 456.958 930.833 456.958 931.195 455.25C932.179 454.974 932.903 454.491 933.369 453.801 933.835 453.111 934.275 451.834 934.689 449.971L939.399 428.621C939.623 427.603 939.735 426.594 939.735 425.593 939.735 424.868 939.567 424.338 939.231 424.001 938.894 423.665 938.346 423.445 937.587 423.342Z" fill="#E6CFD3" fill-rule="evenodd"/><text fill="#000000" fill-opacity="0" font-family="Arial,Arial_MSFontService,sans-serif" font-size="35.3247" x="930.833" y="452.543">𝑳</text><path d="M1009.89 433.564C1008.18 433.564 1006.94 434.379 1006.17 436.009 1005.41 437.64 1005.02 440.215 1005.02 443.734 1005.02 447.392 1005.43 450.13 1006.25 451.951 1007.07 453.771 1008.31 454.681 1009.96 454.681 1011.6 454.681 1012.81 453.883 1013.59 452.287 1014.36 450.691 1014.75 448.142 1014.75 444.64 1014.75 440.931 1014.34 438.157 1013.52 436.32 1012.7 434.482 1011.49 433.564 1009.89 433.564ZM1039.33 430.872C1040.59 430.872 1041.83 430.924 1043.03 431.028 1044.24 431.131 1045.8 431.355 1047.72 431.7L1047.72 437.73 1044.3 437.73C1043.91 436.626 1043.47 435.772 1043 435.168 1042.52 434.564 1042 434.146 1041.43 433.913 1040.86 433.68 1040.18 433.564 1039.39 433.564 1038.25 433.564 1037.34 433.822 1036.67 434.34 1036 434.858 1035.66 435.582 1035.66 436.514 1035.66 437.169 1035.78 437.73 1036.02 438.196 1036.26 438.662 1036.69 439.115 1037.32 439.555 1037.94 439.995 1039.14 440.586 1040.91 441.327 1043.48 442.397 1045.31 443.557 1046.39 444.808 1047.46 446.059 1048 447.564 1048 449.324 1048 451.912 1047.08 453.9 1045.23 455.289 1043.39 456.678 1040.77 457.372 1037.39 457.372 1034.55 457.372 1031.38 456.967 1027.9 456.156L1027.9 449.971 1031.36 449.971C1031.78 451.541 1032.43 452.718 1033.33 453.503 1034.23 454.288 1035.43 454.681 1036.93 454.681 1038.22 454.681 1039.2 454.388 1039.86 453.801 1040.53 453.214 1040.86 452.36 1040.86 451.239 1040.86 450.532 1040.71 449.928 1040.41 449.427 1040.11 448.927 1039.61 448.448 1038.91 447.991 1038.21 447.534 1037.01 446.934 1035.32 446.193 1032.91 445.14 1031.16 443.98 1030.07 442.712 1028.98 441.444 1028.44 440.016 1028.44 438.429 1028.44 436.876 1028.89 435.53 1029.78 434.392 1030.68 433.253 1031.96 432.382 1033.63 431.778 1035.29 431.174 1037.19 430.872 1039.33 430.872ZM1009.99 430.872C1014.17 430.872 1017.31 431.972 1019.44 434.172 1021.56 436.372 1022.62 439.593 1022.62 443.838 1022.62 448.22 1021.5 451.571 1019.25 453.892 1017.01 456.212 1013.79 457.372 1009.58 457.372 1005.52 457.372 1002.44 456.264 1000.32 454.047 998.211 451.83 997.154 448.582 997.154 444.303 997.154 441.267 997.711 438.739 998.823 436.721 999.936 434.702 1001.45 433.223 1003.37 432.283 1005.28 431.342 1007.49 430.872 1009.99 430.872ZM984.352 430.872C985.75 430.872 987.143 430.971 988.532 431.17 989.921 431.368 991.185 431.64 992.323 431.985L992.323 438.222 987.199 438.222C986.94 436.6 986.552 435.418 986.035 434.676 985.517 433.935 984.775 433.564 983.809 433.564 982.222 433.564 981.027 434.418 980.225 436.126 979.423 437.834 979.021 440.413 979.021 443.863 979.021 447.038 979.487 449.406 980.419 450.967 981.351 452.529 982.8 453.309 984.767 453.309 985.767 453.309 986.712 453.094 987.6 452.662 988.489 452.231 989.537 451.455 990.745 450.333L992.737 452.74C991.047 454.396 989.412 455.582 987.833 456.298 986.255 457.014 984.534 457.372 982.67 457.372 978.927 457.372 976.071 456.272 974.104 454.073 972.138 451.873 971.154 448.677 971.154 444.485 971.154 441.655 971.693 439.21 972.772 437.148 973.85 435.086 975.398 433.525 977.417 432.464 979.435 431.403 981.747 430.872 984.352 430.872Z" fill="#E6CFD3" fill-rule="evenodd"/><text fill="#000000" fill-opacity="0" font-family="Arial,Arial_MSFontService,sans-serif" font-size="26.5" x="971.154" y="454.06">𝐜𝐨𝐬</text><path d="M1070.66 440.525C1070.21 442.371 1069.88 444.122 1069.69 445.779 1069.49 447.435 1069.39 448.901 1069.39 450.178 1069.39 451.696 1069.62 452.826 1070.07 453.568 1070.53 454.31 1071.25 454.681 1072.23 454.681 1073.96 454.681 1075.59 453.465 1077.11 451.032 1078.64 448.599 1079.95 445.097 1081.03 440.525ZM1080.2 423.367C1078.45 423.367 1076.8 424.541 1075.27 426.887 1073.75 429.233 1072.44 432.692 1071.35 437.264L1081.73 437.264C1082.11 435.522 1082.41 433.917 1082.62 432.451 1082.84 430.984 1082.95 429.621 1082.95 428.362 1082.95 426.568 1082.74 425.287 1082.31 424.519 1081.89 423.751 1081.19 423.367 1080.2 423.367ZM1080.26 420.676C1083.43 420.676 1085.8 421.586 1087.37 423.406 1088.94 425.226 1089.73 427.957 1089.73 431.597 1089.73 434.15 1089.31 437.157 1088.47 440.616 1087.64 444.075 1086.45 447.077 1084.93 449.622 1083.4 452.166 1081.56 454.094 1079.4 455.405 1077.25 456.717 1074.81 457.372 1072.1 457.372 1068.95 457.372 1066.58 456.467 1064.99 454.655 1063.4 452.843 1062.61 450.195 1062.61 446.71 1062.61 444.157 1063.02 441.138 1063.84 437.653 1064.66 434.168 1065.82 431.14 1067.34 428.569 1068.86 425.998 1070.7 424.04 1072.86 422.695 1075.01 421.349 1077.48 420.676 1080.26 420.676Z" fill="#E6CFD3" fill-rule="evenodd"/><text fill="#000000" fill-opacity="0" font-family="Arial,Arial_MSFontService,sans-serif" font-size="36.6963" x="1062.61" y="452.785">𝜽</text><path d="M4.45751 19.903 8.20273 183.208 0.204831 183.391-3.54039 20.0864ZM-11.4466 24.2688 0 0 12.5471 23.7186Z" fill="#E6CFD3" transform="matrix(1 0 0 -1 669 508.299)"/><path d="M4.00002 20 4.0001 122.512-3.99989 122.512-3.99998 20ZM-12 24 0 0 12 24Z" fill="#E6CFD3" transform="matrix(1 0 0 -1 821 373.512)"/><path d="M4.00002 20 4.00009 114.681-3.99991 114.681-3.99998 20ZM-12 24 0 0 12 24ZM12.0001 110.681 0.000104987 134.681-11.9999 110.681Z" fill="#E6CFD3" transform="matrix(1 0 0 -1 821 506.681)"/><path d="M589.167 392.833 589.167 457.863 575.833 457.863 575.833 392.833ZM562.5 399.5 582.5 359.5 602.5 399.5Z" fill="#E6CFD3"/><path d="M6.66669 33.3333 6.66677 152.072-6.66656 152.072-6.66664 33.3333ZM-20 40 0 0 20 40Z" fill="#E6CFD3" transform="matrix(1 0 0 -1 582.5 715.572)"/><path d="M534.517 608.937C532.964 608.937 531.566 609.714 530.324 611.266 529.082 612.819 528.068 614.976 527.283 617.736 526.498 620.496 526.106 622.981 526.106 625.189 526.106 626.449 526.291 627.389 526.662 628.01 527.033 628.631 527.607 628.942 528.383 628.942 529.125 628.942 529.876 628.704 530.635 628.23 531.394 627.755 532.192 627.022 533.029 626.03 533.865 625.038 534.568 623.843 535.138 622.446 535.707 621.048 536.216 619.289 536.664 617.167L536.872 616.209C537.148 614.932 537.286 613.69 537.286 612.483 537.286 611.292 537.07 610.404 536.639 609.817 536.207 609.23 535.5 608.937 534.517 608.937ZM534.258 606.246C535.483 606.246 536.608 606.379 537.635 606.647 538.661 606.914 539.71 607.402 540.779 608.109L543.108 606.246 546.007 606.66 543.781 616.778C543.419 618.435 543.091 620.022 542.798 621.54 541.866 626.267 541.219 629.416 540.857 630.986 540.219 633.66 539.563 635.679 538.89 637.042 538.183 638.474 537.268 639.694 536.147 640.703 535.026 641.713 533.619 642.476 531.929 642.994 529.996 643.598 527.65 643.9 524.89 643.9 521.232 643.9 518.489 643.412 516.66 642.437 514.831 641.463 513.917 640 513.917 638.051 513.917 636.981 514.297 635.972 515.056 635.023 515.815 634.074 516.936 633.168 518.42 632.306L521.111 634.48C520.645 635.049 520.322 635.584 520.141 636.084 519.96 636.584 519.869 637.128 519.869 637.714 519.869 638.888 520.279 639.763 521.098 640.341 521.918 640.919 523.147 641.208 524.786 641.208 527.426 641.208 529.513 640.22 531.049 638.245 532.584 636.27 533.895 632.659 534.982 627.415L534.646 627.182C533.128 629.114 531.67 630.524 530.272 631.413 528.875 632.301 527.201 632.746 525.252 632.746 523.32 632.746 521.806 632.038 520.71 630.624 519.615 629.209 519.067 627.164 519.067 624.49 519.067 622.127 519.412 619.793 520.102 617.49 520.792 615.187 521.771 613.207 523.039 611.551 524.307 609.895 525.886 608.596 527.775 607.656 529.664 606.716 531.825 606.246 534.258 606.246ZM472.586 606.246C474.018 606.246 475.161 606.647 476.015 607.449 476.869 608.251 477.296 609.308 477.296 610.619 477.296 611.051 477.245 611.465 477.141 611.861L477.452 612.017C479.022 610.033 480.544 608.575 482.019 607.643 483.494 606.712 485.207 606.246 487.156 606.246 488.881 606.246 490.24 606.72 491.232 607.669 492.224 608.618 492.746 609.929 492.798 611.603 494.23 609.774 495.675 608.424 497.133 607.553 498.59 606.681 500.242 606.246 502.088 606.246 503.831 606.246 505.198 606.737 506.19 607.721 507.182 608.704 507.678 610.076 507.678 611.836 507.678 612.353 507.635 612.983 507.549 613.725 507.462 614.467 507.333 615.174 507.161 615.847L505.064 624.18C504.875 624.904 504.754 625.465 504.702 625.862 504.65 626.259 504.624 626.707 504.624 627.208 504.624 627.88 504.737 628.346 504.961 628.605 505.185 628.864 505.504 628.993 505.918 628.993 506.419 628.993 506.979 628.756 507.601 628.282 508.222 627.807 508.955 627.087 509.8 626.121L511.664 627.984C509.973 629.709 508.459 630.934 507.122 631.659 505.785 632.383 504.314 632.746 502.709 632.746 500.932 632.746 499.613 632.306 498.75 631.426 497.887 630.546 497.456 629.2 497.456 627.389 497.456 626.819 497.516 626.125 497.637 625.306 497.758 624.486 497.93 623.636 498.155 622.756L499.345 618.254C499.621 617.236 499.867 616.162 500.083 615.032 500.298 613.902 500.406 613.026 500.406 612.405 500.406 610.818 499.785 610.024 498.543 610.024 497.801 610.024 496.895 610.498 495.826 611.447 494.756 612.396 493.872 613.436 493.173 614.566 492.474 615.696 491.935 617.193 491.556 619.056L488.709 632.332 481.256 632.332 485.034 615.873C485.224 615.079 485.353 614.428 485.422 613.919 485.491 613.41 485.526 612.966 485.526 612.586 485.526 611.689 485.371 611.038 485.06 610.632 484.749 610.227 484.258 610.024 483.585 610.024 482.791 610.024 481.855 610.516 480.777 611.499 479.699 612.483 478.827 613.518 478.163 614.605 477.499 615.692 476.969 617.175 476.572 619.056L473.673 632.332 466.246 632.332 470.413 614.346C470.671 613.224 470.801 612.37 470.801 611.784 470.801 611.214 470.706 610.775 470.516 610.464 470.326 610.153 469.998 609.998 469.533 609.998 468.998 609.998 468.42 610.24 467.799 610.723 467.178 611.206 466.453 611.922 465.625 612.871L463.762 611.007C465.487 609.248 467.018 608.014 468.355 607.307 469.692 606.599 471.103 606.246 472.586 606.246Z" fill="#E6CFD3" fill-rule="evenodd"/><text fill="#000000" fill-opacity="0" font-family="Arial,Arial_MSFontService,sans-serif" font-size="37.6538" x="463.762" y="639.193">𝒎𝒈</text><path d="M515.957 399.232 544.475 399.232 542.431 408.6 539.118 408.6C539.101 406.685 538.989 405.343 538.782 404.576 538.575 403.808 538.243 403.23 537.785 402.842 537.328 402.454 536.686 402.259 535.857 402.259L533.554 402.259 527.99 427.569C527.87 428.138 527.783 428.621 527.732 429.018 527.68 429.415 527.654 429.941 527.654 430.597 527.654 431.39 527.857 431.951 528.262 432.279 528.667 432.607 529.302 432.797 530.164 432.848L529.802 434.556 516.06 434.556 516.422 432.848C517.182 432.745 517.785 432.521 518.234 432.175 518.682 431.83 519.058 431.317 519.36 430.636 519.662 429.954 519.968 428.932 520.278 427.569L525.842 402.259 523.772 402.259C522.823 402.259 522.055 402.402 521.469 402.686 520.882 402.971 520.227 403.566 519.502 404.472 518.777 405.378 518.079 406.573 517.406 408.056L514.016 408.056Z" fill="#E6CFD3" fill-rule="evenodd"/><text fill="#000000" fill-opacity="0" font-family="Arial,Arial_MSFontService,sans-serif" font-size="35.3247" x="514.016" y="430.141">𝑻</text><path d="M20-3.99998 129.058-3.99989 129.058 4.0001 20 4.00002ZM24 12 0 0 24-12Z" fill="#E6CFD3" transform="matrix(-1 0 0 1 763.058 508)"/><path d="M674.451 552.153C676.142 552.153 677.449 552.619 678.372 553.551 679.295 554.482 679.756 555.655 679.756 557.07 679.756 557.933 679.661 558.83 679.471 559.762L677.789 567.655C677.634 568.569 677.505 569.458 677.401 570.32 677.298 571.183 677.246 571.951 677.246 572.623 677.246 573.279 677.289 573.814 677.375 574.228 677.462 574.642 677.574 574.849 677.712 574.849 678.195 574.849 678.82 574.625 679.588 574.176 680.356 573.728 681.184 573.107 682.072 572.313 682.961 571.519 683.849 570.588 684.738 569.518 685.626 568.448 686.429 567.292 687.145 566.05 687.861 564.808 688.439 563.492 688.878 562.104 689.318 560.715 689.538 559.313 689.538 557.898 689.538 557.208 689.405 556.673 689.137 556.294 688.87 555.914 688.451 555.724 687.882 555.724 687.244 555.724 686.653 555.962 686.109 556.436 685.566 556.911 685.01 557.545 684.44 558.338L682.629 556.889C683.716 555.388 684.928 554.224 686.265 553.395 687.602 552.567 689.09 552.153 690.729 552.153 692.351 552.153 693.498 552.572 694.171 553.408 694.844 554.245 695.18 555.362 695.18 556.76 695.18 557.57 695.025 558.506 694.714 559.568 694.404 560.629 693.955 561.746 693.368 562.919 692.782 564.092 692.092 565.3 691.298 566.542 690.505 567.784 689.625 568.987 688.659 570.152 687.692 571.317 686.661 572.416 685.566 573.452 684.47 574.487 683.332 575.388 682.15 576.156 680.968 576.924 679.769 577.532 678.553 577.98 677.336 578.429 676.116 578.653 674.891 578.653 673.977 578.653 673.226 578.528 672.639 578.278 672.053 578.028 671.626 577.674 671.358 577.217 671.091 576.76 670.914 576.225 670.828 575.612 670.742 575 670.699 574.331 670.699 573.607 670.699 572.606 670.759 571.549 670.88 570.437 671 569.324 671.156 568.207 671.346 567.085L672.924 559.762C673.028 559.313 673.114 558.903 673.183 558.532 673.252 558.161 673.286 557.864 673.286 557.64 673.286 557.122 673.179 556.712 672.963 556.41 672.747 556.108 672.303 555.957 671.63 555.957 670.561 555.957 669.034 556.863 667.05 558.675L665.445 556.863C666.256 555.845 667.468 554.806 669.081 553.745 670.694 552.684 672.484 552.153 674.451 552.153Z" fill="#E6CFD3" fill-rule="evenodd"/><text fill="#000000" fill-opacity="0" font-family="Arial,Arial_MSFontService,sans-serif" font-size="26.5" x="665.445" y="575.341">𝒗</text><path d="M16.4573 12.0483 111.526 115.862 105.627 121.265 10.5574 17.4512ZM7.35894 25.804 0 0 25.0586 9.59525Z" fill="#E6CFD3" transform="matrix(-1 0 0 1 540.576 20)"/><path d="M407.947 141.081 420.965 141.081 420.602 142.789C419.619 143.065 418.894 143.549 418.428 144.239 417.963 144.929 417.523 146.205 417.109 148.069L411.519 173.327 416.41 173.327C417.255 173.327 417.911 173.257 418.377 173.119 418.842 172.981 419.265 172.766 419.645 172.473 420.024 172.179 420.443 171.774 420.9 171.256 421.357 170.739 421.81 170.066 422.258 169.238 422.707 168.41 423.164 167.374 423.63 166.132L427.15 166.132 424.51 176.406 400.831 176.406 401.193 174.698C402.176 174.422 402.901 173.939 403.367 173.249 403.833 172.559 404.273 171.282 404.687 169.419L409.397 148.069C409.621 147.051 409.733 146.042 409.733 145.041 409.733 144.316 409.565 143.786 409.228 143.449 408.892 143.113 408.344 142.893 407.585 142.789Z" fill="#E6CFD3" fill-rule="evenodd"/><text fill="#000000" fill-opacity="0" font-family="Arial,Arial_MSFontService,sans-serif" font-size="35.3247" x="400.831" y="171.991">𝑳</text><path d="M16.0761 12.5522 121.837 135.478 115.772 140.696 10.0117 17.7698ZM6.5561 26.0196 0 0 24.7493 10.3669Z" fill="#E6CFD3" transform="matrix(1 0 0 -1 271 324.087)"/><path d="M6 363.5C6 351.626 15.402 342 27 342 38.598 342 48 351.626 48 363.5 48 375.374 38.598 385 27 385 15.402 385 6 375.374 6 363.5Z" fill="#330A12" fill-rule="evenodd"/><path d="M1232 363C1232 350.85 1241.4 341 1253 341 1264.6 341 1274 350.85 1274 363 1274 375.15 1264.6 385 1253 385 1241.4 385 1232 375.15 1232 363Z" fill="#330A12" fill-rule="evenodd"/></g></svg>