<svg width="948" height="587" xmlns="http://www.w3.org/2000/svg" xmlns:xlink="http://www.w3.org/1999/xlink" overflow="hidden"><defs><clipPath id="clip0"><rect x="98" y="78" width="948" height="587"/></clipPath></defs><g clip-path="url(#clip0)" transform="translate(-98 -78)"><path d="M568 178 730.783 178" stroke="#E6CFD3" stroke-width="8" stroke-miterlimit="8" fill="none" fill-rule="evenodd"/><path d="M0 0 210.087 251.826" stroke="#E6CFD3" stroke-width="8" stroke-miterlimit="8" fill="none" fill-rule="evenodd" transform="matrix(1 0 0 -1 442 429.826)"/><path d="M349 470.5C349 441.505 372.953 418 402.5 418 432.047 418 456 441.505 456 470.5 456 499.495 432.047 523 402.5 523 372.953 523 349 499.495 349 470.5Z" stroke="#E6CFD3" stroke-width="8" stroke-miterlimit="8" fill="none" fill-rule="evenodd"/><path d="M0 0 3.47832 377.043" stroke="#E6CFD3" stroke-width="8" stroke-miterlimit="8" stroke-dasharray="32 24" fill="none" fill-rule="evenodd" transform="matrix(1 0 0 -1 649 555.043)"/><path d="M595 607.5C595 578.505 618.953 555 648.5 555 678.047 555 702 578.505 702 607.5 702 636.495 678.047 660 648.5 660 618.953 660 595 636.495 595 607.5Z" stroke="#E6CFD3" stroke-width="8" stroke-miterlimit="8" stroke-dasharray="32 24" fill="none" fill-rule="evenodd"/><path d="M620.328 252.348C619.879 254.194 619.556 255.945 619.358 257.602 619.159 259.258 619.06 260.724 619.06 262.001 619.06 263.519 619.289 264.649 619.746 265.391 620.203 266.133 620.923 266.504 621.907 266.504 623.632 266.504 625.258 265.288 626.785 262.855 628.312 260.422 629.619 256.92 630.705 252.348ZM629.877 235.19C628.118 235.19 626.474 236.364 624.947 238.71 623.421 241.056 622.114 244.515 621.027 249.087L631.404 249.087C631.784 247.345 632.081 245.74 632.297 244.274 632.513 242.807 632.62 241.444 632.62 240.185 632.62 238.391 632.409 237.11 631.986 236.342 631.564 235.574 630.861 235.19 629.877 235.19ZM629.929 232.499C633.104 232.499 635.476 233.409 637.046 235.229 638.616 237.049 639.401 239.78 639.401 243.42 639.401 245.973 638.982 248.98 638.146 252.439 637.309 255.898 636.127 258.9 634.6 261.445 633.073 263.989 631.232 265.917 629.075 267.228 626.919 268.54 624.486 269.195 621.777 269.195 618.62 269.195 616.248 268.29 614.661 266.478 613.073 264.666 612.28 262.018 612.28 258.533 612.28 255.98 612.689 252.961 613.509 249.476 614.328 245.991 615.497 242.963 617.016 240.392 618.534 237.821 620.371 235.863 622.528 234.518 624.684 233.172 627.151 232.499 629.929 232.499Z" fill="#E6CFD3" fill-rule="evenodd"/><text fill="#000000" fill-opacity="0" font-family="Arial,Arial_MSFontService,sans-serif" font-size="36.6963" x="612.28" y="264.608">𝜽</text><path d="M653.039 295.971C626.421 296.579 600.429 287.609 579.535 270.604" stroke="#E6CFD3" stroke-width="8" stroke-miterlimit="8" fill="none" fill-rule="evenodd"/><path d="M428.397 223.128 441.414 223.128 441.052 224.836C440.069 225.112 439.344 225.595 438.878 226.285 438.413 226.975 437.973 228.252 437.559 230.115L431.969 255.373 436.86 255.373C437.705 255.373 438.361 255.304 438.827 255.166 439.292 255.028 439.715 254.812 440.095 254.519 440.474 254.226 440.893 253.82 441.35 253.303 441.807 252.785 442.26 252.112 442.708 251.284 443.157 250.456 443.614 249.421 444.08 248.179L447.6 248.179 444.96 258.452 421.281 258.452 421.643 256.744C422.626 256.468 423.351 255.985 423.817 255.295 424.283 254.605 424.723 253.328 425.137 251.465L429.847 230.115C430.071 229.097 430.183 228.088 430.183 227.087 430.183 226.363 430.015 225.832 429.678 225.496 429.342 225.159 428.794 224.939 428.035 224.836Z" fill="#E6CFD3" fill-rule="evenodd"/><text fill="#000000" fill-opacity="0" font-family="Arial,Arial_MSFontService,sans-serif" font-size="35.3247" x="421.281" y="254.037">𝑳</text><path d="M15.9108 12.7612 95.7421 108.039 89.6101 113.177 9.77874 17.8991ZM6.21561 26.103 0 0 24.6118 10.6893Z" fill="#E6CFD3" transform="matrix(1 0 0 -1 314 382.608)"/><path d="M16.15 12.4571 93.7993 101.638 87.7658 106.892 10.1165 17.7104ZM6.70967 25.9804 0 0 24.8101 10.2205Z" fill="#E6CFD3" transform="matrix(-1 0 0 1 551.783 103)"/><path d="M388.52 462.138C389.952 462.138 391.095 462.539 391.949 463.342 392.803 464.144 393.23 465.201 393.23 466.512 393.23 466.943 393.178 467.357 393.075 467.754L393.385 467.909C394.955 465.925 396.478 464.467 397.953 463.536 399.428 462.604 401.14 462.138 403.09 462.138 404.815 462.138 406.174 462.613 407.166 463.562 408.158 464.51 408.68 465.822 408.732 467.495 410.163 465.666 411.608 464.316 413.066 463.445 414.524 462.574 416.176 462.138 418.022 462.138 419.765 462.138 421.132 462.63 422.124 463.613 423.116 464.597 423.612 465.968 423.612 467.728 423.612 468.246 423.569 468.875 423.482 469.617 423.396 470.359 423.267 471.066 423.094 471.739L420.998 480.072C420.808 480.797 420.688 481.358 420.636 481.754 420.584 482.151 420.558 482.6 420.558 483.1 420.558 483.773 420.67 484.239 420.895 484.498 421.119 484.756 421.438 484.886 421.852 484.886 422.352 484.886 422.913 484.649 423.534 484.174 424.155 483.7 424.889 482.979 425.734 482.013L427.597 483.876C425.906 485.602 424.393 486.827 423.055 487.551 421.718 488.276 420.248 488.638 418.643 488.638 416.866 488.638 415.546 488.198 414.684 487.318 413.821 486.439 413.39 485.093 413.39 483.281 413.39 482.712 413.45 482.018 413.571 481.198 413.692 480.379 413.864 479.529 414.088 478.649L415.279 474.146C415.555 473.128 415.801 472.054 416.016 470.924 416.232 469.794 416.34 468.918 416.34 468.297 416.34 466.71 415.719 465.917 414.477 465.917 413.735 465.917 412.829 466.391 411.759 467.34 410.69 468.289 409.805 469.328 409.107 470.458 408.408 471.588 407.869 473.085 407.489 474.948L404.643 488.224 397.19 488.224 400.968 471.765C401.158 470.972 401.287 470.32 401.356 469.811 401.425 469.302 401.46 468.858 401.46 468.479 401.46 467.581 401.304 466.93 400.994 466.525 400.683 466.119 400.191 465.917 399.519 465.917 398.725 465.917 397.789 466.408 396.711 467.392 395.632 468.375 394.761 469.41 394.097 470.497 393.433 471.584 392.902 473.068 392.505 474.948L389.607 488.224 382.18 488.224 386.346 470.238C386.605 469.117 386.734 468.263 386.734 467.676 386.734 467.107 386.64 466.667 386.45 466.356 386.26 466.046 385.932 465.891 385.466 465.891 384.932 465.891 384.354 466.132 383.732 466.615 383.111 467.098 382.387 467.814 381.559 468.763L379.695 466.9C381.421 465.14 382.952 463.907 384.289 463.199 385.626 462.492 387.036 462.138 388.52 462.138Z" fill="#E6CFD3" fill-rule="evenodd"/><text fill="#000000" fill-opacity="0" font-family="Arial,Arial_MSFontService,sans-serif" font-size="26.5" x="379.695" y="485.326">𝒎</text><path d="M562.672 582.318 547.228 577.796 530.28 571.384 513.86 563.967 497.998 555.528 482.773 546.013 468.251 535.613 454.524 524.341 459.601 518.159 473.226 529.346 473.016 529.185 487.329 539.435 487.12 539.295 502.12 548.67 501.879 548.531 517.504 556.844 517.272 556.73 533.459 564.042 533.228 563.946 549.915 570.259 549.624 570.161 564.92 574.641ZM562.855 565.865 583.188 583.375 556.98 589.135Z" fill="#E6CFD3"/><path d="M98 360.5C98 348.626 107.402 339 119 339 130.598 339 140 348.626 140 360.5 140 372.374 130.598 382 119 382 107.402 382 98 372.374 98 360.5Z" fill="#330A12" fill-rule="evenodd"/><path d="M1003 358.5C1003 346.626 1012.4 337 1024 337 1035.6 337 1045 346.626 1045 358.5 1045 370.374 1035.6 380 1024 380 1012.4 380 1003 370.374 1003 358.5Z" fill="#330A12" fill-rule="evenodd"/></g></svg>