<svg width="1247" height="648" xmlns="http://www.w3.org/2000/svg" xmlns:xlink="http://www.w3.org/1999/xlink" overflow="hidden"><defs><clipPath id="clip0"><rect x="20" y="22" width="1247" height="648"/></clipPath></defs><g clip-path="url(#clip0)" transform="translate(-20 -22)"><path d="M20 385 1261.56 385" stroke="#E6CFD3" stroke-width="8" stroke-miterlimit="8" stroke-dasharray="32 24" fill="none" fill-rule="evenodd"/><path d="M324 367.5C324 255.11 340.342 164 360.5 164 380.658 164 397 255.11 397 367.5 397 479.89 380.658 571 360.5 571 340.342 571 324 479.89 324 367.5Z" stroke="#E6CFD3" stroke-width="8" stroke-miterlimit="8" fill="none" fill-rule="evenodd"/><path d="M746 368.5C746 255.558 774.43 164 809.5 164 844.57 164 873 255.558 873 368.5 873 481.442 844.57 573 809.5 573 774.43 573 746 481.442 746 368.5Z" stroke="#E6CFD3" stroke-width="8" stroke-miterlimit="8" fill="none" fill-rule="evenodd"/><path d="M512.738 58.1608 503.887 71.4884 503.887 71.9284 512.738 71.9284 512.738 66.0021C512.738 63.5177 512.824 60.904 512.997 58.1608ZM545.204 52.5968C543.979 52.5968 543.012 53.136 542.305 54.2143 541.598 55.2925 541.089 56.897 540.778 59.0277 540.468 61.1584 540.312 63.9318 540.312 67.3478 540.312 71.1434 540.481 74.1626 540.817 76.4054 541.154 78.6483 541.684 80.3002 542.409 81.3612 543.133 82.4223 544.099 82.9528 545.307 82.9528 545.963 82.9528 546.536 82.7932 547.028 82.474 547.52 82.1549 547.96 81.6545 548.348 80.9731 548.736 80.2916 549.068 79.3858 549.344 78.2558 549.62 77.1257 549.819 75.7196 549.939 74.0375 550.06 72.3554 550.121 70.4792 550.121 68.4088 550.121 65.3206 550.004 62.7241 549.771 60.6193 549.538 58.5145 549.206 56.8927 548.775 55.7541 548.344 54.6154 547.835 53.8045 547.248 53.3214 546.661 52.8384 545.98 52.5968 545.204 52.5968ZM514.575 49.9313 520.398 49.9313 520.398 71.9284 521.2 71.9284C522.046 71.9284 522.641 71.8723 522.986 71.7602 523.331 71.648 523.628 71.4367 523.879 71.1261 524.129 70.8156 524.366 70.2635 524.59 69.4699L527.308 69.4699 526.997 75.1891 520.398 75.1891 520.398 79.0451C520.398 80.339 520.476 81.2491 520.631 81.7753 520.786 82.3015 521.023 82.694 521.342 82.9528 521.662 83.2116 522.278 83.4704 523.193 83.7292L523.193 85.4372 509.969 85.4372 509.969 83.7292C510.883 83.4876 511.508 83.2159 511.845 82.914 512.181 82.6121 512.414 82.2109 512.544 81.7106 512.673 81.2103 512.738 80.3218 512.738 79.0451L512.738 75.1891 498.867 75.1891 498.867 72.3942ZM545.359 49.6984C549.603 49.6984 552.769 51.1433 554.856 54.0331 556.944 56.9229 557.988 61.3439 557.988 67.2961 557.988 73.4035 556.879 78.0229 554.662 81.1542 552.445 84.2856 549.189 85.8512 544.893 85.8512 540.649 85.8512 537.513 84.3804 535.486 81.4389 533.459 78.4973 532.445 74.0504 532.445 68.0983 532.445 62.1289 533.575 57.5699 535.835 54.4213 538.095 51.2727 541.27 49.6984 545.359 49.6984Z" fill="#E6CFD3" fill-rule="evenodd"/><text fill="#000000" fill-opacity="0" font-family="Arial,Arial_MSFontService,sans-serif" font-size="36.1528" x="498.867" y="81.3321">𝟒𝟎</text><path d="M563.853 79.4333 569.081 79.4333 569.081 85.4372 563.853 85.4372Z" fill="#E6CFD3" fill-rule="evenodd"/><text fill="#000000" fill-opacity="0" font-family="Arial,Arial_MSFontService,sans-serif" font-size="6.00391" x="563.853" y="84.6867">.</text><path d="M596.757 52.5968C595.532 52.5968 594.566 53.136 593.858 54.2143 593.151 55.2925 592.642 56.897 592.332 59.0277 592.021 61.1584 591.866 63.9318 591.866 67.3478 591.866 71.1434 592.034 74.1626 592.37 76.4054 592.707 78.6483 593.237 80.3002 593.962 81.3612 594.687 82.4223 595.653 82.9528 596.86 82.9528 597.516 82.9528 598.09 82.7932 598.581 82.474 599.073 82.1549 599.513 81.6545 599.901 80.9731 600.289 80.2916 600.621 79.3858 600.898 78.2558 601.174 77.1257 601.372 75.7196 601.493 74.0375 601.614 72.3554 601.674 70.4792 601.674 68.4088 601.674 65.3206 601.557 62.7241 601.325 60.6193 601.092 58.5145 600.76 56.8927 600.328 55.7541 599.897 54.6154 599.388 53.8045 598.801 53.3214 598.215 52.8384 597.533 52.5968 596.757 52.5968ZM596.912 49.6984C601.156 49.6984 604.322 51.1433 606.41 54.0331 608.497 56.9229 609.541 61.3439 609.541 67.2961 609.541 73.4035 608.433 78.0229 606.216 81.1542 603.999 84.2856 600.742 85.8512 596.446 85.8512 592.202 85.8512 589.067 84.3804 587.039 81.4389 585.012 78.4973 583.999 74.0504 583.999 68.0983 583.999 62.1289 585.129 57.5699 587.389 54.4213 589.649 51.2727 592.823 49.6984 596.912 49.6984Z" fill="#E6CFD3" fill-rule="evenodd"/><text fill="#000000" fill-opacity="0" font-family="Arial,Arial_MSFontService,sans-serif" font-size="36.1528" x="583.999" y="81.3321">𝟎</text><path d="M671.07 59.3512C672.951 59.3512 674.426 59.7265 675.496 60.477 676.565 61.2274 677.342 62.3187 677.825 63.7506 679.567 62.1289 681.081 60.9902 682.367 60.3346 683.652 59.679 684.993 59.3512 686.391 59.3512 687.771 59.3512 688.914 59.5324 689.82 59.8947 690.725 60.257 691.472 60.8177 692.058 61.5768 692.645 62.3359 693.072 63.2848 693.339 64.4235 693.607 65.5622 693.74 66.9251 693.74 68.5124L693.74 77.9582C693.74 79.5972 693.792 80.7272 693.896 81.3483 693.999 81.9694 694.215 82.4654 694.543 82.8363 694.87 83.2073 695.474 83.5049 696.354 83.7292L696.354 85.4372 683.88 85.4372 683.88 83.7292C684.657 83.5394 685.192 83.2633 685.485 82.901 685.778 82.5387 685.981 82.0384 686.093 81.4001 686.205 80.7617 686.261 79.623 686.261 77.984L686.261 71.0485C686.261 69.4958 686.21 68.232 686.106 67.2572 686.003 66.2825 685.804 65.519 685.511 64.9669 685.218 64.4149 684.868 64.0181 684.463 63.7765 684.057 63.535 683.527 63.4142 682.871 63.4142 682.423 63.4142 682.009 63.4832 681.629 63.6212 681.249 63.7593 680.866 63.9706 680.477 64.2553 680.089 64.5399 679.757 64.8289 679.481 65.1222 679.205 65.4155 678.985 65.7433 678.821 66.1056 678.657 66.4679 678.545 66.8734 678.485 67.3219 678.424 67.7705 678.394 68.5037 678.394 69.5216L678.394 77.9582C678.394 79.4936 678.437 80.6021 678.523 81.2836 678.61 81.9651 678.817 82.4913 679.145 82.8622 679.472 83.2331 680.024 83.5221 680.801 83.7292L680.801 85.4372 668.482 85.4372 668.482 83.7292C669.276 83.5394 669.824 83.2633 670.126 82.901 670.428 82.5387 670.63 82.0427 670.734 81.413 670.837 80.7833 670.889 79.6403 670.889 77.984L670.889 71.0485C670.889 69.9098 670.868 68.948 670.825 68.163 670.781 67.378 670.708 66.744 670.605 66.2609 670.501 65.7778 670.359 65.3551 670.178 64.9928 669.996 64.6305 669.789 64.3372 669.556 64.1129 669.324 63.8887 669.047 63.7161 668.728 63.5954 668.409 63.4746 668.008 63.4142 667.525 63.4142 666.887 63.4142 666.218 63.6126 665.519 64.0094 664.821 64.4062 664.234 64.9583 663.76 65.6657 663.285 66.373 663.048 67.1322 663.048 67.943L663.048 77.9582C663.048 79.5799 663.095 80.7143 663.19 81.3612 663.285 82.0082 663.488 82.5172 663.798 82.8881 664.109 83.259 664.652 83.5394 665.429 83.7292L665.429 85.4372 653.033 85.4372 653.033 83.7292C653.861 83.5049 654.435 83.2116 654.754 82.8493 655.073 82.487 655.289 81.9953 655.401 81.3742 655.513 80.7531 655.569 79.623 655.569 77.984L655.569 67.3478C655.569 66.0711 655.547 65.1265 655.504 64.5141 655.461 63.9016 655.358 63.4099 655.194 63.039 655.03 62.668 654.78 62.3661 654.443 62.1332 654.107 61.9003 653.524 61.6976 652.696 61.5251L652.696 59.7653 659.787 59.5583 663.048 59.5583 662.66 63.2848 662.97 63.3625C664.54 61.896 665.955 60.8608 667.214 60.257 668.474 59.6531 669.759 59.3512 671.07 59.3512ZM640.36 59.3512C641.758 59.3512 643.151 59.4504 644.54 59.6488 645.929 59.8472 647.192 60.119 648.331 60.464L648.331 66.7008 643.207 66.7008C642.948 65.0791 642.56 63.8973 642.043 63.1554 641.525 62.4136 640.783 62.0426 639.817 62.0426 638.23 62.0426 637.035 62.8966 636.233 64.6046 635.43 66.3127 635.029 68.8919 635.029 72.3424 635.029 75.5169 635.495 77.8848 636.427 79.4462 637.358 81.0076 638.808 81.7882 640.774 81.7882 641.775 81.7882 642.72 81.5726 643.608 81.1413 644.497 80.71 645.545 79.9336 646.753 78.8122L648.745 81.2189C647.054 82.8752 645.42 84.0613 643.841 84.7773 642.263 85.4932 640.542 85.8512 638.678 85.8512 634.934 85.8512 632.079 84.7514 630.112 82.5517 628.146 80.352 627.162 77.1559 627.162 72.9635 627.162 70.1341 627.701 67.6886 628.78 65.6269 629.858 63.5652 631.406 62.0038 633.425 60.9428 635.443 59.8817 637.755 59.3512 640.36 59.3512Z" fill="#E6CFD3" fill-rule="evenodd"/><text fill="#000000" fill-opacity="0" font-family="Arial,Arial_MSFontService,sans-serif" font-size="26.5" x="627.162" y="82.5387">𝐜𝐦</text><path d="M7.91992-3.99999 102.759-3.99989 102.759 4.0001 7.91991 4.00001ZM29.9045 17.4551-0.0185392 1.4866e-07 29.9045-17.4551C31.8127-18.5682 34.262-17.9237 35.3751-16.0154 36.4883-14.1072 35.8437-11.658 33.9355-10.5448L9.93548 3.45513 9.93549-3.45511 33.9355 10.5449C35.8437 11.658 36.4882 14.1073 35.3751 16.0155 34.262 17.9237 31.8127 18.5683 29.9045 17.4551Z" fill="#E6CFD3" transform="matrix(-1 0 0 1 806.759 68)"/><path d="M367.956 64.0723 475.276 65.05 475.203 73.0497 367.883 72.072ZM389.744 85.7268 359.981 67.9998 390.062 50.818C391.981 49.7223 394.424 50.3892 395.52 52.3074 396.615 54.2257 395.948 56.669 394.03 57.7647L369.904 71.5455 369.967 64.6355 393.838 78.8536C395.736 79.9841 396.358 82.4391 395.228 84.3371 394.097 86.2351 391.642 86.8573 389.744 85.7268Z" fill="#E6CFD3"/><path d="M209.644 62.0426C208.039 62.0426 206.616 62.8492 205.374 64.4623 204.132 66.0754 203.131 68.2449 202.372 70.9709 201.613 73.6968 201.233 76.138 201.233 78.2946 201.233 79.554 201.419 80.4943 201.789 81.1154 202.16 81.7365 202.734 82.047 203.51 82.047 204.649 82.047 205.809 81.4906 206.991 80.3778 208.173 79.265 209.126 77.9582 209.851 76.4572 210.575 74.9562 211.222 72.9031 211.792 70.298L211.999 69.3405C212.275 68.0638 212.413 66.7957 212.413 65.5363 212.413 64.3804 212.197 63.5091 211.766 62.9225 211.334 62.3359 210.627 62.0426 209.644 62.0426ZM220.746 48.3786 223.67 48.3786 217.123 77.3629C216.864 78.5016 216.735 79.485 216.735 80.3131 216.735 80.8825 216.829 81.3224 217.019 81.633 217.209 81.9435 217.537 82.0988 218.003 82.0988 218.537 82.0988 219.115 81.8572 219.737 81.3742 220.358 80.8911 221.082 80.1751 221.91 79.2262L223.774 81.0895C221.962 82.901 220.401 84.1475 219.09 84.829 217.778 85.5105 216.398 85.8512 214.949 85.8512 213.5 85.8512 212.352 85.4501 211.507 84.6479 210.662 83.8456 210.239 82.7889 210.239 81.4777 210.239 81.0464 210.291 80.6323 210.394 80.2355L210.058 80.1579C208.419 82.1419 206.888 83.5868 205.464 84.4926 204.041 85.3983 202.337 85.8512 200.353 85.8512 198.404 85.8512 196.89 85.1439 195.811 83.7292 194.733 82.3144 194.194 80.27 194.194 77.5959 194.194 75.2668 194.53 72.9549 195.203 70.6603 195.876 68.3657 196.842 66.386 198.102 64.7211 199.361 63.0562 200.944 61.745 202.851 60.7875 204.757 59.83 206.909 59.3512 209.307 59.3512 210.843 59.3512 212.327 59.6186 213.758 60.1535L214.638 56.194C214.742 55.7627 214.863 55.1416 215.001 54.3307 215.139 53.5198 215.208 52.9074 215.208 52.4933 215.208 52.1138 215.169 51.8162 215.091 51.6005 215.014 51.3848 214.897 51.208 214.742 51.07 214.587 50.932 214.38 50.8241 214.121 50.7465 213.862 50.6689 213.353 50.5783 212.594 50.4748L213.008 48.7926Z" fill="#E6CFD3" fill-rule="evenodd"/><text fill="#000000" fill-opacity="0" font-family="Arial,Arial_MSFontService,sans-serif" font-size="37.4727" x="194.194" y="81.1671">𝒅</text><path d="M237.464 72.1583C236.563 72.1583 235.852 72.555 235.332 73.3485 234.811 74.142 234.437 75.3226 234.208 76.8905 233.98 78.4584 233.865 80.4991 233.865 83.0128 233.865 85.8058 233.989 88.0275 234.237 89.6778 234.484 91.3282 234.875 92.5438 235.408 93.3246 235.941 94.1053 236.652 94.4957 237.541 94.4957 238.023 94.4957 238.445 94.3783 238.807 94.1434 239.169 93.9086 239.492 93.5404 239.778 93.0389 240.064 92.5375 240.308 91.871 240.511 91.0394 240.714 90.2079 240.86 89.1732 240.949 87.9354 241.038 86.6976 241.083 85.317 241.083 83.7936 241.083 81.5211 240.997 79.6105 240.825 78.0616 240.654 76.5128 240.41 75.3194 240.092 74.4816 239.775 73.6437 239.4 73.047 238.969 72.6915 238.537 72.336 238.036 72.1583 237.464 72.1583ZM261.874 70.0255 264.311 70.0255C264.235 71.2442 264.197 72.9327 264.197 75.0909L264.197 91.0108C264.197 91.7472 264.238 92.3026 264.321 92.6771 264.403 93.0516 264.549 93.3563 264.759 93.5912 264.968 93.826 265.27 94.0101 265.663 94.1434 266.057 94.2767 266.552 94.3783 267.148 94.4481 267.745 94.5179 268.532 94.5655 269.51 94.5909L269.51 96.3238 253.076 96.3238 253.076 94.5909C254.485 94.5275 255.491 94.4418 256.094 94.3338 256.697 94.2259 257.157 94.0641 257.475 93.8483 257.792 93.6324 258.024 93.3277 258.17 92.9342 258.316 92.5406 258.389 91.8995 258.389 91.0108L258.389 77.2428C258.389 76.7223 258.29 76.3478 258.094 76.1192 257.897 75.8907 257.627 75.7765 257.284 75.7765 256.967 75.7765 256.519 75.9225 255.942 76.2145 255.364 76.5065 254.415 77.1031 253.095 78.0045L251.933 75.9859ZM237.579 70.0255C240.702 70.0255 243.031 71.0887 244.567 73.2152 246.104 75.3417 246.872 78.5948 246.872 82.9747 246.872 87.4689 246.056 90.868 244.425 93.1722 242.793 95.4764 240.397 96.6285 237.236 96.6285 234.113 96.6285 231.805 95.5462 230.314 93.3817 228.822 91.2171 228.076 87.9449 228.076 83.565 228.076 79.1725 228.908 75.8177 230.571 73.5008 232.234 71.1839 234.57 70.0255 237.579 70.0255Z" fill="#E6CFD3" fill-rule="evenodd"/><text fill="#000000" fill-opacity="0" font-family="Arial,Arial_MSFontService,sans-serif" font-size="26.603" x="228.076" y="93.3031">𝟎𝟏</text><path d="M7.92-3.99999 66.0869-3.99989 66.0869 4.0001 7.91999 4.00001ZM29.9045 17.4552-0.0185392-1.74347e-08 29.9045-17.4551C31.8128-18.5682 34.262-17.9236 35.3751-16.0154 36.4883-14.1072 35.8437-11.6579 33.9355-10.5448L9.93548 3.45513 9.93549-3.4551 33.9355 10.5449C35.8437 11.6581 36.4882 14.1073 35.3751 16.0155 34.262 17.9237 31.8127 18.5683 29.9045 17.4552Z" fill="#E6CFD3" transform="matrix(-1 0 0 1 364.087 68)"/><path d="M80 233.92 80.0001 386.091 72.0001 386.091 72 233.92ZM58.5449 255.905 76 225.981 93.4551 255.905C94.5683 257.813 93.9237 260.262 92.0155 261.375 90.1073 262.488 87.658 261.844 86.5449 259.935L72.5449 235.935 79.4551 235.935 65.4551 259.935C64.342 261.844 61.8927 262.488 59.9845 261.375 58.0763 260.262 57.4318 257.813 58.5449 255.905Z" fill="#E6CFD3"/><path d="M98.1172 141.142 130 141.142 130 144.584 98.1172 144.584ZM98.1172 130.402 130 130.402 130 133.844 98.1172 133.844Z" fill="#E6CFD3" fill-rule="evenodd"/><text fill="#000000" fill-opacity="0" font-family="Arial,Arial_MSFontService,sans-serif" font-size="14.1816" x="98.1172" y="142.811">=</text><path d="M196.746 119.792C195.521 119.792 194.555 120.331 193.847 121.409 193.14 122.488 192.631 124.092 192.32 126.223 192.01 128.354 191.855 131.127 191.855 134.543 191.855 138.338 192.023 141.358 192.359 143.6 192.696 145.843 193.226 147.495 193.951 148.556 194.675 149.617 195.642 150.148 196.849 150.148 197.505 150.148 198.079 149.988 198.57 149.669 199.062 149.35 199.502 148.85 199.89 148.168 200.278 147.487 200.61 146.581 200.886 145.451 201.162 144.321 201.361 142.915 201.482 141.233 201.602 139.55 201.663 137.674 201.663 135.604 201.663 132.516 201.546 129.919 201.313 127.814 201.08 125.71 200.748 124.088 200.317 122.949 199.886 121.81 199.377 121 198.79 120.517 198.204 120.033 197.522 119.792 196.746 119.792ZM196.901 116.893C201.145 116.893 204.311 118.338 206.399 121.228 208.486 124.118 209.53 128.539 209.53 134.491 209.53 140.599 208.421 145.218 206.205 148.349 203.988 151.481 200.731 153.046 196.435 153.046 192.191 153.046 189.055 151.576 187.028 148.634 185.001 145.692 183.987 141.246 183.987 135.293 183.987 129.324 185.118 124.765 187.378 121.616 189.638 118.468 192.812 116.893 196.901 116.893ZM164.72 116.893C167.981 116.893 170.586 117.558 172.535 118.886 174.485 120.215 175.46 122.069 175.46 124.45 175.46 126.451 174.886 128.177 173.739 129.626 172.591 131.075 170.672 132.421 167.981 133.663L167.981 133.896C170.5 134.362 172.488 135.371 173.946 136.924 175.404 138.476 176.132 140.4 176.132 142.695 176.132 144.696 175.645 146.477 174.67 148.039 173.696 149.6 172.216 150.825 170.232 151.714 168.248 152.602 165.841 153.046 163.012 153.046 161.062 153.046 159.147 152.869 157.267 152.516 155.386 152.162 153.747 151.666 152.35 151.028L152.35 144.532 157.008 144.532C157.508 146.499 158.216 147.927 159.13 148.815 160.044 149.704 161.243 150.148 162.727 150.148 166.385 150.148 168.214 147.888 168.214 143.368 168.214 140.935 167.571 139.123 166.286 137.933 165 136.743 163.046 136.147 160.424 136.147L158.38 136.147 158.38 133.197C161.382 133.076 163.659 132.373 165.212 131.088 166.764 129.803 167.541 127.944 167.541 125.511 167.541 123.596 167.153 122.151 166.376 121.176 165.6 120.202 164.47 119.714 162.986 119.714 161.537 119.714 160.346 120.232 159.415 121.267 158.483 122.302 157.845 123.82 157.5 125.822L152.841 125.822 152.841 119.688C157.206 117.825 161.166 116.893 164.72 116.893Z" fill="#E6CFD3" fill-rule="evenodd"/><text fill="#000000" fill-opacity="0" font-family="Arial,Arial_MSFontService,sans-serif" font-size="36.1528" x="152.35" y="148.527">𝟑𝟎</text><path d="M215.395 146.628 220.623 146.628 220.623 152.632 215.395 152.632Z" fill="#E6CFD3" fill-rule="evenodd"/><text fill="#000000" fill-opacity="0" font-family="Arial,Arial_MSFontService,sans-serif" font-size="6.00391" x="215.395" y="151.882">.</text><path d="M300.907 126.546C302.339 126.546 303.482 126.947 304.336 127.75 305.19 128.552 305.617 129.609 305.617 130.92 305.617 131.351 305.565 131.765 305.462 132.162L305.772 132.317C307.342 130.333 308.865 128.875 310.34 127.944 311.815 127.012 313.527 126.546 315.477 126.546 317.202 126.546 318.561 127.021 319.553 127.97 320.545 128.919 321.067 130.23 321.118 131.903 322.55 130.074 323.995 128.724 325.453 127.853 326.911 126.982 328.563 126.546 330.409 126.546 332.151 126.546 333.519 127.038 334.511 128.021 335.503 129.005 335.999 130.376 335.999 132.136 335.999 132.654 335.956 133.283 335.869 134.025 335.783 134.767 335.654 135.475 335.481 136.147L333.385 144.48C333.195 145.205 333.074 145.766 333.023 146.163 332.971 146.559 332.945 147.008 332.945 147.508 332.945 148.181 333.057 148.647 333.282 148.906 333.506 149.164 333.825 149.294 334.239 149.294 334.739 149.294 335.3 149.057 335.921 148.582 336.542 148.108 337.276 147.387 338.121 146.421L339.984 148.285C338.293 150.01 336.779 151.235 335.442 151.959 334.105 152.684 332.635 153.046 331.03 153.046 329.253 153.046 327.933 152.606 327.071 151.726 326.208 150.847 325.777 149.501 325.777 147.689 325.777 147.12 325.837 146.426 325.958 145.606 326.079 144.787 326.251 143.937 326.475 143.057L327.666 138.554C327.942 137.536 328.188 136.462 328.403 135.332 328.619 134.202 328.727 133.327 328.727 132.705 328.727 131.118 328.106 130.325 326.864 130.325 326.122 130.325 325.216 130.799 324.146 131.748 323.077 132.697 322.192 133.736 321.494 134.866 320.795 135.996 320.256 137.493 319.876 139.356L317.03 152.632 309.576 152.632 313.355 136.173C313.545 135.38 313.674 134.728 313.743 134.219 313.812 133.71 313.846 133.266 313.846 132.887 313.846 131.989 313.691 131.338 313.381 130.933 313.07 130.527 312.578 130.325 311.906 130.325 311.112 130.325 310.176 130.816 309.098 131.8 308.019 132.783 307.148 133.818 306.484 134.905 305.82 135.992 305.289 137.476 304.892 139.356L301.994 152.632 294.567 152.632 298.733 134.646C298.992 133.525 299.121 132.671 299.121 132.084 299.121 131.515 299.026 131.075 298.837 130.765 298.647 130.454 298.319 130.299 297.853 130.299 297.318 130.299 296.741 130.54 296.119 131.023 295.498 131.506 294.774 132.222 293.946 133.171L292.082 131.308C293.808 129.548 295.339 128.315 296.676 127.607 298.013 126.9 299.423 126.546 300.907 126.546ZM282.991 126.546C284.146 126.546 285.397 126.637 286.743 126.818 288.089 126.999 289.279 127.254 290.314 127.581L288.865 133.896 284.207 133.896C284.241 133.534 284.259 133.163 284.259 132.783 284.259 131.541 284.069 130.639 283.689 130.079 283.31 129.518 282.749 129.238 282.007 129.238 280.73 129.238 279.514 129.971 278.358 131.437 277.202 132.904 276.236 134.94 275.46 137.545 274.683 140.15 274.295 142.436 274.295 144.403 274.295 147.646 275.477 149.268 277.841 149.268 279.031 149.268 280.157 149.001 281.218 148.466 282.279 147.931 283.482 147.034 284.828 145.774L286.924 148.026C285.113 149.837 283.301 151.127 281.49 151.895 279.678 152.662 277.685 153.046 275.512 153.046 272.872 153.046 270.823 152.222 269.365 150.575 267.907 148.927 267.178 146.637 267.178 143.704 267.178 140.961 267.795 138.166 269.029 135.319 270.262 132.473 272.087 130.299 274.502 128.798 276.918 127.297 279.747 126.546 282.991 126.546ZM248.299 119.792C247.074 119.792 246.108 120.331 245.401 121.409 244.693 122.488 244.184 124.092 243.874 126.223 243.563 128.354 243.408 131.127 243.408 134.543 243.408 138.338 243.576 141.358 243.913 143.6 244.249 145.843 244.78 147.495 245.504 148.556 246.229 149.617 247.195 150.148 248.403 150.148 249.058 150.148 249.632 149.988 250.124 149.669 250.615 149.35 251.055 148.85 251.443 148.168 251.832 147.487 252.164 146.581 252.44 145.451 252.716 144.321 252.914 142.915 253.035 141.233 253.156 139.55 253.216 137.674 253.216 135.604 253.216 132.516 253.1 129.919 252.867 127.814 252.634 125.71 252.302 124.088 251.87 122.949 251.439 121.81 250.93 121 250.344 120.517 249.757 120.033 249.075 119.792 248.299 119.792ZM248.454 116.893C252.699 116.893 255.864 118.338 257.952 121.228 260.039 124.118 261.083 128.539 261.083 134.491 261.083 140.599 259.975 145.218 257.758 148.349 255.541 151.481 252.284 153.046 247.989 153.046 243.744 153.046 240.609 151.576 238.582 148.634 236.554 145.692 235.541 141.246 235.541 135.293 235.541 129.324 236.671 124.765 238.931 121.616 241.191 118.468 244.366 116.893 248.454 116.893Z" fill="#E6CFD3" fill-rule="evenodd"/><text fill="#000000" fill-opacity="0" font-family="Arial,Arial_MSFontService,sans-serif" font-size="36.1528" x="235.541" y="148.527">𝟎𝒄𝒎</text><path d="M83.9199 65 176.543 65.0001 176.543 73.0001 83.9199 73ZM105.904 86.4551 75.9815 69 105.905 51.5449C107.813 50.4318 110.262 51.0763 111.375 52.9846 112.488 54.8928 111.844 57.342 109.935 58.4552L85.9355 72.4551 85.9355 65.5449 109.935 79.5449C111.844 80.658 112.488 83.1073 111.375 85.0155 110.262 86.9237 107.813 87.5683 105.904 86.4551Z" fill="#E6CFD3"/><text fill="#E6CFD3" font-family="Calibri,Calibri_MSFontService,sans-serif" font-weight="700" font-size="53" transform="translate(892.327 88)">2</text><path d="M935.165 55.1669C933.94 55.1669 932.974 55.7061 932.266 56.7843 931.559 57.8626 931.05 59.4671 930.739 61.5978 930.429 63.7285 930.273 66.5019 930.273 69.9179 930.273 73.7135 930.442 76.7327 930.778 78.9755 931.115 81.2183 931.645 82.8703 932.37 83.9313 933.094 84.9924 934.06 85.5229 935.268 85.5229 935.924 85.5229 936.497 85.3633 936.989 85.0441 937.481 84.7249 937.921 84.2246 938.309 83.5431 938.697 82.8617 939.029 81.9559 939.305 80.8259 939.581 79.6958 939.78 78.2897 939.9 76.6076 940.021 74.9255 940.082 73.0492 940.082 70.9789 940.082 67.8907 939.965 65.2942 939.732 63.1894 939.499 61.0846 939.167 59.4628 938.736 58.3241 938.305 57.1855 937.796 56.3746 937.209 55.8915 936.622 55.4085 935.941 55.1669 935.165 55.1669ZM935.32 52.2685C939.564 52.2685 942.73 53.7134 944.817 56.6032 946.905 59.493 947.949 63.914 947.949 69.8661 947.949 75.9736 946.84 80.5929 944.623 83.7243 942.406 86.8556 939.15 88.4213 934.854 88.4213 930.61 88.4213 927.474 86.9505 925.447 84.009 923.42 81.0674 922.406 76.6205 922.406 70.6684 922.406 64.699 923.536 60.14 925.796 56.9914 928.057 53.8428 931.231 52.2685 935.32 52.2685Z" fill="#E6CFD3" fill-rule="evenodd"/><text fill="#000000" fill-opacity="0" font-family="Arial,Arial_MSFontService,sans-serif" font-size="36.1528" x="922.406" y="83.9022">𝟎</text><path d="M953.981 82.0033 959.208 82.0033 959.208 88.0072 953.981 88.0072Z" fill="#E6CFD3" fill-rule="evenodd"/><text fill="#000000" fill-opacity="0" font-family="Arial,Arial_MSFontService,sans-serif" font-size="6.00391" x="953.981" y="87.2568">.</text><path d="M986.885 55.1669C985.66 55.1669 984.693 55.7061 983.986 56.7843 983.279 57.8626 982.77 59.4671 982.459 61.5978 982.149 63.7285 981.993 66.5019 981.993 69.9179 981.993 73.7135 982.162 76.7327 982.498 78.9755 982.835 81.2183 983.365 82.8703 984.09 83.9313 984.814 84.9924 985.78 85.5229 986.988 85.5229 987.644 85.5229 988.217 85.3633 988.709 85.0441 989.201 84.7249 989.641 84.2246 990.029 83.5431 990.417 82.8617 990.749 81.9559 991.025 80.8259 991.301 79.6958 991.5 78.2897 991.62 76.6076 991.741 74.9255 991.802 73.0492 991.802 70.9789 991.802 67.8907 991.685 65.2942 991.452 63.1894 991.219 61.0846 990.887 59.4628 990.456 58.3241 990.025 57.1855 989.516 56.3746 988.929 55.8915 988.342 55.4085 987.661 55.1669 986.885 55.1669ZM987.04 52.2685C991.284 52.2685 994.45 53.7134 996.537 56.6032 998.625 59.493 999.669 63.914 999.669 69.8661 999.669 75.9736 998.56 80.5929 996.343 83.7243 994.126 86.8556 990.87 88.4213 986.574 88.4213 982.33 88.4213 979.194 86.9505 977.167 84.009 975.14 81.0674 974.126 76.6205 974.126 70.6684 974.126 64.699 975.256 60.14 977.516 56.9914 979.776 53.8428 982.951 52.2685 987.04 52.2685Z" fill="#E6CFD3" fill-rule="evenodd"/><text fill="#000000" fill-opacity="0" font-family="Arial,Arial_MSFontService,sans-serif" font-size="36.1528" x="974.126" y="83.9022">𝟎</text><path d="M1061.2 61.9213C1063.08 61.9213 1064.55 62.2966 1065.62 63.047 1066.69 63.7975 1067.47 64.8888 1067.95 66.3207 1069.69 64.699 1071.21 63.5603 1072.49 62.9047 1073.78 62.2491 1075.12 61.9213 1076.52 61.9213 1077.9 61.9213 1079.04 62.1025 1079.95 62.4648 1080.85 62.8271 1081.6 63.3878 1082.19 64.1469 1082.77 64.906 1083.2 65.8549 1083.47 66.9936 1083.73 68.1322 1083.87 69.4952 1083.87 71.0824L1083.87 80.5282C1083.87 82.1672 1083.92 83.2973 1084.02 83.9184 1084.13 84.5395 1084.34 85.0355 1084.67 85.4064 1085 85.7774 1085.6 86.075 1086.48 86.2992L1086.48 88.0072 1074.01 88.0072 1074.01 86.2992C1074.78 86.1095 1075.32 85.8334 1075.61 85.4711 1075.91 85.1088 1076.11 84.6085 1076.22 83.9701 1076.33 83.3318 1076.39 82.1931 1076.39 80.5541L1076.39 73.6186C1076.39 72.0658 1076.34 70.8021 1076.23 69.8273 1076.13 68.8525 1075.93 68.0891 1075.64 67.537 1075.35 66.985 1075 66.5881 1074.59 66.3466 1074.18 66.1051 1073.65 65.9843 1073 65.9843 1072.55 65.9843 1072.14 66.0533 1071.76 66.1913 1071.38 66.3293 1070.99 66.5407 1070.6 66.8254 1070.22 67.11 1069.88 67.399 1069.61 67.6923 1069.33 67.9856 1069.11 68.3134 1068.95 68.6757 1068.78 69.038 1068.67 69.4435 1068.61 69.892 1068.55 70.3406 1068.52 71.0738 1068.52 72.0917L1068.52 80.5282C1068.52 82.0637 1068.56 83.1722 1068.65 83.8537 1068.74 84.5352 1068.94 85.0614 1069.27 85.4323 1069.6 85.8032 1070.15 86.0922 1070.93 86.2992L1070.93 88.0072 1058.61 88.0072 1058.61 86.2992C1059.4 86.1095 1059.95 85.8334 1060.25 85.4711 1060.56 85.1088 1060.76 84.6128 1060.86 83.9831 1060.97 83.3534 1061.02 82.2104 1061.02 80.5541L1061.02 73.6186C1061.02 72.4799 1061 71.5181 1060.95 70.7331 1060.91 69.9481 1060.84 69.3141 1060.73 68.831 1060.63 68.3479 1060.49 67.9252 1060.31 67.5629 1060.12 67.2006 1059.92 66.9073 1059.68 66.683 1059.45 66.4587 1059.18 66.2862 1058.86 66.1655 1058.54 66.0447 1058.14 65.9843 1057.65 65.9843 1057.01 65.9843 1056.35 66.1827 1055.65 66.5795 1054.95 66.9763 1054.36 67.5284 1053.89 68.2358 1053.41 68.9431 1053.18 69.7022 1053.18 70.5131L1053.18 80.5282C1053.18 82.15 1053.22 83.2843 1053.32 83.9313 1053.41 84.5783 1053.62 85.0872 1053.93 85.4582 1054.24 85.8291 1054.78 86.1095 1055.56 86.2992L1055.56 88.0072 1043.16 88.0072 1043.16 86.2992C1043.99 86.075 1044.56 85.7817 1044.88 85.4194 1045.2 85.0571 1045.42 84.5654 1045.53 83.9443 1045.64 83.3232 1045.7 82.1931 1045.7 80.5541L1045.7 69.9179C1045.7 68.6412 1045.68 67.6966 1045.63 67.0842 1045.59 66.4717 1045.49 65.98 1045.32 65.6091 1045.16 65.2381 1044.91 64.9362 1044.57 64.7033 1044.23 64.4704 1043.65 64.2677 1042.82 64.0951L1042.82 62.3354 1049.91 62.1283 1053.18 62.1283 1052.79 65.8549 1053.1 65.9325C1054.67 64.4661 1056.08 63.4309 1057.34 62.8271 1058.6 62.2232 1059.89 61.9213 1061.2 61.9213ZM1030.49 61.9213C1031.89 61.9213 1033.28 62.0205 1034.67 62.2189 1036.06 62.4173 1037.32 62.6891 1038.46 63.0341L1038.46 69.2709 1033.33 69.2709C1033.08 67.6492 1032.69 66.4674 1032.17 65.7255 1031.65 64.9836 1030.91 64.6127 1029.94 64.6127 1028.36 64.6127 1027.16 65.4667 1026.36 67.1747 1025.56 68.8827 1025.16 71.462 1025.16 74.9125 1025.16 78.087 1025.62 80.4549 1026.55 82.0163 1027.49 83.5776 1028.94 84.3583 1030.9 84.3583 1031.9 84.3583 1032.85 84.1427 1033.74 83.7113 1034.62 83.28 1035.67 82.5037 1036.88 81.3822L1038.87 83.789C1037.18 85.4452 1035.55 86.6314 1033.97 87.3473 1032.39 88.0633 1030.67 88.4213 1028.81 88.4213 1025.06 88.4213 1022.21 87.3215 1020.24 85.1217 1018.27 82.922 1017.29 79.726 1017.29 75.5336 1017.29 72.7042 1017.83 70.2586 1018.91 68.1969 1019.99 66.1353 1021.53 64.5739 1023.55 63.5129 1025.57 62.4518 1027.88 61.9213 1030.49 61.9213Z" fill="#E6CFD3" fill-rule="evenodd"/><text fill="#000000" fill-opacity="0" font-family="Arial,Arial_MSFontService,sans-serif" font-size="26.5" x="1017.29" y="85.1088">𝐜𝐦</text><path d="M7.91992-3.99999 102.759-3.99989 102.759 4.0001 7.91991 4.00001ZM29.9045 17.4551-0.0185392 1.4866e-07 29.9045-17.4551C31.8127-18.5682 34.262-17.9237 35.3751-16.0154 36.4883-14.1072 35.8437-11.658 33.9355-10.5448L9.93548 3.45513 9.93549-3.45511 33.9355 10.5449C35.8437 11.658 36.4882 14.1073 35.3751 16.0155 34.262 17.9237 31.8127 18.5683 29.9045 17.4551Z" fill="#E6CFD3" transform="matrix(-1 0 0 1 1193.76 73)"/><path d="M816.934 66.0279 884.84 66.2673 884.812 74.2673 816.906 74.0279ZM838.843 87.5604 808.981 69.9999 838.966 52.6504C840.878 51.544 843.325 52.1972 844.431 54.1093 845.538 56.0214 844.885 58.4684 842.972 59.5748L818.923 73.4901 818.948 66.5799 842.898 80.6644C844.802 81.7843 845.438 84.2358 844.318 86.1401 843.199 88.0444 840.747 88.6803 838.843 87.5604Z" fill="#E6CFD3"/><path d="M537.595 599.51C535.991 599.51 534.567 600.317 533.325 601.93 532.083 603.543 531.082 605.712 530.323 608.438 529.564 611.164 529.185 613.605 529.185 615.762 529.185 617.021 529.37 617.962 529.741 618.583 530.112 619.204 530.685 619.514 531.462 619.514 532.601 619.514 533.761 618.958 534.943 617.845 536.124 616.732 537.078 615.425 537.802 613.924 538.527 612.424 539.174 610.37 539.743 607.765L539.95 606.808C540.226 605.531 540.364 604.263 540.364 603.004 540.364 601.848 540.149 600.976 539.717 600.39 539.286 599.803 538.579 599.51 537.595 599.51ZM548.697 585.846 551.622 585.846 545.074 614.83C544.815 615.969 544.686 616.952 544.686 617.78 544.686 618.35 544.781 618.79 544.971 619.1 545.16 619.411 545.488 619.566 545.954 619.566 546.489 619.566 547.067 619.325 547.688 618.841 548.309 618.358 549.034 617.642 549.862 616.694L551.725 618.557C549.914 620.368 548.352 621.615 547.041 622.296 545.73 622.978 544.35 623.319 542.9 623.319 541.451 623.319 540.304 622.917 539.458 622.115 538.613 621.313 538.19 620.256 538.19 618.945 538.19 618.514 538.242 618.1 538.346 617.703L538.009 617.625C536.37 619.609 534.839 621.054 533.416 621.96 531.992 622.866 530.289 623.319 528.305 623.319 526.355 623.319 524.841 622.611 523.763 621.196 522.685 619.782 522.145 617.737 522.145 615.063 522.145 612.734 522.482 610.422 523.155 608.128 523.828 605.833 524.794 603.853 526.053 602.188 527.313 600.524 528.896 599.212 530.802 598.255 532.708 597.297 534.861 596.819 537.259 596.819 538.794 596.819 540.278 597.086 541.71 597.621L542.59 593.661C542.693 593.23 542.814 592.609 542.952 591.798 543.09 590.987 543.159 590.375 543.159 589.961 543.159 589.581 543.12 589.283 543.043 589.068 542.965 588.852 542.849 588.675 542.693 588.537 542.538 588.399 542.331 588.291 542.072 588.214 541.813 588.136 541.304 588.046 540.545 587.942L540.959 586.26Z" fill="#E6CFD3" fill-rule="evenodd"/><text fill="#000000" fill-opacity="0" font-family="Arial,Arial_MSFontService,sans-serif" font-size="37.4727" x="522.145" y="618.634">𝒅</text><path d="M562.921 614.691 565.092 614.691 562.045 627.793C561.918 628.326 561.833 628.738 561.788 629.03 561.744 629.322 561.721 629.652 561.721 630.021 561.721 630.516 561.804 630.859 561.969 631.049 562.134 631.239 562.369 631.335 562.674 631.335 563.042 631.335 563.454 631.16 563.911 630.811 564.368 630.462 564.908 629.932 565.53 629.221L566.901 630.592C565.657 631.861 564.543 632.763 563.559 633.296 562.575 633.829 561.493 634.096 560.312 634.096 558.967 634.096 557.983 633.766 557.361 633.106 556.739 632.445 556.427 631.449 556.427 630.116 556.427 629.265 556.567 628.269 556.846 627.126L558.446 620.499C558.738 619.293 558.884 618.341 558.884 617.643 558.884 617.148 558.767 616.795 558.532 616.586 558.297 616.376 557.805 616.234 557.056 616.157L557.342 614.901ZM581.825 607.493 584.262 607.493C584.186 608.712 584.148 610.4 584.148 612.558L584.148 628.478C584.148 629.214 584.189 629.77 584.272 630.144 584.354 630.519 584.5 630.824 584.71 631.058 584.919 631.293 585.221 631.477 585.615 631.611 586.008 631.744 586.503 631.846 587.1 631.915 587.697 631.985 588.484 632.033 589.461 632.058L589.461 633.791 573.027 633.791 573.027 632.058C574.436 631.995 575.442 631.909 576.045 631.801 576.648 631.693 577.109 631.531 577.426 631.316 577.743 631.1 577.975 630.795 578.121 630.401 578.267 630.008 578.34 629.367 578.34 628.478L578.34 614.71C578.34 614.19 578.242 613.815 578.045 613.587 577.848 613.358 577.578 613.244 577.236 613.244 576.918 613.244 576.471 613.39 575.893 613.682 575.315 613.974 574.366 614.57 573.046 615.472L571.885 613.453ZM561.531 607.302 566.406 607.302 565.416 611.968 560.484 611.968Z" fill="#E6CFD3" fill-rule="evenodd"/><text fill="#000000" fill-opacity="0" font-family="Arial,Arial_MSFontService,sans-serif" font-size="26.7935" x="556.427" y="630.747">𝒊𝟏</text><text fill="#E6CFD3" font-family="Calibri,Calibri_MSFontService,sans-serif" font-weight="700" font-size="53" transform="translate(593.808 623)">=60.0 cm</text><path d="M1083.73 610.41 807.98 609 808.021 601 1083.78 602.41ZM1061.86 588.842 1091.69 606.45 1061.68 623.752C1059.77 624.855 1057.32 624.198 1056.22 622.285 1055.11 620.371 1055.77 617.925 1057.69 616.821L1081.76 602.944 1081.72 609.854 1057.79 595.732C1055.89 594.609 1055.26 592.156 1056.38 590.254 1057.5 588.352 1059.96 587.719 1061.86 588.842Z" fill="#E6CFD3"/><path d="M371.92 602 519.602 602 519.602 610 371.92 610ZM393.905 623.455 363.981 606 393.905 588.545C395.813 587.432 398.262 588.076 399.375 589.985 400.488 591.893 399.844 594.342 397.935 595.455L373.935 609.455 373.935 602.545 397.935 616.545C399.844 617.658 400.488 620.107 399.375 622.016 398.262 623.924 395.813 624.568 393.905 623.455Z" fill="#E6CFD3"/><path d="M1086.51 594.98 1081 385.105 1089 384.895 1094.51 594.77ZM1107.38 572.44 1090.72 602.811 1072.48 573.356C1071.32 571.478 1071.9 569.012 1073.78 567.849 1075.66 566.687 1078.12 567.267 1079.28 569.145L1093.91 592.769 1087 592.951 1100.37 568.592C1101.43 566.655 1103.86 565.946 1105.8 567.009 1107.73 568.072 1108.44 570.503 1107.38 572.44Z" fill="#E6CFD3"/></g></svg>