<svg width="1247" height="654" xmlns="http://www.w3.org/2000/svg" xmlns:xlink="http://www.w3.org/1999/xlink" overflow="hidden"><defs><clipPath id="clip0"><rect x="20" y="31" width="1247" height="654"/></clipPath></defs><g clip-path="url(#clip0)" transform="translate(-20 -31)"><path d="M20 385 1261.56 385" stroke="#E6CFD3" stroke-width="8" stroke-miterlimit="8" stroke-dasharray="32 24" fill="none" fill-rule="evenodd"/><path d="M324 385C324 262.945 339.894 164 359.5 164 379.106 164 395 262.945 395 385 395 507.055 379.106 606 359.5 606 339.894 606 324 507.055 324 385Z" stroke="#E6CFD3" stroke-width="8" stroke-miterlimit="8" fill="none" fill-rule="evenodd"/><path d="M746 385C746 262.945 777.116 164 815.5 164 853.884 164 885 262.945 885 385 885 507.055 853.884 606 815.5 606 777.116 606 746 507.055 746 385Z" stroke="#E6CFD3" stroke-width="8" stroke-miterlimit="8" fill="none" fill-rule="evenodd"/><path d="M246.831 632.776C248.556 632.776 250.178 632.931 251.696 633.242L250.532 638.417 247.193 638.417C247.124 637.348 246.952 636.589 246.676 636.14 246.4 635.691 245.968 635.467 245.382 635.467 244.692 635.467 244.131 635.709 243.699 636.192 243.268 636.675 242.906 637.33 242.613 638.159 242.319 638.987 242.026 640.074 241.733 641.419L241.086 644.266 246.624 644.266 245.925 647.501 240.361 647.501 235.677 669.136C234.763 673.328 233.288 676.438 231.252 678.465 229.216 680.492 226.671 681.506 223.617 681.506 222.876 681.506 222.28 681.463 221.832 681.376L222.453 678.478C222.798 678.53 223.109 678.556 223.385 678.556 224.368 678.556 225.183 678.012 225.83 676.925 226.477 675.838 227.051 674.208 227.551 672.034L233.089 647.501 229.181 647.501 229.647 645.405C230.838 645.387 231.679 645.301 232.17 645.146 232.662 644.991 233.068 644.706 233.387 644.292 233.706 643.878 234.012 643.11 234.305 641.989 234.737 640.35 235.28 638.991 235.936 637.913 236.591 636.834 237.445 635.894 238.498 635.092 239.55 634.29 240.779 633.703 242.186 633.332 243.592 632.961 245.14 632.776 246.831 632.776Z" fill="#E6CFD3" fill-rule="evenodd"/><text fill="#000000" fill-opacity="0" font-family="Arial,Arial_MSFontService,sans-serif" font-size="48.73" x="221.832" y="675.414">𝒇</text><path d="M265.283 654.526 267.721 654.526C267.645 655.745 267.607 657.433 267.607 659.592L267.607 675.512C267.607 676.248 267.648 676.803 267.73 677.178 267.813 677.552 267.959 677.857 268.168 678.092 268.378 678.327 268.679 678.511 269.073 678.644 269.467 678.777 269.962 678.879 270.558 678.949 271.155 679.019 271.942 679.066 272.92 679.092L272.92 680.825 256.486 680.825 256.486 679.092C257.895 679.028 258.901 678.942 259.504 678.835 260.107 678.727 260.567 678.565 260.885 678.349 261.202 678.133 261.434 677.828 261.58 677.435 261.726 677.041 261.799 676.4 261.799 675.512L261.799 661.743C261.799 661.223 261.7 660.848 261.503 660.62 261.307 660.391 261.037 660.277 260.694 660.277 260.377 660.277 259.929 660.423 259.352 660.715 258.774 661.007 257.825 661.604 256.505 662.505L255.343 660.487Z" fill="#E6CFD3" fill-rule="evenodd"/><text fill="#000000" fill-opacity="0" font-family="Arial,Arial_MSFontService,sans-serif" font-size="26.2983" x="255.343" y="677.537">𝟏</text><path d="M296.436 658.448 328.319 658.448 328.319 661.89 296.436 661.89ZM296.436 647.708 328.319 647.708 328.319 651.15 296.436 651.15Z" fill="#E6CFD3" fill-rule="evenodd"/><text fill="#000000" fill-opacity="0" font-family="Arial,Arial_MSFontService,sans-serif" font-size="14.1816" x="296.436" y="660.117">=</text><path d="M395.065 637.098C393.84 637.098 392.874 637.637 392.166 638.715 391.459 639.793 390.95 641.398 390.639 643.528 390.329 645.659 390.173 648.432 390.173 651.849 390.173 655.644 390.342 658.663 390.678 660.906 391.015 663.149 391.545 664.801 392.27 665.862 392.994 666.923 393.96 667.453 395.168 667.453 395.824 667.453 396.397 667.294 396.889 666.975 397.381 666.656 397.821 666.155 398.209 665.474 398.597 664.792 398.929 663.887 399.205 662.756 399.481 661.626 399.68 660.22 399.8 658.538 399.921 656.856 399.982 654.98 399.982 652.91 399.982 649.821 399.865 647.225 399.632 645.12 399.399 643.015 399.067 641.393 398.636 640.255 398.205 639.116 397.696 638.305 397.109 637.822 396.522 637.339 395.841 637.098 395.065 637.098ZM395.22 634.199C399.464 634.199 402.63 635.644 404.717 638.534 406.805 641.424 407.849 645.845 407.849 651.797 407.849 657.904 406.74 662.524 404.523 665.655 402.306 668.786 399.05 670.352 394.754 670.352 390.51 670.352 387.374 668.881 385.347 665.94 383.32 662.998 382.306 658.551 382.306 652.599 382.306 646.63 383.436 642.071 385.696 638.922 387.957 635.773 391.131 634.199 395.22 634.199ZM362.961 634.199C365.497 634.199 367.568 634.54 369.172 635.221 370.776 635.903 371.937 636.826 372.653 637.99 373.369 639.155 373.727 640.514 373.727 642.066 373.727 643.429 373.472 644.697 372.963 645.87 372.454 647.044 371.574 648.381 370.324 649.882 369.073 651.383 366.964 653.531 363.996 656.326 363.082 657.188 361.991 658.323 360.723 659.729 359.454 661.135 358.449 662.338 357.708 663.339L357.708 663.598 366.895 663.598C368.016 663.598 368.853 663.516 369.405 663.352 369.957 663.188 370.393 662.903 370.712 662.498 371.031 662.092 371.294 661.484 371.501 660.673L374.477 660.673 373.882 669.938 350.177 669.938 350.177 668.23C351.505 665.176 354.223 661.243 358.329 656.429 360.192 654.238 361.611 652.435 362.586 651.02 363.561 649.606 364.29 648.269 364.773 647.009 365.256 645.75 365.497 644.447 365.497 643.101 365.497 641.204 365.074 639.716 364.229 638.637 363.384 637.559 362.228 637.02 360.761 637.02 357.949 637.02 356.146 639.047 355.353 643.101L350.694 643.101 350.694 636.994C353.507 635.855 355.775 635.105 357.501 634.743 359.226 634.38 361.046 634.199 362.961 634.199Z" fill="#E6CFD3" fill-rule="evenodd"/><text fill="#000000" fill-opacity="0" font-family="Arial,Arial_MSFontService,sans-serif" font-size="36.1528" x="350.177" y="665.833">𝟐𝟎</text><path d="M413.714 663.934 418.942 663.934 418.942 669.938 413.714 669.938Z" fill="#E6CFD3" fill-rule="evenodd"/><text fill="#000000" fill-opacity="0" font-family="Arial,Arial_MSFontService,sans-serif" font-size="6.00391" x="413.714" y="669.187">.</text><path d="M446.618 637.098C445.393 637.098 444.427 637.637 443.719 638.715 443.012 639.793 442.503 641.398 442.193 643.528 441.882 645.659 441.727 648.432 441.727 651.849 441.727 655.644 441.895 658.663 442.231 660.906 442.568 663.149 443.098 664.801 443.823 665.862 444.548 666.923 445.514 667.453 446.721 667.453 447.377 667.453 447.951 667.294 448.442 666.975 448.934 666.656 449.374 666.155 449.762 665.474 450.15 664.792 450.482 663.887 450.759 662.756 451.035 661.626 451.233 660.22 451.354 658.538 451.474 656.856 451.535 654.98 451.535 652.91 451.535 649.821 451.418 647.225 451.186 645.12 450.953 643.015 450.62 641.393 450.189 640.255 449.758 639.116 449.249 638.305 448.662 637.822 448.076 637.339 447.394 637.098 446.618 637.098ZM446.773 634.199C451.017 634.199 454.183 635.644 456.271 638.534 458.358 641.424 459.402 645.845 459.402 651.797 459.402 657.904 458.294 662.524 456.077 665.655 453.86 668.786 450.603 670.352 446.307 670.352 442.063 670.352 438.928 668.881 436.9 665.94 434.873 662.998 433.86 658.551 433.86 652.599 433.86 646.63 434.99 642.071 437.25 638.922 439.51 635.773 442.684 634.199 446.773 634.199Z" fill="#E6CFD3" fill-rule="evenodd"/><text fill="#000000" fill-opacity="0" font-family="Arial,Arial_MSFontService,sans-serif" font-size="36.1528" x="433.86" y="665.833">𝟎</text><path d="M520.931 643.852C522.812 643.852 524.287 644.227 525.357 644.978 526.426 645.728 527.203 646.819 527.686 648.251 529.428 646.63 530.942 645.491 532.228 644.835 533.513 644.18 534.854 643.852 536.252 643.852 537.632 643.852 538.775 644.033 539.681 644.395 540.586 644.758 541.333 645.318 541.919 646.078 542.506 646.837 542.933 647.786 543.2 648.924 543.468 650.063 543.601 651.426 543.601 653.013L543.601 662.459C543.601 664.098 543.653 665.228 543.757 665.849 543.86 666.47 544.076 666.966 544.404 667.337 544.731 667.708 545.335 668.006 546.215 668.23L546.215 669.938 533.741 669.938 533.741 668.23C534.518 668.04 535.053 667.764 535.346 667.402 535.639 667.039 535.842 666.539 535.954 665.901 536.066 665.262 536.122 664.124 536.122 662.485L536.122 655.549C536.122 653.996 536.071 652.733 535.967 651.758 535.864 650.783 535.665 650.02 535.372 649.468 535.078 648.916 534.729 648.519 534.324 648.277 533.918 648.036 533.388 647.915 532.732 647.915 532.284 647.915 531.87 647.984 531.49 648.122 531.11 648.26 530.727 648.471 530.338 648.756 529.95 649.041 529.618 649.33 529.342 649.623 529.066 649.916 528.846 650.244 528.682 650.606 528.518 650.969 528.406 651.374 528.346 651.823 528.285 652.271 528.255 653.004 528.255 654.022L528.255 662.459C528.255 663.994 528.298 665.103 528.385 665.784 528.471 666.466 528.678 666.992 529.006 667.363 529.333 667.734 529.885 668.023 530.662 668.23L530.662 669.938 518.344 669.938 518.344 668.23C519.137 668.04 519.685 667.764 519.987 667.402 520.289 667.039 520.491 666.543 520.595 665.914 520.698 665.284 520.75 664.141 520.75 662.485L520.75 655.549C520.75 654.411 520.729 653.449 520.686 652.664 520.642 651.879 520.569 651.245 520.466 650.762 520.362 650.279 520.22 649.856 520.039 649.494 519.857 649.131 519.65 648.838 519.417 648.614 519.185 648.389 518.909 648.217 518.589 648.096 518.27 647.975 517.869 647.915 517.386 647.915 516.748 647.915 516.079 648.113 515.38 648.51 514.682 648.907 514.095 649.459 513.621 650.166 513.146 650.874 512.909 651.633 512.909 652.444L512.909 662.459C512.909 664.081 512.956 665.215 513.051 665.862 513.146 666.509 513.349 667.018 513.659 667.389 513.97 667.76 514.513 668.04 515.29 668.23L515.29 669.938 502.894 669.938 502.894 668.23C503.722 668.006 504.296 667.712 504.615 667.35 504.934 666.988 505.15 666.496 505.262 665.875 505.374 665.254 505.43 664.124 505.43 662.485L505.43 651.849C505.43 650.572 505.408 649.627 505.365 649.015 505.322 648.402 505.219 647.911 505.055 647.54 504.891 647.169 504.641 646.867 504.304 646.634 503.968 646.401 503.385 646.198 502.557 646.026L502.557 644.266 509.648 644.059 512.909 644.059 512.521 647.786 512.831 647.863C514.401 646.397 515.816 645.362 517.075 644.758 518.335 644.154 519.62 643.852 520.931 643.852ZM490.221 643.852C491.619 643.852 493.012 643.951 494.401 644.15 495.79 644.348 497.053 644.62 498.192 644.965L498.192 651.202 493.068 651.202C492.809 649.58 492.421 648.398 491.904 647.656 491.386 646.914 490.644 646.543 489.678 646.543 488.091 646.543 486.896 647.397 486.094 649.105 485.291 650.813 484.89 653.393 484.89 656.843 484.89 660.018 485.356 662.386 486.288 663.947 487.219 665.508 488.669 666.289 490.635 666.289 491.636 666.289 492.581 666.073 493.469 665.642 494.358 665.211 495.406 664.434 496.613 663.313L498.606 665.72C496.915 667.376 495.281 668.562 493.702 669.278 492.124 669.994 490.403 670.352 488.539 670.352 484.795 670.352 481.94 669.252 479.973 667.052 478.007 664.853 477.023 661.657 477.023 657.464 477.023 654.635 477.562 652.189 478.641 650.128 479.719 648.066 481.267 646.505 483.286 645.443 485.304 644.382 487.616 643.852 490.221 643.852Z" fill="#E6CFD3" fill-rule="evenodd"/><text fill="#000000" fill-opacity="0" font-family="Arial,Arial_MSFontService,sans-serif" font-size="26.5" x="477.023" y="667.039">𝐜𝐦</text><path d="M694.135 632.776C695.86 632.776 697.482 632.931 699 633.241L697.836 638.417 694.497 638.417C694.428 637.348 694.256 636.588 693.98 636.14 693.704 635.691 693.273 635.467 692.686 635.467 691.996 635.467 691.435 635.709 691.004 636.192 690.573 636.675 690.21 637.33 689.917 638.158 689.624 638.987 689.33 640.073 689.037 641.419L688.39 644.266 693.928 644.266 693.229 647.501 687.665 647.501 682.981 669.135C682.067 673.328 680.592 676.438 678.556 678.465 676.52 680.492 673.976 681.506 670.922 681.506 670.18 681.506 669.585 681.462 669.136 681.376L669.757 678.478C670.102 678.53 670.413 678.555 670.689 678.555 671.672 678.555 672.487 678.012 673.134 676.925 673.781 675.838 674.355 674.208 674.855 672.034L680.393 647.501 676.486 647.501 676.952 645.405C678.142 645.387 678.983 645.301 679.475 645.146 679.966 644.99 680.372 644.706 680.691 644.292 681.01 643.878 681.317 643.11 681.61 641.989 682.041 640.35 682.585 638.991 683.24 637.913 683.896 636.834 684.75 635.894 685.802 635.092 686.855 634.29 688.084 633.703 689.49 633.332 690.896 632.961 692.444 632.776 694.135 632.776Z" fill="#E6CFD3" fill-rule="evenodd"/><text fill="#000000" fill-opacity="0" font-family="Arial,Arial_MSFontService,sans-serif" font-size="48.73" x="669.136" y="675.414">𝒇</text><path d="M711.102 654.526C712.969 654.526 714.492 654.777 715.673 655.278 716.853 655.78 717.707 656.459 718.234 657.316 718.761 658.173 719.024 659.173 719.024 660.315 719.024 661.318 718.837 662.251 718.463 663.114 718.088 663.978 717.441 664.962 716.52 666.066 715.6 667.171 714.048 668.751 711.864 670.808 711.191 671.443 710.388 672.277 709.455 673.312 708.522 674.347 707.783 675.232 707.237 675.968L707.237 676.159 713.997 676.159C714.822 676.159 715.438 676.099 715.844 675.978 716.25 675.857 716.571 675.648 716.806 675.35 717.041 675.051 717.234 674.604 717.387 674.007L719.577 674.007 719.139 680.824 701.695 680.824 701.695 679.568C702.673 677.32 704.672 674.426 707.694 670.884 709.065 669.272 710.109 667.945 710.826 666.904 711.544 665.863 712.08 664.879 712.435 663.952 712.791 663.026 712.969 662.067 712.969 661.077 712.969 659.68 712.658 658.585 712.036 657.792 711.414 656.998 710.563 656.602 709.484 656.602 707.414 656.602 706.088 658.093 705.504 661.077L702.076 661.077 702.076 656.583C704.145 655.745 705.815 655.193 707.084 654.926 708.354 654.659 709.693 654.526 711.102 654.526Z" fill="#E6CFD3" fill-rule="evenodd"/><text fill="#000000" fill-opacity="0" font-family="Arial,Arial_MSFontService,sans-serif" font-size="26.2983" x="701.695" y="677.537">𝟐</text><path d="M743.74 658.448 775.623 658.448 775.623 661.889 743.74 661.889ZM743.74 647.708 775.623 647.708 775.623 651.15 743.74 651.15Z" fill="#E6CFD3" fill-rule="evenodd"/><text fill="#000000" fill-opacity="0" font-family="Arial,Arial_MSFontService,sans-serif" font-size="14.1816" x="743.74" y="660.117">=</text><path d="M809.903 642.661 801.052 655.989 801.052 656.429 809.903 656.429 809.903 650.503C809.903 648.018 809.989 645.405 810.162 642.661ZM842.369 637.097C841.144 637.097 840.178 637.637 839.47 638.715 838.763 639.793 838.254 641.398 837.944 643.528 837.633 645.659 837.478 648.432 837.478 651.848 837.478 655.644 837.646 658.663 837.982 660.906 838.319 663.149 838.849 664.801 839.574 665.862 840.299 666.923 841.265 667.453 842.472 667.453 843.128 667.453 843.702 667.294 844.193 666.975 844.685 666.655 845.125 666.155 845.513 665.474 845.901 664.792 846.233 663.886 846.51 662.756 846.786 661.626 846.984 660.22 847.105 658.538 847.226 656.856 847.286 654.98 847.286 652.909 847.286 649.821 847.169 647.225 846.937 645.12 846.704 643.015 846.372 641.393 845.94 640.255 845.509 639.116 845 638.305 844.413 637.822 843.827 637.339 843.145 637.097 842.369 637.097ZM811.74 634.432 817.563 634.432 817.563 656.429 818.365 656.429C819.211 656.429 819.806 656.373 820.151 656.261 820.496 656.149 820.794 655.937 821.044 655.627 821.294 655.316 821.531 654.764 821.756 653.97L824.473 653.97 824.162 659.69 817.563 659.69 817.563 663.546C817.563 664.84 817.641 665.75 817.796 666.276 817.951 666.802 818.189 667.195 818.508 667.453 818.827 667.712 819.444 667.971 820.358 668.23L820.358 669.938 807.134 669.938 807.134 668.23C808.048 667.988 808.674 667.716 809.01 667.415 809.347 667.113 809.58 666.711 809.709 666.211 809.838 665.711 809.903 664.822 809.903 663.546L809.903 659.69 796.032 659.69 796.032 656.895ZM842.524 634.199C846.768 634.199 849.934 635.644 852.022 638.534 854.109 641.424 855.153 645.844 855.153 651.797 855.153 657.904 854.045 662.523 851.828 665.655 849.611 668.786 846.354 670.352 842.058 670.352 837.814 670.352 834.679 668.881 832.651 665.939 830.624 662.998 829.611 658.551 829.611 652.599 829.611 646.629 830.741 642.07 833.001 638.922 835.261 635.773 838.435 634.199 842.524 634.199Z" fill="#E6CFD3" fill-rule="evenodd"/><text fill="#000000" fill-opacity="0" font-family="Arial,Arial_MSFontService,sans-serif" font-size="36.1528" x="796.032" y="665.833">𝟒𝟎</text><path d="M861.018 663.934 866.246 663.934 866.246 669.938 861.018 669.938Z" fill="#E6CFD3" fill-rule="evenodd"/><text fill="#000000" fill-opacity="0" font-family="Arial,Arial_MSFontService,sans-serif" font-size="6.00391" x="861.018" y="669.187">.</text><path d="M893.922 637.097C892.697 637.097 891.731 637.637 891.024 638.715 890.316 639.793 889.807 641.398 889.497 643.528 889.186 645.659 889.031 648.432 889.031 651.848 889.031 655.644 889.199 658.663 889.536 660.906 889.872 663.149 890.403 664.801 891.127 665.862 891.852 666.923 892.818 667.453 894.026 667.453 894.681 667.453 895.255 667.294 895.747 666.975 896.238 666.655 896.678 666.155 897.067 665.474 897.455 664.792 897.787 663.886 898.063 662.756 898.339 661.626 898.537 660.22 898.658 658.538 898.779 656.856 898.839 654.98 898.839 652.909 898.839 649.821 898.723 647.225 898.49 645.12 898.257 643.015 897.925 641.393 897.494 640.255 897.062 639.116 896.553 638.305 895.967 637.822 895.38 637.339 894.699 637.097 893.922 637.097ZM894.078 634.199C898.322 634.199 901.487 635.644 903.575 638.534 905.663 641.424 906.706 645.844 906.706 651.797 906.706 657.904 905.598 662.523 903.381 665.655 901.164 668.786 897.908 670.352 893.612 670.352 889.368 670.352 886.232 668.881 884.205 665.939 882.178 662.998 881.164 658.551 881.164 652.599 881.164 646.629 882.294 642.07 884.554 638.922 886.814 635.773 889.989 634.199 894.078 634.199Z" fill="#E6CFD3" fill-rule="evenodd"/><text fill="#000000" fill-opacity="0" font-family="Arial,Arial_MSFontService,sans-serif" font-size="36.1528" x="881.164" y="665.833">𝟎</text><path d="M968.236 643.852C970.116 643.852 971.591 644.227 972.661 644.978 973.731 645.728 974.507 646.819 974.99 648.251 976.733 646.629 978.247 645.491 979.532 644.835 980.817 644.18 982.159 643.852 983.556 643.852 984.936 643.852 986.079 644.033 986.985 644.395 987.891 644.758 988.637 645.318 989.224 646.077 989.81 646.836 990.237 647.785 990.505 648.924 990.772 650.063 990.906 651.426 990.906 653.013L990.906 662.459C990.906 664.098 990.957 665.228 991.061 665.849 991.164 666.47 991.38 666.966 991.708 667.337 992.036 667.708 992.64 668.005 993.519 668.23L993.519 669.938 981.046 669.938 981.046 668.23C981.822 668.04 982.357 667.764 982.65 667.402 982.944 667.039 983.146 666.539 983.258 665.901 983.371 665.262 983.427 664.124 983.427 662.485L983.427 655.549C983.427 653.996 983.375 652.733 983.271 651.758 983.168 650.783 982.969 650.02 982.676 649.468 982.383 648.915 982.034 648.519 981.628 648.277 981.223 648.036 980.692 647.915 980.036 647.915 979.588 647.915 979.174 647.984 978.794 648.122 978.415 648.26 978.031 648.471 977.643 648.756 977.255 649.041 976.922 649.33 976.646 649.623 976.37 649.916 976.15 650.244 975.986 650.606 975.823 650.969 975.71 651.374 975.65 651.823 975.59 652.271 975.559 653.004 975.559 654.022L975.559 662.459C975.559 663.994 975.603 665.103 975.689 665.784 975.775 666.466 975.982 666.992 976.31 667.363 976.638 667.734 977.19 668.023 977.966 668.23L977.966 669.938 965.648 669.938 965.648 668.23C966.441 668.04 966.989 667.764 967.291 667.402 967.593 667.039 967.796 666.543 967.899 665.914 968.003 665.284 968.055 664.141 968.055 662.485L968.055 655.549C968.055 654.41 968.033 653.449 967.99 652.664 967.947 651.879 967.873 651.245 967.77 650.761 967.666 650.278 967.524 649.856 967.343 649.493 967.162 649.131 966.955 648.838 966.722 648.614 966.489 648.389 966.213 648.217 965.894 648.096 965.575 647.975 965.173 647.915 964.69 647.915 964.052 647.915 963.383 648.113 962.685 648.51 961.986 648.907 961.399 649.459 960.925 650.166 960.451 650.874 960.213 651.633 960.213 652.444L960.213 662.459C960.213 664.081 960.261 665.215 960.356 665.862 960.451 666.509 960.653 667.018 960.964 667.389 961.274 667.76 961.818 668.04 962.594 668.23L962.594 669.938 950.198 669.938 950.198 668.23C951.026 668.005 951.6 667.712 951.919 667.35 952.238 666.988 952.454 666.496 952.566 665.875 952.678 665.254 952.734 664.124 952.734 662.485L952.734 651.848C952.734 650.572 952.713 649.627 952.67 649.015 952.626 648.402 952.523 647.91 952.359 647.54 952.195 647.169 951.945 646.867 951.609 646.634 951.272 646.401 950.69 646.198 949.862 646.026L949.862 644.266 956.953 644.059 960.213 644.059 959.825 647.785 960.136 647.863C961.706 646.397 963.12 645.361 964.38 644.758 965.639 644.154 966.924 643.852 968.236 643.852ZM937.526 643.852C938.923 643.852 940.316 643.951 941.705 644.149 943.094 644.348 944.358 644.62 945.496 644.965L945.496 651.201 940.372 651.201C940.114 649.58 939.725 648.398 939.208 647.656 938.69 646.914 937.948 646.543 936.982 646.543 935.395 646.543 934.2 647.397 933.398 649.105 932.596 650.813 932.195 653.393 932.195 656.843 932.195 660.018 932.661 662.385 933.592 663.947 934.524 665.508 935.973 666.289 937.94 666.289 938.94 666.289 939.885 666.073 940.774 665.642 941.662 665.211 942.71 664.434 943.918 663.313L945.911 665.719C944.22 667.376 942.585 668.562 941.006 669.278 939.428 669.994 937.707 670.352 935.844 670.352 932.1 670.352 929.245 669.252 927.278 667.052 925.311 664.853 924.328 661.656 924.328 657.464 924.328 654.635 924.867 652.189 925.945 650.127 927.023 648.066 928.572 646.504 930.59 645.443 932.609 644.382 934.921 643.852 937.526 643.852Z" fill="#E6CFD3" fill-rule="evenodd"/><text fill="#000000" fill-opacity="0" font-family="Arial,Arial_MSFontService,sans-serif" font-size="26.5" x="924.328" y="667.039">𝐜𝐦</text><path d="M512.738 58.1608 503.887 71.4884 503.887 71.9284 512.738 71.9284 512.738 66.0021C512.738 63.5177 512.824 60.904 512.997 58.1608ZM545.204 52.5968C543.979 52.5968 543.012 53.136 542.305 54.2143 541.598 55.2925 541.089 56.897 540.778 59.0277 540.468 61.1584 540.312 63.9318 540.312 67.3478 540.312 71.1434 540.481 74.1626 540.817 76.4054 541.154 78.6483 541.684 80.3002 542.409 81.3612 543.133 82.4223 544.099 82.9528 545.307 82.9528 545.963 82.9528 546.536 82.7932 547.028 82.474 547.52 82.1549 547.96 81.6545 548.348 80.9731 548.736 80.2916 549.068 79.3858 549.344 78.2558 549.62 77.1257 549.819 75.7196 549.939 74.0375 550.06 72.3554 550.121 70.4792 550.121 68.4088 550.121 65.3206 550.004 62.7241 549.771 60.6193 549.538 58.5145 549.206 56.8927 548.775 55.7541 548.344 54.6154 547.835 53.8045 547.248 53.3214 546.661 52.8384 545.98 52.5968 545.204 52.5968ZM514.575 49.9313 520.398 49.9313 520.398 71.9284 521.2 71.9284C522.046 71.9284 522.641 71.8723 522.986 71.7602 523.331 71.648 523.628 71.4367 523.879 71.1261 524.129 70.8156 524.366 70.2635 524.59 69.4699L527.308 69.4699 526.997 75.1891 520.398 75.1891 520.398 79.0451C520.398 80.339 520.476 81.2491 520.631 81.7753 520.786 82.3015 521.023 82.694 521.342 82.9528 521.662 83.2116 522.278 83.4704 523.193 83.7292L523.193 85.4372 509.969 85.4372 509.969 83.7292C510.883 83.4876 511.508 83.2159 511.845 82.914 512.181 82.6121 512.414 82.2109 512.544 81.7106 512.673 81.2103 512.738 80.3218 512.738 79.0451L512.738 75.1891 498.867 75.1891 498.867 72.3942ZM545.359 49.6984C549.603 49.6984 552.769 51.1433 554.856 54.0331 556.944 56.9229 557.988 61.3439 557.988 67.2961 557.988 73.4035 556.879 78.0229 554.662 81.1542 552.445 84.2856 549.189 85.8512 544.893 85.8512 540.649 85.8512 537.513 84.3804 535.486 81.4389 533.459 78.4973 532.445 74.0504 532.445 68.0983 532.445 62.1289 533.575 57.5699 535.835 54.4213 538.095 51.2727 541.27 49.6984 545.359 49.6984Z" fill="#E6CFD3" fill-rule="evenodd"/><text fill="#000000" fill-opacity="0" font-family="Arial,Arial_MSFontService,sans-serif" font-size="36.1528" x="498.867" y="81.3321">𝟒𝟎</text><path d="M563.853 79.4333 569.081 79.4333 569.081 85.4372 563.853 85.4372Z" fill="#E6CFD3" fill-rule="evenodd"/><text fill="#000000" fill-opacity="0" font-family="Arial,Arial_MSFontService,sans-serif" font-size="6.00391" x="563.853" y="84.6867">.</text><path d="M596.757 52.5968C595.532 52.5968 594.566 53.136 593.858 54.2143 593.151 55.2925 592.642 56.897 592.332 59.0277 592.021 61.1584 591.866 63.9318 591.866 67.3478 591.866 71.1434 592.034 74.1626 592.37 76.4054 592.707 78.6483 593.237 80.3002 593.962 81.3612 594.687 82.4223 595.653 82.9528 596.86 82.9528 597.516 82.9528 598.09 82.7932 598.581 82.474 599.073 82.1549 599.513 81.6545 599.901 80.9731 600.289 80.2916 600.621 79.3858 600.898 78.2558 601.174 77.1257 601.372 75.7196 601.493 74.0375 601.614 72.3554 601.674 70.4792 601.674 68.4088 601.674 65.3206 601.557 62.7241 601.325 60.6193 601.092 58.5145 600.76 56.8927 600.328 55.7541 599.897 54.6154 599.388 53.8045 598.801 53.3214 598.215 52.8384 597.533 52.5968 596.757 52.5968ZM596.912 49.6984C601.156 49.6984 604.322 51.1433 606.41 54.0331 608.497 56.9229 609.541 61.3439 609.541 67.2961 609.541 73.4035 608.433 78.0229 606.216 81.1542 603.999 84.2856 600.742 85.8512 596.446 85.8512 592.202 85.8512 589.067 84.3804 587.039 81.4389 585.012 78.4973 583.999 74.0504 583.999 68.0983 583.999 62.1289 585.129 57.5699 587.389 54.4213 589.649 51.2727 592.823 49.6984 596.912 49.6984Z" fill="#E6CFD3" fill-rule="evenodd"/><text fill="#000000" fill-opacity="0" font-family="Arial,Arial_MSFontService,sans-serif" font-size="36.1528" x="583.999" y="81.3321">𝟎</text><path d="M671.07 59.3512C672.951 59.3512 674.426 59.7265 675.496 60.477 676.565 61.2274 677.342 62.3187 677.825 63.7506 679.567 62.1289 681.081 60.9902 682.367 60.3346 683.652 59.679 684.993 59.3512 686.391 59.3512 687.771 59.3512 688.914 59.5324 689.82 59.8947 690.725 60.257 691.472 60.8177 692.058 61.5768 692.645 62.3359 693.072 63.2848 693.339 64.4235 693.607 65.5622 693.74 66.9251 693.74 68.5124L693.74 77.9582C693.74 79.5972 693.792 80.7272 693.896 81.3483 693.999 81.9694 694.215 82.4654 694.543 82.8363 694.87 83.2073 695.474 83.5049 696.354 83.7292L696.354 85.4372 683.88 85.4372 683.88 83.7292C684.657 83.5394 685.192 83.2633 685.485 82.901 685.778 82.5387 685.981 82.0384 686.093 81.4001 686.205 80.7617 686.261 79.623 686.261 77.984L686.261 71.0485C686.261 69.4958 686.21 68.232 686.106 67.2572 686.003 66.2825 685.804 65.519 685.511 64.9669 685.218 64.4149 684.868 64.0181 684.463 63.7765 684.057 63.535 683.527 63.4142 682.871 63.4142 682.423 63.4142 682.009 63.4832 681.629 63.6212 681.249 63.7593 680.866 63.9706 680.477 64.2553 680.089 64.5399 679.757 64.8289 679.481 65.1222 679.205 65.4155 678.985 65.7433 678.821 66.1056 678.657 66.4679 678.545 66.8734 678.485 67.3219 678.424 67.7705 678.394 68.5037 678.394 69.5216L678.394 77.9582C678.394 79.4936 678.437 80.6021 678.523 81.2836 678.61 81.9651 678.817 82.4913 679.145 82.8622 679.472 83.2331 680.024 83.5221 680.801 83.7292L680.801 85.4372 668.482 85.4372 668.482 83.7292C669.276 83.5394 669.824 83.2633 670.126 82.901 670.428 82.5387 670.63 82.0427 670.734 81.413 670.837 80.7833 670.889 79.6403 670.889 77.984L670.889 71.0485C670.889 69.9098 670.868 68.948 670.825 68.163 670.781 67.378 670.708 66.744 670.605 66.2609 670.501 65.7778 670.359 65.3551 670.178 64.9928 669.996 64.6305 669.789 64.3372 669.556 64.1129 669.324 63.8887 669.047 63.7161 668.728 63.5954 668.409 63.4746 668.008 63.4142 667.525 63.4142 666.887 63.4142 666.218 63.6126 665.519 64.0094 664.821 64.4062 664.234 64.9583 663.76 65.6657 663.285 66.373 663.048 67.1322 663.048 67.943L663.048 77.9582C663.048 79.5799 663.095 80.7143 663.19 81.3612 663.285 82.0082 663.488 82.5172 663.798 82.8881 664.109 83.259 664.652 83.5394 665.429 83.7292L665.429 85.4372 653.033 85.4372 653.033 83.7292C653.861 83.5049 654.435 83.2116 654.754 82.8493 655.073 82.487 655.289 81.9953 655.401 81.3742 655.513 80.7531 655.569 79.623 655.569 77.984L655.569 67.3478C655.569 66.0711 655.547 65.1265 655.504 64.5141 655.461 63.9016 655.358 63.4099 655.194 63.039 655.03 62.668 654.78 62.3661 654.443 62.1332 654.107 61.9003 653.524 61.6976 652.696 61.5251L652.696 59.7653 659.787 59.5583 663.048 59.5583 662.66 63.2848 662.97 63.3625C664.54 61.896 665.955 60.8608 667.214 60.257 668.474 59.6531 669.759 59.3512 671.07 59.3512ZM640.36 59.3512C641.758 59.3512 643.151 59.4504 644.54 59.6488 645.929 59.8472 647.192 60.119 648.331 60.464L648.331 66.7008 643.207 66.7008C642.948 65.0791 642.56 63.8973 642.043 63.1554 641.525 62.4136 640.783 62.0426 639.817 62.0426 638.23 62.0426 637.035 62.8966 636.233 64.6046 635.43 66.3127 635.029 68.8919 635.029 72.3424 635.029 75.5169 635.495 77.8848 636.427 79.4462 637.358 81.0076 638.808 81.7882 640.774 81.7882 641.775 81.7882 642.72 81.5726 643.608 81.1413 644.497 80.71 645.545 79.9336 646.753 78.8122L648.745 81.2189C647.054 82.8752 645.42 84.0613 643.841 84.7773 642.263 85.4932 640.542 85.8512 638.678 85.8512 634.934 85.8512 632.079 84.7514 630.112 82.5517 628.146 80.352 627.162 77.1559 627.162 72.9635 627.162 70.1341 627.701 67.6886 628.78 65.6269 629.858 63.5652 631.406 62.0038 633.425 60.9428 635.443 59.8817 637.755 59.3512 640.36 59.3512Z" fill="#E6CFD3" fill-rule="evenodd"/><text fill="#000000" fill-opacity="0" font-family="Arial,Arial_MSFontService,sans-serif" font-size="26.5" x="627.162" y="82.5387">𝐜𝐦</text><path d="M7.91992-3.99999 102.759-3.99989 102.759 4.0001 7.91991 4.00001ZM29.9045 17.4551-0.0185392 1.4866e-07 29.9045-17.4551C31.8127-18.5682 34.262-17.9237 35.3751-16.0154 36.4883-14.1072 35.8437-11.658 33.9355-10.5448L9.93548 3.45513 9.93549-3.45511 33.9355 10.5449C35.8437 11.658 36.4882 14.1073 35.3751 16.0155 34.262 17.9237 31.8127 18.5683 29.9045 17.4551Z" fill="#E6CFD3" transform="matrix(-1 0 0 1 806.759 68)"/><path d="M367.956 64.0723 475.276 65.05 475.203 73.0497 367.883 72.072ZM389.744 85.7268 359.981 67.9998 390.062 50.818C391.981 49.7223 394.424 50.3892 395.52 52.3074 396.615 54.2257 395.948 56.669 394.03 57.7647L369.904 71.5455 369.967 64.6355 393.838 78.8536C395.736 79.9841 396.358 82.4391 395.228 84.3371 394.097 86.2351 391.642 86.8573 389.744 85.7268Z" fill="#E6CFD3"/><path d="M209.644 62.0426C208.039 62.0426 206.616 62.8492 205.374 64.4623 204.132 66.0754 203.131 68.2449 202.372 70.9709 201.613 73.6968 201.233 76.138 201.233 78.2946 201.233 79.554 201.419 80.4943 201.789 81.1154 202.16 81.7365 202.734 82.047 203.51 82.047 204.649 82.047 205.809 81.4906 206.991 80.3778 208.173 79.265 209.126 77.9582 209.851 76.4572 210.575 74.9562 211.222 72.9031 211.792 70.298L211.999 69.3405C212.275 68.0638 212.413 66.7957 212.413 65.5363 212.413 64.3804 212.197 63.5091 211.766 62.9225 211.334 62.3359 210.627 62.0426 209.644 62.0426ZM220.746 48.3786 223.67 48.3786 217.123 77.3629C216.864 78.5016 216.735 79.485 216.735 80.3131 216.735 80.8825 216.829 81.3224 217.019 81.633 217.209 81.9435 217.537 82.0988 218.003 82.0988 218.537 82.0988 219.115 81.8572 219.737 81.3742 220.358 80.8911 221.082 80.1751 221.91 79.2262L223.774 81.0895C221.962 82.901 220.401 84.1475 219.09 84.829 217.778 85.5105 216.398 85.8512 214.949 85.8512 213.5 85.8512 212.352 85.4501 211.507 84.6479 210.662 83.8456 210.239 82.7889 210.239 81.4777 210.239 81.0464 210.291 80.6323 210.394 80.2355L210.058 80.1579C208.419 82.1419 206.888 83.5868 205.464 84.4926 204.041 85.3983 202.337 85.8512 200.353 85.8512 198.404 85.8512 196.89 85.1439 195.811 83.7292 194.733 82.3144 194.194 80.27 194.194 77.5959 194.194 75.2668 194.53 72.9549 195.203 70.6603 195.876 68.3657 196.842 66.386 198.102 64.7211 199.361 63.0562 200.944 61.745 202.851 60.7875 204.757 59.83 206.909 59.3512 209.307 59.3512 210.843 59.3512 212.327 59.6186 213.758 60.1535L214.638 56.194C214.742 55.7627 214.863 55.1416 215.001 54.3307 215.139 53.5198 215.208 52.9074 215.208 52.4933 215.208 52.1138 215.169 51.8162 215.091 51.6005 215.014 51.3848 214.897 51.208 214.742 51.07 214.587 50.932 214.38 50.8241 214.121 50.7465 213.862 50.6689 213.353 50.5783 212.594 50.4748L213.008 48.7926Z" fill="#E6CFD3" fill-rule="evenodd"/><text fill="#000000" fill-opacity="0" font-family="Arial,Arial_MSFontService,sans-serif" font-size="37.4727" x="194.194" y="81.1671">𝒅</text><path d="M237.464 72.1583C236.563 72.1583 235.852 72.555 235.332 73.3485 234.811 74.142 234.437 75.3226 234.208 76.8905 233.98 78.4584 233.865 80.4991 233.865 83.0128 233.865 85.8058 233.989 88.0275 234.237 89.6778 234.484 91.3282 234.875 92.5438 235.408 93.3246 235.941 94.1053 236.652 94.4957 237.541 94.4957 238.023 94.4957 238.445 94.3783 238.807 94.1434 239.169 93.9086 239.492 93.5404 239.778 93.0389 240.064 92.5375 240.308 91.871 240.511 91.0394 240.714 90.2079 240.86 89.1732 240.949 87.9354 241.038 86.6976 241.083 85.317 241.083 83.7936 241.083 81.5211 240.997 79.6105 240.825 78.0616 240.654 76.5128 240.41 75.3194 240.092 74.4816 239.775 73.6437 239.4 73.047 238.969 72.6915 238.537 72.336 238.036 72.1583 237.464 72.1583ZM261.874 70.0255 264.311 70.0255C264.235 71.2442 264.197 72.9327 264.197 75.0909L264.197 91.0108C264.197 91.7472 264.238 92.3026 264.321 92.6771 264.403 93.0516 264.549 93.3563 264.759 93.5912 264.968 93.826 265.27 94.0101 265.663 94.1434 266.057 94.2767 266.552 94.3783 267.148 94.4481 267.745 94.5179 268.532 94.5655 269.51 94.5909L269.51 96.3238 253.076 96.3238 253.076 94.5909C254.485 94.5275 255.491 94.4418 256.094 94.3338 256.697 94.2259 257.157 94.0641 257.475 93.8483 257.792 93.6324 258.024 93.3277 258.17 92.9342 258.316 92.5406 258.389 91.8995 258.389 91.0108L258.389 77.2428C258.389 76.7223 258.29 76.3478 258.094 76.1192 257.897 75.8907 257.627 75.7765 257.284 75.7765 256.967 75.7765 256.519 75.9225 255.942 76.2145 255.364 76.5065 254.415 77.1031 253.095 78.0045L251.933 75.9859ZM237.579 70.0255C240.702 70.0255 243.031 71.0887 244.567 73.2152 246.104 75.3417 246.872 78.5948 246.872 82.9747 246.872 87.4689 246.056 90.868 244.425 93.1722 242.793 95.4764 240.397 96.6285 237.236 96.6285 234.113 96.6285 231.805 95.5462 230.314 93.3817 228.822 91.2171 228.076 87.9449 228.076 83.565 228.076 79.1725 228.908 75.8177 230.571 73.5008 232.234 71.1839 234.57 70.0255 237.579 70.0255Z" fill="#E6CFD3" fill-rule="evenodd"/><text fill="#000000" fill-opacity="0" font-family="Arial,Arial_MSFontService,sans-serif" font-size="26.603" x="228.076" y="93.3031">𝟎𝟏</text><path d="M7.92-3.99999 66.0869-3.99989 66.0869 4.0001 7.91999 4.00001ZM29.9045 17.4552-0.0185392-1.74347e-08 29.9045-17.4551C31.8128-18.5682 34.262-17.9236 35.3751-16.0154 36.4883-14.1072 35.8437-11.6579 33.9355-10.5448L9.93548 3.45513 9.93549-3.4551 33.9355 10.5449C35.8437 11.6581 36.4882 14.1073 35.3751 16.0155 34.262 17.9237 31.8127 18.5683 29.9045 17.4552Z" fill="#E6CFD3" transform="matrix(-1 0 0 1 364.087 68)"/><path d="M80 233.92 80.0001 386.091 72.0001 386.091 72 233.92ZM58.5449 255.905 76 225.981 93.4551 255.905C94.5683 257.813 93.9237 260.262 92.0155 261.375 90.1073 262.488 87.658 261.844 86.5449 259.935L72.5449 235.935 79.4551 235.935 65.4551 259.935C64.342 261.844 61.8927 262.488 59.9845 261.375 58.0763 260.262 57.4318 257.813 58.5449 255.905Z" fill="#E6CFD3"/><path d="M98.1172 141.142 130 141.142 130 144.584 98.1172 144.584ZM98.1172 130.402 130 130.402 130 133.844 98.1172 133.844Z" fill="#E6CFD3" fill-rule="evenodd"/><text fill="#000000" fill-opacity="0" font-family="Arial,Arial_MSFontService,sans-serif" font-size="14.1816" x="98.1172" y="142.811">=</text><path d="M196.746 119.792C195.521 119.792 194.555 120.331 193.847 121.409 193.14 122.488 192.631 124.092 192.32 126.223 192.01 128.354 191.855 131.127 191.855 134.543 191.855 138.338 192.023 141.358 192.359 143.6 192.696 145.843 193.226 147.495 193.951 148.556 194.675 149.617 195.642 150.148 196.849 150.148 197.505 150.148 198.079 149.988 198.57 149.669 199.062 149.35 199.502 148.85 199.89 148.168 200.278 147.487 200.61 146.581 200.886 145.451 201.162 144.321 201.361 142.915 201.482 141.233 201.602 139.55 201.663 137.674 201.663 135.604 201.663 132.516 201.546 129.919 201.313 127.814 201.08 125.71 200.748 124.088 200.317 122.949 199.886 121.81 199.377 121 198.79 120.517 198.204 120.033 197.522 119.792 196.746 119.792ZM196.901 116.893C201.145 116.893 204.311 118.338 206.399 121.228 208.486 124.118 209.53 128.539 209.53 134.491 209.53 140.599 208.421 145.218 206.205 148.349 203.988 151.481 200.731 153.046 196.435 153.046 192.191 153.046 189.055 151.576 187.028 148.634 185.001 145.692 183.987 141.246 183.987 135.293 183.987 129.324 185.118 124.765 187.378 121.616 189.638 118.468 192.812 116.893 196.901 116.893ZM164.72 116.893C167.981 116.893 170.586 117.558 172.535 118.886 174.485 120.215 175.46 122.069 175.46 124.45 175.46 126.451 174.886 128.177 173.739 129.626 172.591 131.075 170.672 132.421 167.981 133.663L167.981 133.896C170.5 134.362 172.488 135.371 173.946 136.924 175.404 138.476 176.132 140.4 176.132 142.695 176.132 144.696 175.645 146.477 174.67 148.039 173.696 149.6 172.216 150.825 170.232 151.714 168.248 152.602 165.841 153.046 163.012 153.046 161.062 153.046 159.147 152.869 157.267 152.516 155.386 152.162 153.747 151.666 152.35 151.028L152.35 144.532 157.008 144.532C157.508 146.499 158.216 147.927 159.13 148.815 160.044 149.704 161.243 150.148 162.727 150.148 166.385 150.148 168.214 147.888 168.214 143.368 168.214 140.935 167.571 139.123 166.286 137.933 165 136.743 163.046 136.147 160.424 136.147L158.38 136.147 158.38 133.197C161.382 133.076 163.659 132.373 165.212 131.088 166.764 129.803 167.541 127.944 167.541 125.511 167.541 123.596 167.153 122.151 166.376 121.176 165.6 120.202 164.47 119.714 162.986 119.714 161.537 119.714 160.346 120.232 159.415 121.267 158.483 122.302 157.845 123.82 157.5 125.822L152.841 125.822 152.841 119.688C157.206 117.825 161.166 116.893 164.72 116.893Z" fill="#E6CFD3" fill-rule="evenodd"/><text fill="#000000" fill-opacity="0" font-family="Arial,Arial_MSFontService,sans-serif" font-size="36.1528" x="152.35" y="148.527">𝟑𝟎</text><path d="M215.395 146.628 220.623 146.628 220.623 152.632 215.395 152.632Z" fill="#E6CFD3" fill-rule="evenodd"/><text fill="#000000" fill-opacity="0" font-family="Arial,Arial_MSFontService,sans-serif" font-size="6.00391" x="215.395" y="151.882">.</text><path d="M300.907 126.546C302.339 126.546 303.482 126.947 304.336 127.75 305.19 128.552 305.617 129.609 305.617 130.92 305.617 131.351 305.565 131.765 305.462 132.162L305.772 132.317C307.342 130.333 308.865 128.875 310.34 127.944 311.815 127.012 313.527 126.546 315.477 126.546 317.202 126.546 318.561 127.021 319.553 127.97 320.545 128.919 321.067 130.23 321.118 131.903 322.55 130.074 323.995 128.724 325.453 127.853 326.911 126.982 328.563 126.546 330.409 126.546 332.151 126.546 333.519 127.038 334.511 128.021 335.503 129.005 335.999 130.376 335.999 132.136 335.999 132.654 335.956 133.283 335.869 134.025 335.783 134.767 335.654 135.475 335.481 136.147L333.385 144.48C333.195 145.205 333.074 145.766 333.023 146.163 332.971 146.559 332.945 147.008 332.945 147.508 332.945 148.181 333.057 148.647 333.282 148.906 333.506 149.164 333.825 149.294 334.239 149.294 334.739 149.294 335.3 149.057 335.921 148.582 336.542 148.108 337.276 147.387 338.121 146.421L339.984 148.285C338.293 150.01 336.779 151.235 335.442 151.959 334.105 152.684 332.635 153.046 331.03 153.046 329.253 153.046 327.933 152.606 327.071 151.726 326.208 150.847 325.777 149.501 325.777 147.689 325.777 147.12 325.837 146.426 325.958 145.606 326.079 144.787 326.251 143.937 326.475 143.057L327.666 138.554C327.942 137.536 328.188 136.462 328.403 135.332 328.619 134.202 328.727 133.327 328.727 132.705 328.727 131.118 328.106 130.325 326.864 130.325 326.122 130.325 325.216 130.799 324.146 131.748 323.077 132.697 322.192 133.736 321.494 134.866 320.795 135.996 320.256 137.493 319.876 139.356L317.03 152.632 309.576 152.632 313.355 136.173C313.545 135.38 313.674 134.728 313.743 134.219 313.812 133.71 313.846 133.266 313.846 132.887 313.846 131.989 313.691 131.338 313.381 130.933 313.07 130.527 312.578 130.325 311.906 130.325 311.112 130.325 310.176 130.816 309.098 131.8 308.019 132.783 307.148 133.818 306.484 134.905 305.82 135.992 305.289 137.476 304.892 139.356L301.994 152.632 294.567 152.632 298.733 134.646C298.992 133.525 299.121 132.671 299.121 132.084 299.121 131.515 299.026 131.075 298.837 130.765 298.647 130.454 298.319 130.299 297.853 130.299 297.318 130.299 296.741 130.54 296.119 131.023 295.498 131.506 294.774 132.222 293.946 133.171L292.082 131.308C293.808 129.548 295.339 128.315 296.676 127.607 298.013 126.9 299.423 126.546 300.907 126.546ZM282.991 126.546C284.146 126.546 285.397 126.637 286.743 126.818 288.089 126.999 289.279 127.254 290.314 127.581L288.865 133.896 284.207 133.896C284.241 133.534 284.259 133.163 284.259 132.783 284.259 131.541 284.069 130.639 283.689 130.079 283.31 129.518 282.749 129.238 282.007 129.238 280.73 129.238 279.514 129.971 278.358 131.437 277.202 132.904 276.236 134.94 275.46 137.545 274.683 140.15 274.295 142.436 274.295 144.403 274.295 147.646 275.477 149.268 277.841 149.268 279.031 149.268 280.157 149.001 281.218 148.466 282.279 147.931 283.482 147.034 284.828 145.774L286.924 148.026C285.113 149.837 283.301 151.127 281.49 151.895 279.678 152.662 277.685 153.046 275.512 153.046 272.872 153.046 270.823 152.222 269.365 150.575 267.907 148.927 267.178 146.637 267.178 143.704 267.178 140.961 267.795 138.166 269.029 135.319 270.262 132.473 272.087 130.299 274.502 128.798 276.918 127.297 279.747 126.546 282.991 126.546ZM248.299 119.792C247.074 119.792 246.108 120.331 245.401 121.409 244.693 122.488 244.184 124.092 243.874 126.223 243.563 128.354 243.408 131.127 243.408 134.543 243.408 138.338 243.576 141.358 243.913 143.6 244.249 145.843 244.78 147.495 245.504 148.556 246.229 149.617 247.195 150.148 248.403 150.148 249.058 150.148 249.632 149.988 250.124 149.669 250.615 149.35 251.055 148.85 251.443 148.168 251.832 147.487 252.164 146.581 252.44 145.451 252.716 144.321 252.914 142.915 253.035 141.233 253.156 139.55 253.216 137.674 253.216 135.604 253.216 132.516 253.1 129.919 252.867 127.814 252.634 125.71 252.302 124.088 251.87 122.949 251.439 121.81 250.93 121 250.344 120.517 249.757 120.033 249.075 119.792 248.299 119.792ZM248.454 116.893C252.699 116.893 255.864 118.338 257.952 121.228 260.039 124.118 261.083 128.539 261.083 134.491 261.083 140.599 259.975 145.218 257.758 148.349 255.541 151.481 252.284 153.046 247.989 153.046 243.744 153.046 240.609 151.576 238.582 148.634 236.554 145.692 235.541 141.246 235.541 135.293 235.541 129.324 236.671 124.765 238.931 121.616 241.191 118.468 244.366 116.893 248.454 116.893Z" fill="#E6CFD3" fill-rule="evenodd"/><text fill="#000000" fill-opacity="0" font-family="Arial,Arial_MSFontService,sans-serif" font-size="36.1528" x="235.541" y="148.527">𝟎𝒄𝒎</text><path d="M83.9199 65 176.543 65.0001 176.543 73.0001 83.9199 73ZM105.904 86.4551 75.9815 69 105.905 51.5449C107.813 50.4318 110.262 51.0763 111.375 52.9846 112.488 54.8928 111.844 57.342 109.935 58.4552L85.9355 72.4551 85.9355 65.5449 109.935 79.5449C111.844 80.658 112.488 83.1073 111.375 85.0155 110.262 86.9237 107.813 87.5683 105.904 86.4551Z" fill="#E6CFD3"/></g></svg>