<svg width="1269" height="594" xmlns="http://www.w3.org/2000/svg" xmlns:xlink="http://www.w3.org/1999/xlink" overflow="hidden"><defs><clipPath id="clip0"><rect x="-2" y="95" width="1269" height="594"/></clipPath></defs><g clip-path="url(#clip0)" transform="translate(2 -95)"><path d="M20 385 1261.56 385" stroke="#E6CFD3" stroke-width="8" stroke-miterlimit="8" stroke-dasharray="32 24" fill="none" fill-rule="evenodd"/><path d="M324 367.5C324 255.11 340.342 164 360.5 164 380.658 164 397 255.11 397 367.5 397 479.89 380.658 571 360.5 571 340.342 571 324 479.89 324 367.5Z" stroke="#E6CFD3" stroke-width="8" stroke-miterlimit="8" fill="none" fill-rule="evenodd"/><path d="M746 368.5C746 255.558 774.43 164 809.5 164 844.57 164 873 255.558 873 368.5 873 481.442 844.57 573 809.5 573 774.43 573 746 481.442 746 368.5Z" stroke="#E6CFD3" stroke-width="8" stroke-miterlimit="8" fill="none" fill-rule="evenodd"/><path d="M80 233.92 80.0001 386.091 72.0001 386.091 72 233.92ZM58.5449 255.905 76 225.981 93.4551 255.905C94.5683 257.813 93.9237 260.262 92.0155 261.375 90.1073 262.488 87.658 261.844 86.5449 259.935L72.5449 235.935 79.4551 235.935 65.4551 259.935C64.342 261.844 61.8927 262.488 59.9845 261.375 58.0763 260.262 57.4318 257.813 58.5449 255.905Z" fill="#E6CFD3"/><path d="M1086.51 594.98 1081 385.105 1089 384.895 1094.51 594.77ZM1107.38 572.44 1090.72 602.811 1072.48 573.356C1071.32 571.478 1071.9 569.012 1073.78 567.849 1075.66 566.687 1078.12 567.267 1079.28 569.145L1093.91 592.769 1087 592.951 1100.37 568.592C1101.43 566.655 1103.86 565.946 1105.8 567.009 1107.73 568.072 1108.44 570.503 1107.38 572.44Z" fill="#E6CFD3"/><path d="M20-3.99999 260.709-3.9999 260.709 4.0001 20 4.00001ZM24 12 0 0 24-12ZM256.709-11.9999 280.709 0.000104987 256.709 12.0001Z" fill="#E6CFD3" transform="matrix(-1 0 0 1 1090.71 271)"/><path d="M998.089 110.344C1001.35 110.344 1003.95 111.008 1005.9 112.337 1007.85 113.665 1008.83 115.52 1008.83 117.901 1008.83 119.902 1008.25 121.627 1007.11 123.077 1005.96 124.526 1004.04 125.872 1001.35 127.114L1001.35 127.347C1003.87 127.813 1005.86 128.822 1007.31 130.375 1008.77 131.927 1009.5 133.851 1009.5 136.146 1009.5 138.147 1009.01 139.928 1008.04 141.49 1007.06 143.051 1005.58 144.276 1003.6 145.164 1001.62 146.053 999.21 146.497 996.381 146.497 994.431 146.497 992.516 146.32 990.635 145.967 988.755 145.613 987.116 145.117 985.718 144.479L985.718 137.983 990.377 137.983C990.877 139.95 991.584 141.377 992.499 142.266 993.413 143.154 994.612 143.599 996.096 143.599 999.753 143.599 1001.58 141.339 1001.58 136.818 1001.58 134.386 1000.94 132.574 999.654 131.384 998.369 130.193 996.415 129.598 993.793 129.598L991.748 129.598 991.748 126.648C994.75 126.527 997.028 125.824 998.58 124.539 1000.13 123.254 1000.91 121.395 1000.91 118.962 1000.91 117.047 1000.52 115.602 999.745 114.627 998.968 113.652 997.838 113.165 996.355 113.165 994.905 113.165 993.715 113.683 992.783 114.718 991.852 115.753 991.213 117.271 990.868 119.272L986.21 119.272 986.21 113.139C990.575 111.276 994.535 110.344 998.089 110.344ZM968.029 110.344 971.342 110.344C971.238 112.001 971.187 114.295 971.187 117.228L971.187 138.863C971.187 139.863 971.243 140.618 971.355 141.127 971.467 141.636 971.665 142.05 971.95 142.369 972.235 142.689 972.645 142.939 973.179 143.12 973.714 143.301 974.387 143.439 975.198 143.534 976.009 143.629 977.078 143.694 978.407 143.728L978.407 146.083 956.073 146.083 956.073 143.728C957.988 143.642 959.356 143.525 960.175 143.379 960.995 143.232 961.62 143.012 962.051 142.719 962.483 142.425 962.798 142.011 962.996 141.477 963.194 140.942 963.294 140.071 963.294 138.863L963.294 120.152C963.294 119.445 963.16 118.936 962.893 118.626 962.625 118.315 962.258 118.16 961.793 118.16 961.361 118.16 960.753 118.358 959.968 118.755 959.183 119.152 957.894 119.963 956.099 121.188L954.521 118.444Z" fill="#E6CFD3" fill-rule="evenodd"/><text fill="#000000" fill-opacity="0" font-family="Arial,Arial_MSFontService,sans-serif" font-size="36.1528" x="954.521" y="141.978">𝟏𝟑</text><path d="M1016.76 140.079 1021.99 140.079 1021.99 146.083 1016.76 146.083Z" fill="#E6CFD3" fill-rule="evenodd"/><text fill="#000000" fill-opacity="0" font-family="Arial,Arial_MSFontService,sans-serif" font-size="6.00391" x="1016.76" y="145.333">.</text><path d="M1049.64 110.344C1052.9 110.344 1055.51 111.008 1057.46 112.337 1059.41 113.665 1060.38 115.52 1060.38 117.901 1060.38 119.902 1059.81 121.627 1058.66 123.077 1057.51 124.526 1055.59 125.872 1052.9 127.114L1052.9 127.347C1055.42 127.813 1057.41 128.822 1058.87 130.375 1060.33 131.927 1061.05 133.851 1061.05 136.146 1061.05 138.147 1060.57 139.928 1059.59 141.49 1058.62 143.051 1057.14 144.276 1055.15 145.164 1053.17 146.053 1050.76 146.497 1047.93 146.497 1045.98 146.497 1044.07 146.32 1042.19 145.967 1040.31 145.613 1038.67 145.117 1037.27 144.479L1037.27 137.983 1041.93 137.983C1042.43 139.95 1043.14 141.377 1044.05 142.266 1044.97 143.154 1046.17 143.599 1047.65 143.599 1051.31 143.599 1053.14 141.339 1053.14 136.818 1053.14 134.386 1052.49 132.574 1051.21 131.384 1049.92 130.193 1047.97 129.598 1045.35 129.598L1043.3 129.598 1043.3 126.648C1046.3 126.527 1048.58 125.824 1050.13 124.539 1051.69 123.254 1052.46 121.395 1052.46 118.962 1052.46 117.047 1052.07 115.602 1051.3 114.627 1050.52 113.652 1049.39 113.165 1047.91 113.165 1046.46 113.165 1045.27 113.683 1044.34 114.718 1043.41 115.753 1042.77 117.271 1042.42 119.272L1037.76 119.272 1037.76 113.139C1042.13 111.276 1046.09 110.344 1049.64 110.344Z" fill="#E6CFD3" fill-rule="evenodd"/><text fill="#000000" fill-opacity="0" font-family="Arial,Arial_MSFontService,sans-serif" font-size="36.1528" x="1037.27" y="141.978">𝟑</text><path d="M1113.78 119.997C1115.21 119.997 1116.35 120.398 1117.2 121.2 1118.06 122.003 1118.49 123.059 1118.49 124.371 1118.49 124.802 1118.43 125.216 1118.33 125.613L1118.64 125.768C1120.21 123.784 1121.73 122.326 1123.21 121.395 1124.68 120.463 1126.4 119.997 1128.35 119.997 1130.07 119.997 1131.43 120.472 1132.42 121.42 1133.41 122.369 1133.94 123.681 1133.99 125.354 1135.42 123.525 1136.86 122.175 1138.32 121.304 1139.78 120.433 1141.43 119.997 1143.28 119.997 1145.02 119.997 1146.39 120.489 1147.38 121.472 1148.37 122.456 1148.87 123.827 1148.87 125.587 1148.87 126.105 1148.82 126.734 1148.74 127.476 1148.65 128.218 1148.52 128.925 1148.35 129.598L1146.25 137.931C1146.06 138.656 1145.94 139.217 1145.89 139.613 1145.84 140.01 1145.81 140.459 1145.81 140.959 1145.81 141.632 1145.93 142.098 1146.15 142.356 1146.37 142.615 1146.69 142.745 1147.11 142.745 1147.61 142.745 1148.17 142.507 1148.79 142.033 1149.41 141.559 1150.14 140.838 1150.99 139.872L1152.85 141.735C1151.16 143.461 1149.65 144.686 1148.31 145.41 1146.97 146.135 1145.5 146.497 1143.9 146.497 1142.12 146.497 1140.8 146.057 1139.94 145.177 1139.08 144.297 1138.65 142.952 1138.65 141.14 1138.65 140.571 1138.71 139.876 1138.83 139.057 1138.95 138.237 1139.12 137.388 1139.34 136.508L1140.53 132.005C1140.81 130.987 1141.06 129.913 1141.27 128.783 1141.49 127.653 1141.6 126.777 1141.6 126.156 1141.6 124.569 1140.97 123.775 1139.73 123.775 1138.99 123.775 1138.08 124.25 1137.01 125.199 1135.95 126.148 1135.06 127.187 1134.36 128.317 1133.66 129.447 1133.12 130.944 1132.74 132.807L1129.9 146.083 1122.45 146.083 1126.22 129.624C1126.41 128.83 1126.54 128.179 1126.61 127.67 1126.68 127.161 1126.72 126.717 1126.72 126.337 1126.72 125.44 1126.56 124.789 1126.25 124.384 1125.94 123.978 1125.45 123.775 1124.77 123.775 1123.98 123.775 1123.04 124.267 1121.97 125.251 1120.89 126.234 1120.02 127.269 1119.35 128.356 1118.69 129.443 1118.16 130.927 1117.76 132.807L1114.86 146.083 1107.44 146.083 1111.6 128.097C1111.86 126.976 1111.99 126.122 1111.99 125.535 1111.99 124.966 1111.9 124.526 1111.71 124.215 1111.52 123.905 1111.19 123.75 1110.72 123.75 1110.19 123.75 1109.61 123.991 1108.99 124.474 1108.37 124.957 1107.64 125.673 1106.81 126.622L1104.95 124.759C1106.68 122.999 1108.21 121.765 1109.54 121.058 1110.88 120.351 1112.29 119.997 1113.78 119.997ZM1095.86 119.997C1097.02 119.997 1098.27 120.088 1099.61 120.269 1100.96 120.45 1102.15 120.704 1103.18 121.032L1101.73 127.347 1097.08 127.347C1097.11 126.984 1097.13 126.613 1097.13 126.234 1097.13 124.992 1096.94 124.09 1096.56 123.53 1096.18 122.969 1095.62 122.689 1094.88 122.689 1093.6 122.689 1092.38 123.422 1091.23 124.888 1090.07 126.355 1089.1 128.39 1088.33 130.996 1087.55 133.601 1087.16 135.887 1087.16 137.854 1087.16 141.097 1088.35 142.719 1090.71 142.719 1091.9 142.719 1093.03 142.451 1094.09 141.917 1095.15 141.382 1096.35 140.485 1097.7 139.225L1099.79 141.477C1097.98 143.288 1096.17 144.578 1094.36 145.345 1092.55 146.113 1090.55 146.497 1088.38 146.497 1085.74 146.497 1083.69 145.673 1082.23 144.026 1080.78 142.378 1080.05 140.088 1080.05 137.155 1080.05 134.412 1080.66 131.617 1081.9 128.77 1083.13 125.923 1084.96 123.75 1087.37 122.249 1089.79 120.748 1092.62 119.997 1095.86 119.997Z" fill="#E6CFD3" fill-rule="evenodd"/><text fill="#000000" fill-opacity="0" font-family="Arial,Arial_MSFontService,sans-serif" font-size="26.5" x="1080.05" y="143.185">𝒄𝒎</text><path d="M50.0912 435.924C48.9525 435.924 47.7923 436.481 46.6105 437.594 45.4286 438.706 44.4841 439.996 43.7767 441.462 43.0694 442.929 42.4224 444.999 41.8358 447.673L41.6288 448.631C41.3527 449.908 41.2147 451.158 41.2147 452.383 41.2147 453.643 41.426 454.549 41.8487 455.101 42.2714 455.653 42.9831 455.929 43.9837 455.929 44.8464 455.929 45.6314 455.735 46.3387 455.346 47.0461 454.958 47.7146 454.324 48.3443 453.444 48.9741 452.564 49.5865 451.43 50.1817 450.041 50.777 448.652 51.2902 446.992 51.7215 445.06 52.1529 443.127 52.3685 441.333 52.3685 439.677 52.3685 438.4 52.183 437.456 51.8121 436.843 51.4412 436.231 50.8675 435.924 50.0912 435.924ZM101.047 434.812C99.4422 434.812 97.9973 435.605 96.712 437.192 95.4267 438.78 94.37 441.091 93.5418 444.128 96.7163 444.042 99.1446 443.434 100.827 442.303 102.509 441.173 103.35 439.573 103.35 437.503 103.35 436.623 103.147 435.955 102.742 435.497 102.336 435.04 101.771 434.812 101.047 434.812ZM16.4256 434.812C14.9764 434.812 13.7213 435.515 12.6603 436.921 11.5992 438.327 10.6848 440.501 9.91709 443.442 9.14935 446.384 8.76548 448.933 8.76548 451.089 8.76548 452.711 9.02859 453.923 9.55479 454.725 10.081 455.528 10.9134 455.929 12.0521 455.929 13.5186 455.929 14.791 455.217 15.8692 453.794 16.9475 452.37 17.849 450.218 18.5736 447.337 19.2982 444.456 19.6605 441.954 19.6605 439.832 19.6605 438.107 19.3974 436.839 18.8712 436.028 18.345 435.217 17.5298 434.812 16.4256 434.812ZM75.9837 432.25 78.9339 432.25 73.4735 457.404C72.5418 461.7 71.0193 464.835 68.9059 466.811 66.7924 468.786 63.9155 469.774 60.2752 469.774 59.4644 469.774 58.6449 469.662 57.8168 469.438L58.5155 466.617C58.9986 466.755 59.5679 466.824 60.2235 466.824 60.9999 466.824 61.6339 466.716 62.1256 466.5 62.6173 466.285 63.0615 465.914 63.4584 465.387 63.8552 464.861 64.2261 464.089 64.5711 463.071 64.9162 462.053 65.2958 460.621 65.7098 458.775L69.9022 440.143C70.299 438.383 70.4974 437.089 70.4974 436.261 70.4974 435.588 70.3378 435.109 70.0187 434.824 69.6995 434.54 69.0309 434.346 68.013 434.242L68.4012 432.534ZM130.487 432.12C131.643 432.12 132.893 432.211 134.239 432.392 135.585 432.573 136.775 432.828 137.81 433.155L136.361 439.47 131.703 439.47C131.737 439.107 131.755 438.737 131.755 438.357 131.755 437.115 131.565 436.213 131.185 435.653 130.806 435.092 130.245 434.812 129.503 434.812 128.227 434.812 127.01 435.545 125.854 437.011 124.698 438.478 123.732 440.514 122.956 443.119 122.18 445.724 121.791 448.01 121.791 449.977 121.791 453.22 122.973 454.842 125.337 454.842 126.527 454.842 127.653 454.574 128.714 454.04 129.775 453.505 130.978 452.608 132.324 451.348L134.42 453.6C132.609 455.411 130.797 456.701 128.986 457.469 127.174 458.236 125.182 458.62 123.008 458.62 120.368 458.62 118.319 457.796 116.861 456.149 115.404 454.501 114.675 452.211 114.675 449.278 114.675 446.535 115.291 443.74 116.525 440.893 117.759 438.046 119.583 435.873 121.998 434.372 124.414 432.871 127.243 432.12 130.487 432.12ZM101.694 432.12C106.973 432.12 109.613 434.027 109.613 437.839 109.613 439.151 109.35 440.307 108.823 441.307 108.297 442.308 107.422 443.214 106.197 444.024 104.972 444.835 103.242 445.491 101.008 445.991 98.7737 446.492 96.078 446.776 92.9208 446.845 92.6965 447.863 92.5843 448.916 92.5843 450.002 92.5843 451.607 92.9208 452.815 93.5936 453.626 94.2665 454.436 95.2844 454.842 96.6473 454.842 98.1655 454.842 99.5371 454.536 100.762 453.923 101.987 453.311 103.428 452.219 105.084 450.649L107.258 452.823C105.515 454.79 103.639 456.248 101.629 457.197 99.6191 458.146 97.4409 458.62 95.0946 458.62 93.076 458.62 91.3594 458.266 89.9447 457.559 88.53 456.852 87.4646 455.804 86.7486 454.415 86.0327 453.026 85.6747 451.365 85.6747 449.433 85.6747 448.536 85.7954 447.389 86.037 445.991 86.3648 444.093 86.8651 442.403 87.5379 440.919 88.3833 439.09 89.4875 437.52 90.8504 436.209 92.2134 434.898 93.8136 433.889 95.651 433.181 97.4884 432.474 99.5026 432.12 101.694 432.12ZM17.0209 432.12C19.1602 432.12 20.9544 432.513 22.4037 433.298 23.8529 434.083 24.9269 435.174 25.6256 436.571 26.3243 437.969 26.6737 439.591 26.6737 441.437 26.6737 443.714 26.2941 446 25.535 448.294 24.7759 450.589 23.7278 452.513 22.3907 454.065 21.0536 455.618 19.4707 456.766 17.6419 457.507 15.8132 458.249 13.7429 458.62 11.431 458.62 9.53322 458.62 7.86403 458.279 6.42344 457.598 4.98285 456.916 3.8528 455.881 3.0333 454.492 2.21381 453.104 1.80406 451.409 1.80406 449.407 1.80406 447.371 2.12323 445.236 2.76158 443.002 3.39992 440.768 4.39195 438.801 5.73765 437.102 7.08335 435.402 8.70941 434.147 10.6158 433.336 12.5222 432.526 14.6572 432.12 17.0209 432.12ZM149.412 426.064 155.623 426.064 154.122 432.534 160.411 432.534 159.712 435.769 153.372 435.769 150.862 446.121C150.43 447.898 150.133 449.248 149.969 450.171 149.805 451.094 149.723 451.874 149.723 452.513 149.723 453.324 149.87 453.914 150.163 454.285 150.456 454.656 150.888 454.842 151.457 454.842 152.233 454.842 153.031 454.566 153.851 454.014 154.67 453.462 155.554 452.608 156.503 451.452L158.496 453.496C156.753 455.411 155.153 456.744 153.695 457.494 152.238 458.245 150.517 458.62 148.533 458.62 146.566 458.62 145.056 458.116 144.004 457.106 142.951 456.097 142.425 454.704 142.425 452.927 142.425 452.116 142.486 451.344 142.606 450.611 142.727 449.877 142.977 448.674 143.357 447.001L146.022 435.769 141.985 435.769 142.477 433.673C143.685 433.673 144.599 433.561 145.22 433.336 145.841 433.112 146.363 432.776 146.786 432.327 147.208 431.879 147.618 431.197 148.015 430.283 148.412 429.368 148.878 427.962 149.412 426.064ZM74.1463 422.209 80.7713 422.209 79.4256 428.549 72.723 428.549ZM44.8636 421.147 47.8915 421.147 43.932 436.985 44.2684 437.089C45.7694 435.329 47.1798 434.061 48.4996 433.285 49.8194 432.508 51.3937 432.12 53.2225 432.12 55.1893 432.12 56.7119 432.828 57.7901 434.242 58.8684 435.657 59.4076 437.701 59.4076 440.376 59.4076 441.894 59.2264 443.563 58.8641 445.383 58.5018 447.203 57.9929 448.816 57.3373 450.222 56.6817 451.629 55.8967 452.858 54.9823 453.91 54.0679 454.963 53.0457 455.834 51.9156 456.524 50.7856 457.214 49.565 457.736 48.2538 458.09 46.9426 458.443 45.5365 458.62 44.0355 458.62 42.8968 458.62 41.8099 458.482 40.7748 458.206 39.7396 457.93 38.6699 457.447 37.5658 456.757L35.159 458.62 32.3382 458.206 38.8856 428.963C39.2479 427.341 39.4291 426.108 39.4291 425.262 39.4291 424.727 39.3471 424.339 39.1832 424.098 39.0193 423.856 38.7993 423.684 38.5233 423.58 38.2473 423.477 37.6865 423.364 36.8412 423.244L37.2552 421.562Z" fill="#E6CFD3" fill-rule="evenodd"/><text fill="#000000" fill-opacity="0" font-family="Arial,Arial_MSFontService,sans-serif" font-size="48.6265" x="1.80406" y="463.696">𝒐𝒃𝒋𝒆𝒄𝒕</text><path d="M1164.24 649.744C1162.63 649.744 1161.19 650.537 1159.9 652.125 1158.62 653.712 1157.56 656.024 1156.73 659.06 1159.9 658.974 1162.33 658.366 1164.02 657.236 1165.7 656.106 1166.54 654.505 1166.54 652.435 1166.54 651.555 1166.34 650.887 1165.93 650.43 1165.52 649.972 1164.96 649.744 1164.24 649.744ZM1131.52 649.744C1129.97 649.744 1128.57 650.52 1127.33 652.073 1126.09 653.626 1125.07 655.782 1124.29 658.543 1123.5 661.303 1123.11 663.787 1123.11 665.996 1123.11 667.255 1123.3 668.195 1123.67 668.816 1124.04 669.438 1124.61 669.748 1125.39 669.748 1126.13 669.748 1126.88 669.511 1127.64 669.036 1128.4 668.562 1129.2 667.829 1130.03 666.837 1130.87 665.845 1131.57 664.65 1132.14 663.253 1132.71 661.855 1133.22 660.095 1133.67 657.973L1133.88 657.016C1134.15 655.739 1134.29 654.497 1134.29 653.289 1134.29 652.099 1134.08 651.21 1133.64 650.624 1133.21 650.037 1132.51 649.744 1131.52 649.744ZM1094.31 649.744C1092.71 649.744 1091.29 650.55 1090.04 652.163 1088.8 653.776 1087.8 655.946 1087.04 658.672 1086.28 661.398 1085.9 663.839 1085.9 665.996 1085.9 667.255 1086.09 668.195 1086.46 668.816 1086.83 669.438 1087.4 669.748 1088.18 669.748 1089.32 669.748 1090.48 669.192 1091.66 668.079 1092.84 666.966 1093.8 665.659 1094.52 664.158 1095.24 662.657 1095.89 660.604 1096.46 657.999L1096.67 657.042C1096.94 655.765 1097.08 654.488 1097.08 653.211 1097.08 652.073 1096.87 651.21 1096.44 650.624 1096 650.037 1095.3 649.744 1094.31 649.744ZM1019.59 647.182 1022.54 647.182 1018.4 664.986C1018.23 665.711 1018.11 666.272 1018.05 666.669 1017.99 667.065 1017.96 667.514 1017.96 668.014 1017.96 668.687 1018.08 669.153 1018.3 669.412 1018.52 669.67 1018.84 669.8 1019.26 669.8 1019.76 669.8 1020.32 669.563 1020.94 669.088 1021.56 668.614 1022.29 667.893 1023.14 666.927L1025 668.791C1023.31 670.516 1021.8 671.741 1020.46 672.465 1019.12 673.19 1017.65 673.552 1016.05 673.552 1014.22 673.552 1012.88 673.104 1012.04 672.207 1011.19 671.309 1010.77 669.955 1010.77 668.144 1010.77 666.988 1010.96 665.633 1011.34 664.081L1013.51 655.075C1013.91 653.436 1014.11 652.142 1014.11 651.193 1014.11 650.52 1013.95 650.041 1013.63 649.757 1013.31 649.472 1012.64 649.278 1011.62 649.174L1012.01 647.466ZM1164.88 647.052C1170.16 647.052 1172.8 648.959 1172.8 652.772 1172.8 654.083 1172.54 655.239 1172.01 656.239 1171.49 657.24 1170.61 658.146 1169.39 658.957 1168.16 659.767 1166.43 660.423 1164.2 660.923 1161.96 661.424 1159.27 661.708 1156.11 661.777 1155.89 662.795 1155.77 663.848 1155.77 664.935 1155.77 666.539 1156.11 667.747 1156.78 668.558 1157.46 669.369 1158.47 669.774 1159.84 669.774 1161.35 669.774 1162.73 669.468 1163.95 668.855 1165.18 668.243 1166.62 667.152 1168.27 665.582L1170.45 667.755C1168.7 669.722 1166.83 671.18 1164.82 672.129 1162.81 673.078 1160.63 673.552 1158.28 673.552 1156.26 673.552 1154.55 673.199 1153.13 672.491 1151.72 671.784 1150.65 670.736 1149.94 669.347 1149.22 667.958 1148.86 666.298 1148.86 664.365 1148.86 663.468 1148.98 662.321 1149.23 660.923 1149.55 659.026 1150.05 657.335 1150.73 655.851 1151.57 654.022 1152.68 652.452 1154.04 651.141 1155.4 649.83 1157 648.821 1158.84 648.113 1160.68 647.406 1162.69 647.052 1164.88 647.052ZM1131.26 647.052C1132.49 647.052 1133.61 647.186 1134.64 647.453 1135.67 647.721 1136.71 648.208 1137.78 648.916L1140.11 647.052 1143.01 647.466 1140.79 657.585C1140.42 659.241 1140.1 660.828 1139.8 662.347 1138.87 667.074 1138.22 670.223 1137.86 671.793 1137.22 674.467 1136.57 676.485 1135.9 677.848 1135.19 679.28 1134.27 680.501 1133.15 681.51 1132.03 682.519 1130.62 683.283 1128.93 683.8 1127 684.404 1124.66 684.706 1121.9 684.706 1118.24 684.706 1115.49 684.219 1113.67 683.244 1111.84 682.269 1110.92 680.807 1110.92 678.857 1110.92 677.788 1111.3 676.779 1112.06 675.83 1112.82 674.881 1113.94 673.975 1115.43 673.112L1118.12 675.286C1117.65 675.856 1117.33 676.39 1117.15 676.891 1116.97 677.391 1116.87 677.934 1116.87 678.521 1116.87 679.694 1117.28 680.57 1118.1 681.148 1118.92 681.726 1120.15 682.015 1121.79 682.015 1124.43 682.015 1126.52 681.027 1128.05 679.052 1129.59 677.076 1130.9 673.466 1131.99 668.221L1131.65 667.988C1130.13 669.921 1128.68 671.331 1127.28 672.22 1125.88 673.108 1124.21 673.552 1122.26 673.552 1120.32 673.552 1118.81 672.845 1117.72 671.43 1116.62 670.016 1116.07 667.971 1116.07 665.297 1116.07 662.933 1116.42 660.6 1117.11 658.297 1117.8 655.993 1118.78 654.014 1120.04 652.357 1121.31 650.701 1122.89 649.403 1124.78 648.463 1126.67 647.522 1128.83 647.052 1131.26 647.052ZM1094 647.052C1096.57 647.052 1098.76 647.673 1100.58 648.916L1103.09 647.052 1105.98 647.466 1101.79 665.064C1101.53 666.151 1101.4 667.134 1101.4 668.014 1101.4 668.584 1101.5 669.023 1101.69 669.334 1101.88 669.645 1102.21 669.8 1102.67 669.8 1103.21 669.8 1103.78 669.558 1104.41 669.075 1105.03 668.592 1105.75 667.876 1106.58 666.927L1108.44 668.791C1106.63 670.602 1105.07 671.849 1103.76 672.53 1102.45 673.212 1101.07 673.552 1099.62 673.552 1098.17 673.552 1097.02 673.151 1096.18 672.349 1095.33 671.547 1094.91 670.49 1094.91 669.179 1094.91 668.747 1094.96 668.333 1095.06 667.937L1094.7 667.885C1093.44 669.369 1092.36 670.486 1091.45 671.236 1090.55 671.987 1089.59 672.56 1088.57 672.957 1087.55 673.354 1086.42 673.552 1085.18 673.552 1083.11 673.552 1081.54 672.849 1080.47 671.443 1079.4 670.037 1078.86 667.988 1078.86 665.297 1078.86 662.968 1079.2 660.656 1079.87 658.361 1080.55 656.067 1081.51 654.087 1082.77 652.422 1084.03 650.757 1085.61 649.446 1087.52 648.489 1089.43 647.531 1091.59 647.052 1094 647.052ZM1036.59 647.052C1038.02 647.052 1039.17 647.453 1040.02 648.256 1040.87 649.058 1041.3 650.115 1041.3 651.426 1041.3 651.857 1041.25 652.271 1041.15 652.668L1041.46 652.823C1043.03 650.839 1044.55 649.381 1046.02 648.45 1047.5 647.518 1049.21 647.052 1051.16 647.052 1052.89 647.052 1054.25 647.527 1055.24 648.476 1056.23 649.425 1056.75 650.736 1056.8 652.409 1058.24 650.58 1059.68 649.23 1061.14 648.359 1062.6 647.488 1064.25 647.052 1066.09 647.052 1067.84 647.052 1069.2 647.544 1070.2 648.527 1071.19 649.511 1071.68 650.882 1071.68 652.642 1071.68 653.16 1071.64 653.789 1071.55 654.531 1071.47 655.273 1071.34 655.981 1071.17 656.653L1069.07 664.986C1068.88 665.711 1068.76 666.272 1068.71 666.669 1068.66 667.065 1068.63 667.514 1068.63 668.014 1068.63 668.687 1068.74 669.153 1068.97 669.412 1069.19 669.67 1069.51 669.8 1069.92 669.8 1070.42 669.8 1070.98 669.563 1071.61 669.088 1072.23 668.614 1072.96 667.893 1073.81 666.927L1075.67 668.791C1073.98 670.516 1072.46 671.741 1071.13 672.465 1069.79 673.19 1068.32 673.552 1066.71 673.552 1064.94 673.552 1063.62 673.112 1062.76 672.232 1061.89 671.353 1061.46 670.007 1061.46 668.195 1061.46 667.626 1061.52 666.932 1061.64 666.112 1061.76 665.293 1061.94 664.443 1062.16 663.563L1063.35 659.06C1063.63 658.042 1063.87 656.968 1064.09 655.838 1064.3 654.708 1064.41 653.833 1064.41 653.211 1064.41 651.624 1063.79 650.831 1062.55 650.831 1061.81 650.831 1060.9 651.305 1059.83 652.254 1058.76 653.203 1057.88 654.242 1057.18 655.372 1056.48 656.502 1055.94 657.999 1055.56 659.862L1052.71 673.138 1045.26 673.138 1049.04 656.679C1049.23 655.886 1049.36 655.234 1049.43 654.725 1049.5 654.216 1049.53 653.772 1049.53 653.393 1049.53 652.495 1049.38 651.844 1049.07 651.439 1048.75 651.033 1048.26 650.831 1047.59 650.831 1046.8 650.831 1045.86 651.322 1044.78 652.306 1043.7 653.289 1042.83 654.324 1042.17 655.411 1041.5 656.498 1040.97 657.982 1040.58 659.862L1037.68 673.138 1030.25 673.138 1034.42 655.152C1034.68 654.031 1034.81 653.177 1034.81 652.59 1034.81 652.021 1034.71 651.581 1034.52 651.271 1034.33 650.96 1034 650.805 1033.54 650.805 1033 650.805 1032.43 651.046 1031.8 651.529 1031.18 652.012 1030.46 652.728 1029.63 653.677L1027.77 651.814C1029.49 650.054 1031.02 648.821 1032.36 648.113 1033.7 647.406 1035.11 647.052 1036.59 647.052ZM1017.7 637.141 1024.33 637.141 1022.98 643.481 1016.28 643.481Z" fill="#E6CFD3" fill-rule="evenodd"/><text fill="#000000" fill-opacity="0" font-family="Arial,Arial_MSFontService,sans-serif" font-size="47.5654" x="1010.77" y="678.76">𝒊𝒎𝒂𝒈𝒆</text><path d="M954.764 249.038 955.403 240.992 958.098 225.785 962.133 211.693 964.607 204.988 967.388 198.779 970.38 192.86 973.727 187.413 977.337 182.359 981.174 177.794 985.266 173.702 989.648 170.197 994.208 167.202 998.815 164.964 1002.31 172.161 997.935 174.286 998.383 174.031 994.196 176.781 994.499 176.561 990.436 179.811 990.766 179.516 986.953 183.328 987.187 183.074 983.562 187.386 983.755 187.137 980.317 191.95 980.471 191.719 977.283 196.907 977.445 196.617 974.57 202.305 974.651 202.135 971.963 208.135 972.065 207.885 969.69 214.322 969.783 214.039 965.845 227.789 965.939 227.385 963.314 242.198 963.362 241.816 962.739 249.671ZM977.891 228.82 958.124 257.268 943.091 226.058C942.132 224.068 942.968 221.677 944.958 220.719 946.949 219.76 949.339 220.596 950.298 222.587L962.355 247.619 955.467 247.072 971.322 224.255C972.582 222.441 975.075 221.992 976.889 223.253 978.703 224.513 979.152 227.006 977.891 228.82Z" fill="#E6CFD3"/></g></svg>